<svg xmlns="http://www.w3.org/2000/svg" width="32" height="32" fill="none" viewBox="0 0 32 32">
    <path fill="#4D4D4D" d="M6.714 26.105c.453 0 .82-.367.82-.82 0-.453-.367-.82-.82-.82-.453 0-.82.367-.82.82 0 .453.367.82.82.82z"/>
    <path fill="#4D4D4D" d="M24.213 15.481c1.45-.213 2.764-.874 3.802-1.912.988-.989 1.638-2.236 1.88-3.608.237-1.34.07-2.703-.48-3.942-.235-.525-.924-.652-1.33-.246l-3.36 3.36c-.14.14-.365.14-.504 0l-1.355-1.355c-.138-.138-.138-.363 0-.502l3.361-3.36c.407-.407.279-1.096-.246-1.33-1.239-.552-2.602-.718-3.942-.481-1.372.242-2.62.892-3.608 1.88-1.038 1.039-1.7 2.353-1.912 3.802-.176 1.195-.036 2.391.405 3.496l-2.46 2.022L8.967 7.81l.967-.967c.346-.347.314-.919-.07-1.223l-3.72-2.946c-.327-.259-.795-.232-1.09.063l-2.32 2.32c-.294.294-.321.763-.063 1.09l2.946 3.719c.305.384.877.417 1.223.07l.967-.966 5.382 5.38-10.102 8.298c-1.345 1.064-1.46 3.065-.249 4.277l2.235 2.235c1.212 1.212 3.213 1.096 4.277-.249l8.298-10.1.834.833-1.2 1.199c-.308.308-.321.803-.03 1.127l6.251 6.97c1.23 1.364 3.35 1.42 4.65.12l.906-.905c1.303-1.303 1.24-3.439-.136-4.664l-.002-.001-7.001-6.195c-.325-.288-.817-.273-1.124.034l-1.154 1.155-.948-.948 2.022-2.46c1.105.44 2.3.581 3.496.405zM6.333 8.125L4.411 5.7l1.287-1.287 2.425 1.921-1.792 1.791zm15.079 10.91l6.422 5.682c.325.29.511.69.524 1.125.013.435-.15.845-.458 1.153l-.906.906c-.307.306-.715.47-1.148.458-.434-.011-.832-.195-1.122-.516l-5.73-6.39 2.418-2.418zm-1.563-5.488l-2.895 3.525-.002.001-8.874 10.803-.011.014c-.455.58-1.311.632-1.833.11l-2.235-2.235c-.52-.52-.47-1.377.11-1.832l.014-.012 10.804-8.874 3.526-2.896c.3-.246.386-.668.207-1.012-1.033-1.994-.66-4.403.931-5.993.98-.98 2.306-1.5 3.647-1.5.289 0 .579.024.866.073l-2.398 2.397c-.778.778-.778 2.044 0 2.822l1.355 1.355c.779.779 2.045.779 2.823 0l2.397-2.396c.277 1.618-.236 3.321-1.426 4.512-1.591 1.59-4 1.964-5.994.93-.344-.178-.766-.091-1.012.208z"/>
</svg>
