<svg width="32" height="32" viewBox="0 0 32 32" fill="none" xmlns="http://www.w3.org/2000/svg">
<path d="M6.71388 26.1053C7.16693 26.1053 7.5342 25.738 7.5342 25.285C7.5342 24.8319 7.16693 24.4647 6.71388 24.4647C6.26083 24.4647 5.89355 24.8319 5.89355 25.285C5.89355 25.738 6.26083 26.1053 6.71388 26.1053Z" fill="#D26132"/>
<path d="M24.2134 15.4813C25.6621 15.2682 26.9765 14.6068 28.0146 13.5687C29.0029 12.5805 29.6533 11.333 29.8956 9.96101C30.1323 8.62094 29.9659 7.25794 29.4143 6.01937C29.1804 5.49403 28.4911 5.36661 28.0849 5.773L24.7244 9.13336C24.5857 9.27205 24.36 9.27205 24.2213 9.13336L22.8663 7.77847C22.7279 7.64 22.7279 7.41468 22.8663 7.27621L26.2272 3.9154C26.6339 3.50874 26.5058 2.81978 25.9808 2.58604C24.7422 2.03446 23.3792 1.86799 22.0391 2.10468C20.6671 2.34695 19.4195 2.99741 18.4312 3.98568C17.3931 5.02371 16.7317 6.33809 16.5186 7.78667C16.3427 8.98215 16.483 10.1782 16.9242 11.2833L14.4634 13.3046L8.96818 7.80958L9.93496 6.84286C10.2814 6.49647 10.2487 5.92432 9.86424 5.61981L6.14479 2.67387C5.81836 2.41536 5.3499 2.44238 5.05541 2.73687L2.73521 5.05696C2.44071 5.35141 2.41359 5.81981 2.67221 6.1463L5.61826 9.86558C5.92276 10.25 6.49452 10.2831 6.84136 9.9363L7.80808 8.96957L13.1896 14.3509L3.08811 22.6485C1.74327 23.7121 1.62722 25.7134 2.83939 26.9254L5.07395 29.1599C6.28594 30.3719 8.28709 30.2562 9.35111 28.9112L17.649 18.8101L18.4825 19.6437L17.2836 20.8426C16.9754 21.1507 16.962 21.646 17.2529 21.9703L23.5041 28.9394C24.7335 30.3039 26.8542 30.3607 28.1542 29.0606L29.0598 28.1551C30.3625 26.8524 30.3008 24.7163 28.9239 23.4913C28.9233 23.4908 28.9227 23.4903 28.9222 23.4898L21.9209 17.2948C21.5962 17.0075 21.1039 17.0224 20.7972 17.329L19.6426 18.4836L18.6953 17.5364L20.7167 15.0757C21.8218 15.5168 23.0179 15.6572 24.2134 15.4813ZM6.33248 8.12502L4.41189 5.70037L5.69881 4.4135L8.12358 6.33399L6.33248 8.12502ZM21.4116 19.0348L27.8339 24.7174C28.1592 25.007 28.3453 25.4062 28.358 25.8415C28.3707 26.2772 28.208 26.6868 27.8998 26.995L26.9942 27.9006C26.6874 28.2074 26.2795 28.3705 25.8461 28.3589C25.4124 28.3476 25.0136 28.1638 24.7243 27.8427L18.9931 21.4532L21.4116 19.0348ZM19.8493 13.547L16.9536 17.072C16.9532 17.0724 16.9529 17.0729 16.9525 17.0733L8.07818 27.8762C8.07441 27.8808 8.07064 27.8855 8.06692 27.8902C7.61219 28.4692 6.75588 28.5217 6.23405 27.9999L3.99949 25.7654C3.47886 25.2448 3.52884 24.3884 4.10925 23.9326C4.11395 23.929 4.1186 23.9252 4.12325 23.9214L14.9266 15.0472C14.9269 15.047 14.9272 15.0467 14.9275 15.0465L18.4529 12.1507C18.7522 11.9049 18.8387 11.4831 18.6604 11.1393C17.6266 9.14496 18.0006 6.73633 19.5912 5.14572C20.5708 4.1662 21.8969 3.64568 23.238 3.64568C23.5269 3.64568 23.8166 3.66985 24.1036 3.7188L21.7061 6.11611C20.9281 6.89421 20.9281 8.1603 21.7062 8.93846L23.0612 10.2934C23.8395 11.0717 25.1061 11.0718 25.8845 10.2934L28.2814 7.89654C28.5575 9.51542 28.045 11.2181 26.8545 12.4087C25.2638 13.9992 22.8551 14.3733 20.8607 13.3395C20.5169 13.1612 20.0951 13.2477 19.8493 13.547Z" fill="#D26132"/>
</svg>
