<svg xmlns="http://www.w3.org/2000/svg" width="33" height="32" fill="none" viewBox="0 0 33 32">
    <path fill="#4D4D4D" d="M26.982 9H5.824C3.935 9 2.4 10.513 2.4 12.374v14.252C2.4 28.487 3.935 30 5.824 30h21.152c1.889 0 3.424-1.513 3.424-3.374V12.38C30.406 10.52 28.87 9 26.982 9zm1.86 17.626c0 1.01-.835 1.832-1.86 1.832H5.824c-1.026 0-1.86-.822-1.86-1.832V12.38c0-1.01.834-1.833 1.86-1.833h21.152c1.025 0 1.86.822 1.86 1.833v14.246h.006z"/>
    <path fill="#4D4D4D" d="M20.058 19.323l6.848-6.052c.32-.286.348-.771.058-1.09-.29-.315-.782-.343-1.106-.058l-9.444 8.353-1.842-1.621c-.006-.006-.011-.012-.011-.017-.041-.04-.082-.075-.128-.109l-7.497-6.612c-.324-.285-.817-.257-1.106.063-.29.32-.261.805.063 1.09l6.93 6.104-6.9 6.367c-.313.29-.33.776-.035 1.09.156.16.365.246.573.246.191 0 .383-.069.533-.206L14 20.414l1.9 1.672c.15.132.336.195.521.195.186 0 .377-.069.522-.2l1.952-1.725 6.964 6.52c.15.143.347.212.539.212.208 0 .41-.08.567-.24.296-.308.284-.8-.029-1.09l-6.877-6.435z"/>
</svg>
