<svg xmlns="http://www.w3.org/2000/svg" width="33" height="32" fill="none" viewBox="0 0 33 32">
    <g fill="#4D4D4D" clip-path="url(#clip0)">
        <path d="M22.251 21.941h1.64v4.2h-1.64v-4.2zM23.07 20.851c.429 0 .84-.377.82-.82-.02-.444-.36-.82-.82-.82-.43 0-.84.377-.82.82.02.445.36.82.82.82z"/>
        <path d="M24.518 15.954V2H5.805C3.817 2 2.2 3.57 2.2 5.558V26.5h.017C2.4 28.46 4.053 30 6.06 30H23.08c3.926 0 7.12-3.146 7.12-7.072 0-3.434-2.443-6.307-5.682-6.974zm-1.643-.143c-3.615.103-6.563 2.914-6.885 6.47H8.798V3.597h14.077V15.81zM5.805 3.596h1.35v18.686H6.059c-.824 0-1.588.26-2.216.702V5.558c0-1.082.88-1.962 1.962-1.962zm.254 24.76c-1.222 0-2.216-.993-2.216-2.215s.994-2.216 2.216-2.216h9.972c.068.486.185.955.347 1.404H6.364v1.644h10.86c.357.514.78.98 1.256 1.384H6.06zm17.021.048c-3.02 0-5.476-2.456-5.476-5.476s2.457-5.477 5.476-5.477c3.02 0 5.477 2.457 5.477 5.477 0 3.02-2.457 5.476-5.477 5.476z"/>
        <path d="M13.181 6.79h5.5v1.644h-5.5V6.79zM11.323 10.358h9.215V12h-9.215v-1.643z"/>
    </g>
    <defs>
        <clipPath id="clip0">
            <path fill="#fff" d="M0 0H28V28H0z" transform="translate(2.2 2)"/>
        </clipPath>
    </defs>
</svg>
