<svg xmlns="http://www.w3.org/2000/svg" width="33" height="32" fill="none" viewBox="0 0 33 32">
    <path fill="#4D4D4D" d="M26.458 3.79h-4.512c-.426 0-.78.303-.861.705L6.398 8.851c-.373.11-.628.453-.628.842v8.46c0 .045.004.089.01.133l.004.025c.006.036.014.072.026.108l3.074 9.818c.117.376.464.616.838.616.087 0 .175-.013.262-.04l4.477-1.4c.222-.07.408-.224.516-.43.108-.207.13-.448.06-.67l-1.639-5.238 7.687 2.28c.08.402.435.706.86.706h4.512c.486 0 .879-.394.879-.879V4.67c0-.485-.393-.879-.878-.879zM7.526 10.348l13.541-4.015v15.185l-8.745-2.594-.007-.002-4.789-1.42v-7.154zm5.572 15.65l-2.8.876-2.32-7.406 3.391 1.006 1.729 5.525zm12.481-3.694h-2.755V5.547h2.755v16.757zM3.478 8.814c-.485 0-.878.394-.878.879v8.464c0 .485.393.878.878.878s.879-.393.879-.878V9.693c0-.485-.394-.879-.879-.879zM29.722 9.195c-.486 0-.879.393-.879.878v7.706c0 .485.393.878.879.878.485 0 .878-.393.878-.878v-7.706c0-.485-.393-.878-.878-.878z"/>
</svg>
