<svg width="32" height="32" viewBox="0 0 32 32" fill="none" xmlns="http://www.w3.org/2000/svg">
<path d="M25.8577 3.79022H21.3459C20.9201 3.79022 20.5652 4.09332 20.4848 4.4955L5.79836 8.85062C5.42546 8.96117 5.16968 9.30386 5.16968 9.69269V18.1537C5.16956 18.1976 5.17366 18.2419 5.18022 18.2863C5.18139 18.2945 5.18256 18.3027 5.18397 18.3107C5.19053 18.3469 5.19849 18.3834 5.20985 18.4194L8.28394 28.237C8.40153 28.6126 8.74807 28.8532 9.12191 28.8532C9.2087 28.8532 9.297 28.8402 9.38425 28.8129L13.8609 27.4131C14.0833 27.3435 14.269 27.1886 14.377 26.9821C14.4851 26.7757 14.5066 26.5348 14.437 26.3124L12.7981 21.0753L20.4847 23.3552C20.5651 23.7574 20.92 24.0605 21.3458 24.0605H25.8576C26.3427 24.0605 26.736 23.6672 26.736 23.1821V4.6686C26.7361 4.1835 26.3428 3.79022 25.8577 3.79022ZM6.92632 10.3484L20.4674 6.33295V21.5178L11.7216 18.9236C11.7195 18.923 11.7175 18.9224 11.7154 18.9217L6.92632 17.5012V10.3484ZM12.498 25.9987L9.69789 26.8742L7.37886 19.468L10.769 20.4735L12.498 25.9987ZM24.9793 22.3037H22.2243V5.54698H24.9793V22.3037Z" fill="#D26132"/>
<path d="M2.87838 8.81439C2.39328 8.81439 2 9.20767 2 9.69277V18.1569C2 18.642 2.39328 19.0353 2.87838 19.0353C3.36348 19.0353 3.75676 18.642 3.75676 18.1569V9.69277C3.75676 9.20755 3.36348 8.81439 2.87838 8.81439Z" fill="#D26132"/>
<path d="M29.1217 9.19495C28.6366 9.19495 28.2433 9.58822 28.2433 10.0733V17.7788C28.2433 18.2639 28.6366 18.6572 29.1217 18.6572C29.6068 18.6572 30 18.2639 30 17.7788V10.0733C30 9.58811 29.6068 9.19495 29.1217 9.19495Z" fill="#D26132"/>
</svg>
