<svg width="24" height="24" viewBox="0 0 24 24" fill="none" xmlns="http://www.w3.org/2000/svg">
    <path id="load" d="M23.834 10.0109C23.4236 7.56908 22.2678 5.314 20.5253 3.5549C18.7827 1.7958 16.5387 0.618808 14.1008 0.185325C11.663 -0.248158 9.15074 0.0830928 6.90858 1.13365C4.66642 2.18422 2.80414 3.90265 1.5771 6.0533C0.350063 8.20396 -0.18165 10.6815 0.0548745 13.1463C0.291399 15.611 1.28458 17.9423 2.89823 19.8203C4.51187 21.6984 6.66697 23.0313 9.068 23.6363C11.469 24.2413 13.9984 24.0887 16.3093 23.1995L15.225 20.3815C13.4956 21.047 11.6026 21.1612 9.80574 20.7084C8.00885 20.2556 6.39601 19.2581 5.18839 17.8526C3.98076 16.4471 3.23748 14.7024 3.06047 12.8579C2.88346 11.0133 3.28138 9.15911 4.19968 7.54959C5.11797 5.94007 6.51167 4.65403 8.18967 3.86781C9.86766 3.08159 11.7478 2.83368 13.5722 3.15809C15.3967 3.48251 17.0761 4.36335 18.3802 5.67983C19.6843 6.99631 20.5492 8.68397 20.8564 10.5114L23.834 10.0109Z" fill="#D26132"/>
</svg>
