<svg width="96" height="96" viewBox="0 0 96 96" fill="none" xmlns="http://www.w3.org/2000/svg">
<g clip-path="url(#clip0)">
<path d="M71.7149 84.5362H23.2802C22.004 84.5349 20.7805 84.0306 19.8781 83.134C18.9757 82.2374 18.4681 81.0218 18.4668 79.7538V16.2462C18.4681 14.9782 18.9757 13.7626 19.8781 12.866C20.7805 11.9694 22.004 11.4651 23.2802 11.4638H71.7149C72.991 11.4651 74.2146 11.9694 75.1169 12.866C76.0193 13.7626 76.5269 14.9782 76.5282 16.2462V79.7538C76.5269 81.0218 76.0193 82.2374 75.1169 83.134C74.2146 84.0306 72.991 84.5349 71.7149 84.5362V84.5362ZM23.2802 13.6779C22.5941 13.6779 21.9362 13.9484 21.4506 14.4299C20.9651 14.9113 20.6916 15.5646 20.6903 16.2462V79.7538C20.6916 80.4354 20.9651 81.0886 21.4506 81.5701C21.9362 82.0516 22.5941 82.3221 23.2802 82.3221H71.7149C72.4009 82.3221 73.0589 82.0516 73.5444 81.5701C74.03 81.0886 74.3034 80.4354 74.3047 79.7538V16.2462C74.3034 15.5646 74.03 14.9113 73.5444 14.4299C73.0589 13.9484 72.4009 13.6779 71.7149 13.6779H23.2802Z" fill="#65874F"/>
<path d="M71.7148 85H23.2801C21.8802 84.9987 20.5379 84.4455 19.548 83.462C18.5581 82.4784 18.0013 81.1448 18 79.7538V16.2462C18.0013 14.8552 18.5581 13.5216 19.548 12.538C20.5379 11.5545 21.8802 11.0013 23.2801 11H71.7148C73.1148 11.0013 74.4571 11.5545 75.447 12.538C76.4369 13.5216 76.9936 14.8552 76.995 16.2462V79.7538C76.9936 81.1448 76.4369 82.4784 75.447 83.462C74.4571 84.4455 73.1148 84.9987 71.7148 85V85ZM23.2801 11.9276C22.1278 11.9289 21.023 12.3843 20.2081 13.1939C19.3933 14.0035 18.9349 15.1012 18.9336 16.2462V79.7538C18.9349 80.8983 19.3934 81.9955 20.2084 82.8043C21.0234 83.6131 22.1282 84.0675 23.2801 84.0675H71.7148C72.8663 84.0661 73.9704 83.6114 74.7851 82.8029C75.5998 81.9943 76.0588 80.8979 76.0614 79.7538V16.2462C76.0588 15.1016 75.6 14.0047 74.7854 13.1954C73.9708 12.386 72.8668 11.9302 71.7148 11.9276H23.2801ZM71.7148 82.7858H23.2801C22.4703 82.7858 21.6936 82.4666 21.1205 81.8981C20.5474 81.3296 20.2248 80.5584 20.2235 79.7538V16.2462C20.2248 15.4411 20.5473 14.6694 21.1202 14.1002C21.6932 13.5309 22.4699 13.2105 23.2801 13.2092H71.7148C72.5251 13.2105 73.3018 13.5309 73.8748 14.1002C74.4477 14.6694 74.7702 15.4411 74.7715 16.2462V79.7538C74.7702 80.5584 74.4475 81.3296 73.8745 81.8981C73.3014 82.4666 72.5246 82.7858 71.7148 82.7858V82.7858ZM23.2801 14.1467C22.7179 14.1467 22.1787 14.3683 21.7807 14.7628C21.3826 15.1573 21.1584 15.6926 21.157 16.2512V79.7538C21.1584 80.3124 21.3826 80.8477 21.7807 81.2422C22.1787 81.6367 22.7179 81.8583 23.2801 81.8583H71.7148C72.2766 81.8583 72.8153 81.6366 73.2125 81.2419C73.6098 80.8472 73.8329 80.312 73.8329 79.7538V16.2462C73.8316 15.6889 73.6078 15.1549 73.2108 14.7613C72.8137 14.3677 72.2757 14.1467 71.7148 14.1467H23.2801Z" fill="#65874F"/>
<path d="M47.4975 70.7825C43.6711 70.7825 39.9306 69.6552 36.7489 67.5433C33.5672 65.4313 31.0872 62.4295 29.6225 58.9173C28.1577 55.405 27.774 51.5402 28.5197 47.8113C29.2655 44.0824 31.1073 40.657 33.8123 37.968C36.5172 35.279 39.9639 33.4473 43.7166 32.7044C47.4692 31.9615 51.3593 32.3408 54.895 33.7943C58.4307 35.2478 61.4532 37.7103 63.5805 40.8704C65.7078 44.0305 66.8443 47.7464 66.8463 51.5481C66.8436 56.6469 64.8045 61.5361 61.1768 65.1424C57.5491 68.7487 52.6292 70.7772 47.4975 70.7825V70.7825ZM47.4975 34.543C44.11 34.543 40.7986 35.5411 37.9821 37.4112C35.1657 39.2813 32.9707 41.9393 31.6748 45.049C30.3789 48.1587 30.0404 51.5804 30.702 54.8813C31.3636 58.1822 32.9956 61.214 35.3916 63.5932C37.7876 65.9724 40.84 67.5921 44.1626 68.2476C47.4853 68.903 50.9289 68.5646 54.058 67.2752C57.1871 65.9859 59.861 63.8034 61.7415 61.004C63.6221 58.2045 64.6248 54.9138 64.6228 51.5481C64.6148 47.0388 62.8077 42.7165 59.5975 39.5289C56.3873 36.3412 52.036 34.5482 47.4975 34.543Z" fill="#65874F"/>
<path d="M47.4975 71.2462C43.5787 71.2462 39.748 70.0918 36.4896 67.9289C33.2311 65.766 30.6913 62.6917 29.1912 59.0947C27.6911 55.4978 27.2981 51.5397 28.0619 47.7208C28.8257 43.902 30.7119 40.3939 33.4822 37.64C36.2524 34.8862 39.7823 33.0103 43.6255 32.2495C47.4687 31.4887 51.4526 31.8772 55.0736 33.3658C58.6946 34.8544 61.7901 37.3764 63.9686 40.6127C66.1472 43.8491 67.311 47.6546 67.313 51.5482C67.3104 56.7699 65.2221 61.7771 61.5069 65.4704C57.7916 69.1636 52.753 71.241 47.4975 71.2462V71.2462ZM47.4975 32.7976C43.7625 32.7976 40.1115 33.8981 37.0061 35.96C33.9008 38.0219 31.4806 40.9524 30.0518 44.3811C28.623 47.8097 28.2496 51.5823 28.979 55.2218C29.7084 58.8613 31.5077 62.2041 34.1494 64.8274C36.7911 67.4507 40.1565 69.2367 43.8199 69.9594C47.4833 70.6822 51.2802 70.3092 54.7302 68.8878C58.1803 67.4663 61.1286 65.0601 63.2022 61.9737C65.2757 58.8872 66.3815 55.2591 66.3795 51.5482C66.3702 46.5763 64.3775 41.8109 60.8382 38.2962C57.2988 34.7815 52.5015 32.8042 47.4975 32.7976ZM47.4975 69.0371C44.017 69.0371 40.6148 68.0113 37.7212 66.0896C34.8277 64.1679 32.5729 61.4366 31.2421 58.2413C29.9113 55.0459 29.5644 51.5302 30.2453 48.139C30.9261 44.7477 32.6041 41.6333 35.0669 39.1898C37.5297 36.7463 40.6666 35.0836 44.0808 34.412C47.495 33.7404 51.033 34.0901 54.2471 35.4169C57.4612 36.7436 60.2069 38.9878 62.137 41.8655C64.067 44.7432 65.0945 48.125 65.0895 51.5831C65.0776 56.2128 63.2195 60.6492 59.9222 63.9206C56.6249 67.192 52.1572 69.0318 47.4975 69.0371V69.0371ZM47.4975 35.0117C44.2019 35.0107 40.98 35.981 38.2395 37.7998C35.4991 39.6185 33.3631 42.204 32.102 45.2292C30.8408 48.2543 30.5111 51.5832 31.1545 54.7946C31.7979 58.006 33.3856 60.9556 35.7166 63.2702C38.0477 65.5849 41.0173 67.1606 44.2499 67.7979C47.4825 68.4353 50.8327 68.1057 53.8767 66.8508C56.9206 65.5959 59.5216 63.4721 61.3505 60.7482C63.1793 58.0243 64.1539 54.8226 64.151 51.5482C64.143 47.1631 62.3856 42.9601 59.2639 39.8604C56.1422 36.7606 51.9109 35.017 47.4975 35.0117V35.0117Z" fill="#65874F"/>
<path d="M70.6859 23.3275H24.3091C24.0136 23.3275 23.7301 23.2109 23.5212 23.0032C23.3122 22.7956 23.1948 22.514 23.1948 22.2204C23.1948 21.9268 23.3122 21.6452 23.5212 21.4376C23.7301 21.23 24.0136 21.1133 24.3091 21.1133H70.6859C70.9814 21.1133 71.2649 21.23 71.4738 21.4376C71.6828 21.6452 71.8002 21.9268 71.8002 22.2204C71.8002 22.514 71.6828 22.7956 71.4738 23.0032C71.2649 23.2109 70.9814 23.3275 70.6859 23.3275V23.3275Z" fill="#65874F"/>
<path d="M70.6859 23.7913H24.3091C23.8897 23.7913 23.4876 23.6258 23.1911 23.3312C22.8946 23.0366 22.728 22.637 22.728 22.2204C22.728 21.8038 22.8946 21.4043 23.1911 21.1097C23.4876 20.8151 23.8897 20.6496 24.3091 20.6496H70.6859C71.1052 20.6496 71.5074 20.8151 71.8039 21.1097C72.1004 21.4043 72.2669 21.8038 72.2669 22.2204C72.2669 22.637 72.1004 23.0366 71.8039 23.3312C71.5074 23.6258 71.1052 23.7913 70.6859 23.7913V23.7913ZM24.3091 21.5771C24.1478 21.5913 23.9978 21.6649 23.8885 21.7835C23.7792 21.9021 23.7185 22.0571 23.7185 22.2179C23.7185 22.3788 23.7792 22.5337 23.8885 22.6524C23.9978 22.771 24.1478 22.8446 24.3091 22.8587H70.6859C70.8471 22.8446 70.9972 22.771 71.1065 22.6524C71.2158 22.5337 71.2764 22.3788 71.2764 22.2179C71.2764 22.0571 71.2158 21.9021 71.1065 21.7835C70.9972 21.6649 70.8471 21.5913 70.6859 21.5771H24.3091Z" fill="#65874F"/>
<path d="M27.2604 18.7396H24.3091C24.1568 18.7498 24.0041 18.7287 23.8603 18.6778C23.7165 18.6269 23.5848 18.5472 23.4734 18.4437C23.3619 18.3401 23.273 18.2149 23.2122 18.0758C23.1515 17.9367 23.1201 17.7866 23.1201 17.635C23.1201 17.4834 23.1515 17.3333 23.2122 17.1942C23.273 17.0551 23.3619 16.9299 23.4734 16.8264C23.5848 16.7228 23.7165 16.6431 23.8603 16.5922C24.0041 16.5413 24.1568 16.5202 24.3091 16.5304H27.2604C27.4126 16.5202 27.5654 16.5413 27.7092 16.5922C27.8529 16.6431 27.9846 16.7228 28.0961 16.8264C28.2076 16.9299 28.2965 17.0551 28.3572 17.1942C28.418 17.3333 28.4494 17.4834 28.4494 17.635C28.4494 17.7866 28.418 17.9367 28.3572 18.0758C28.2965 18.2149 28.2076 18.3401 28.0961 18.4437C27.9846 18.5472 27.8529 18.6269 27.7092 18.6778C27.5654 18.7287 27.4126 18.7498 27.2604 18.7396Z" fill="#65874F"/>
<path d="M27.2602 19.2034H24.309C24.0942 19.2154 23.8792 19.1838 23.6772 19.1104C23.4751 19.037 23.2903 18.9234 23.1339 18.7766C22.9776 18.6298 22.853 18.4528 22.7679 18.2565C22.6828 18.0602 22.6389 17.8487 22.6389 17.635C22.6389 17.4213 22.6828 17.2098 22.7679 17.0135C22.853 16.8172 22.9776 16.6402 23.1339 16.4934C23.2903 16.3466 23.4751 16.233 23.6772 16.1596C23.8792 16.0862 24.0942 16.0546 24.309 16.0666H27.2602C27.475 16.0546 27.69 16.0862 27.8921 16.1596C28.0941 16.233 28.279 16.3466 28.4353 16.4934C28.5916 16.6402 28.7162 16.8172 28.8013 17.0135C28.8864 17.2098 28.9303 17.4213 28.9303 17.635C28.9303 17.8487 28.8864 18.0602 28.8013 18.2565C28.7162 18.4528 28.5916 18.6298 28.4353 18.7766C28.279 18.9234 28.0941 19.037 27.8921 19.1104C27.69 19.1838 27.475 19.2154 27.2602 19.2034ZM24.309 16.9942C24.1478 17.0083 23.9977 17.082 23.8884 17.2006C23.7791 17.3192 23.7185 17.4742 23.7185 17.635C23.7185 17.7958 23.7791 17.9508 23.8884 18.0694C23.9977 18.188 24.1478 18.2617 24.309 18.2758H27.2602C27.3497 18.2837 27.4399 18.2729 27.5249 18.2443C27.61 18.2157 27.6882 18.1697 27.7544 18.1095C27.8207 18.0492 27.8736 17.9759 27.9098 17.8942C27.946 17.8125 27.9647 17.7243 27.9647 17.635C27.9647 17.5458 27.946 17.4575 27.9098 17.3758C27.8736 17.2941 27.8207 17.2208 27.7544 17.1605C27.6882 17.1003 27.61 17.0544 27.5249 17.0257C27.4399 16.9971 27.3497 16.9863 27.2602 16.9942H24.309Z" fill="#65874F"/>
<path d="M34.4527 18.7396H31.5015C31.3492 18.7498 31.1965 18.7287 31.0527 18.6778C30.9089 18.6269 30.7772 18.5472 30.6657 18.4437C30.5543 18.3401 30.4654 18.2149 30.4046 18.0758C30.3439 17.9367 30.3125 17.7866 30.3125 17.635C30.3125 17.4834 30.3439 17.3333 30.4046 17.1942C30.4654 17.0551 30.5543 16.9299 30.6657 16.8264C30.7772 16.7228 30.9089 16.6431 31.0527 16.5922C31.1965 16.5413 31.3492 16.5202 31.5015 16.5304H34.4527C34.605 16.5202 34.7578 16.5413 34.9015 16.5922C35.0453 16.6431 35.177 16.7228 35.2885 16.8264C35.4 16.9299 35.4889 17.0551 35.5496 17.1942C35.6104 17.3333 35.6417 17.4834 35.6417 17.635C35.6417 17.7866 35.6104 17.9367 35.5496 18.0758C35.4889 18.2149 35.4 18.3401 35.2885 18.4437C35.177 18.5472 35.0453 18.6269 34.9015 18.6778C34.7578 18.7287 34.605 18.7498 34.4527 18.7396Z" fill="#65874F"/>
<path d="M34.4526 19.2034H31.5014C31.2866 19.2154 31.0716 19.1838 30.8695 19.1104C30.6675 19.037 30.4826 18.9234 30.3263 18.7766C30.17 18.6298 30.0454 18.4528 29.9603 18.2565C29.8752 18.0602 29.8313 17.8487 29.8313 17.635C29.8313 17.4213 29.8752 17.2098 29.9603 17.0135C30.0454 16.8172 30.17 16.6402 30.3263 16.4934C30.4826 16.3466 30.6675 16.233 30.8695 16.1596C31.0716 16.0862 31.2866 16.0546 31.5014 16.0666H34.4526C34.6674 16.0546 34.8824 16.0862 35.0845 16.1596C35.2865 16.233 35.4714 16.3466 35.6277 16.4934C35.784 16.6402 35.9086 16.8172 35.9937 17.0135C36.0788 17.2098 36.1227 17.4213 36.1227 17.635C36.1227 17.8487 36.0788 18.0602 35.9937 18.2565C35.9086 18.4528 35.784 18.6298 35.6277 18.7766C35.4714 18.9234 35.2865 19.037 35.0845 19.1104C34.8824 19.1838 34.6674 19.2154 34.4526 19.2034ZM31.5014 16.9942C31.4119 16.9863 31.3217 16.9971 31.2367 17.0257C31.1516 17.0544 31.0734 17.1003 31.0072 17.1605C30.9409 17.2208 30.888 17.2941 30.8518 17.3758C30.8156 17.4575 30.797 17.5458 30.797 17.635C30.797 17.7243 30.8156 17.8125 30.8518 17.8942C30.888 17.9759 30.9409 18.0492 31.0072 18.1095C31.0734 18.1697 31.1516 18.2157 31.2367 18.2443C31.3217 18.2729 31.4119 18.2837 31.5014 18.2758H34.4526C34.6139 18.2617 34.7639 18.188 34.8732 18.0694C34.9825 17.9508 35.0431 17.7958 35.0431 17.635C35.0431 17.4742 34.9825 17.3192 34.8732 17.2006C34.7639 17.082 34.6139 17.0083 34.4526 16.9942H31.5014Z" fill="#65874F"/>
<path d="M70.0197 17.8105C70.1161 17.2206 69.7129 16.6647 69.1192 16.5689C68.5254 16.4732 67.966 16.8738 67.8696 17.4637C67.7732 18.0537 68.1764 18.6095 68.7702 18.7053C69.3639 18.801 69.9234 18.4004 70.0197 17.8105Z" fill="#65874F"/>
<path d="M68.9393 19.1834C68.6301 19.1844 68.3276 19.0942 68.0702 18.9241C67.8127 18.7541 67.6118 18.5119 67.4931 18.2283C67.3743 17.9447 67.343 17.6325 67.403 17.3312C67.4631 17.0299 67.6119 16.7531 67.8305 16.5359C68.0491 16.3187 68.3277 16.1708 68.6309 16.1112C68.9342 16.0515 69.2485 16.0826 69.5339 16.2006C69.8193 16.3186 70.0631 16.5182 70.2342 16.774C70.4053 17.0298 70.4962 17.3303 70.4952 17.6375C70.4952 17.8405 70.4549 18.0415 70.3768 18.2291C70.2986 18.4167 70.1839 18.5871 70.0395 18.7306C69.895 18.8742 69.7235 18.9881 69.5347 19.0657C69.3459 19.1434 69.1436 19.1834 68.9393 19.1834ZM68.9393 17.0191C68.8162 17.0191 68.6958 17.0554 68.5935 17.1233C68.4911 17.1913 68.4114 17.2879 68.3643 17.4009C68.3172 17.5138 68.3048 17.6382 68.3288 17.7581C68.3529 17.8781 68.4121 17.9883 68.4992 18.0747C68.5862 18.1612 68.6971 18.2201 68.8178 18.244C68.9386 18.2678 69.0637 18.2556 69.1774 18.2088C69.2911 18.162 69.3884 18.0827 69.4567 17.981C69.5251 17.8794 69.5616 17.7598 69.5616 17.6375C69.5616 17.4735 69.4961 17.3162 69.3793 17.2002C69.2626 17.0843 69.1043 17.0191 68.9393 17.0191V17.0191Z" fill="#65874F"/>
<path d="M65.6909 17.9484C65.8635 17.3759 65.5362 16.7728 64.96 16.6013C64.3837 16.4299 63.7767 16.755 63.6042 17.3276C63.4316 17.9001 63.7589 18.5032 64.3351 18.6747C64.9114 18.8461 65.5184 18.5209 65.6909 17.9484Z" fill="#65874F"/>
<path d="M64.6429 19.1834C64.3337 19.1844 64.0312 19.0942 63.7738 18.9241C63.5163 18.7541 63.3155 18.5119 63.1967 18.2283C63.0779 17.9447 63.0466 17.6325 63.1067 17.3312C63.1667 17.0299 63.3155 16.7531 63.5341 16.5359C63.7527 16.3187 64.0313 16.1708 64.3346 16.1112C64.6378 16.0515 64.9521 16.0826 65.2375 16.2006C65.523 16.3186 65.7667 16.5182 65.9378 16.774C66.109 17.0298 66.1998 17.3303 66.1988 17.6375C66.1988 17.8405 66.1586 18.0415 66.0804 18.2291C66.0022 18.4167 65.8876 18.5871 65.7431 18.7306C65.5986 18.8742 65.4271 18.9881 65.2383 19.0657C65.0495 19.1434 64.8472 19.1834 64.6429 19.1834V19.1834ZM64.6429 17.0191C64.5198 17.0191 64.3994 17.0554 64.2971 17.1233C64.1948 17.1913 64.115 17.2879 64.0679 17.4009C64.0208 17.5138 64.0084 17.6382 64.0325 17.7581C64.0565 17.8781 64.1157 17.9883 64.2028 18.0747C64.2898 18.1612 64.4007 18.2201 64.5215 18.244C64.6422 18.2678 64.7673 18.2556 64.881 18.2088C64.9948 18.162 65.092 18.0827 65.1604 17.981C65.2287 17.8794 65.2652 17.7598 65.2652 17.6375C65.2652 17.4735 65.1997 17.3162 65.083 17.2002C64.9662 17.0843 64.8079 17.0191 64.6429 17.0191V17.0191Z" fill="#65874F"/>
<path d="M60.3516 18.7197C60.9531 18.7197 61.4408 18.2352 61.4408 17.6375C61.4408 17.0399 60.9531 16.5554 60.3516 16.5554C59.7501 16.5554 59.2625 17.0399 59.2625 17.6375C59.2625 18.2352 59.7501 18.7197 60.3516 18.7197Z" fill="#65874F"/>
<path d="M60.3465 19.1834C60.0373 19.1844 59.7348 19.0942 59.4774 18.9241C59.2199 18.7541 59.0191 18.5119 58.9003 18.2283C58.7815 17.9447 58.7502 17.6325 58.8103 17.3312C58.8703 17.0299 59.0191 16.7531 59.2377 16.5359C59.4563 16.3187 59.7349 16.1708 60.0382 16.1112C60.3414 16.0515 60.6557 16.0826 60.9411 16.2006C61.2266 16.3186 61.4703 16.5182 61.6414 16.774C61.8126 17.0298 61.9034 17.3303 61.9024 17.6375C61.9024 17.8405 61.8622 18.0415 61.784 18.2291C61.7058 18.4167 61.5912 18.5871 61.4467 18.7306C61.3022 18.8742 61.1307 18.9881 60.9419 19.0657C60.7531 19.1434 60.5508 19.1834 60.3465 19.1834V19.1834ZM60.3465 17.0191C60.2234 17.0191 60.1031 17.0554 60.0007 17.1233C59.8984 17.1913 59.8186 17.2879 59.7715 17.4009C59.7244 17.5138 59.7121 17.6382 59.7361 17.7581C59.7601 17.8781 59.8194 17.9883 59.9064 18.0747C59.9934 18.1612 60.1043 18.2201 60.2251 18.244C60.3458 18.2678 60.4709 18.2556 60.5847 18.2088C60.6984 18.162 60.7956 18.0827 60.864 17.981C60.9324 17.8794 60.9689 17.7598 60.9689 17.6375C60.9689 17.4735 60.9033 17.3162 60.7866 17.2002C60.6698 17.0843 60.5115 17.0191 60.3465 17.0191V17.0191Z" fill="#65874F"/>
<path d="M29.1727 58.9885C28.6321 57.6919 28.3539 56.3021 28.354 54.8986C28.3541 53.4952 28.6324 52.1054 29.173 50.8088C29.7137 49.5122 30.5061 48.3341 31.505 47.3417C32.5039 46.3494 33.6898 45.5623 34.9949 45.0253C36.2982 44.4942 37.6955 44.2281 39.1041 44.2426C40.5128 44.2572 41.9042 44.5522 43.1961 45.1101C45.8239 46.2261 47.8994 48.3313 48.9682 50.9647L46.1173 52.1166C45.7392 51.1812 45.1794 50.3289 44.4698 49.6084C43.7602 48.888 42.9146 48.3134 41.9815 47.9177C41.0637 47.5211 40.0753 47.311 39.0745 47.2999C38.0737 47.2887 37.0808 47.4768 36.1543 47.8529C34.2769 48.6331 32.7876 50.1213 32.0132 51.9911C31.2388 53.8609 31.2425 55.9595 32.0235 57.8266L29.1727 58.9885Z" fill="#65874F"/>
<path d="M56.1103 58.8489C53.9622 58.8419 51.8647 58.1999 50.0851 57.0045C48.3055 55.8092 46.9242 54.1146 46.1172 52.1366L48.9681 50.9846C49.3451 51.9041 49.9007 52.7408 50.6031 53.4469C51.3056 54.153 52.1412 54.7147 53.0621 55.1C53.9831 55.4853 54.9714 55.6866 55.9706 55.6923C56.9699 55.6981 57.9605 55.5083 58.8859 55.1337C59.8113 54.7591 60.6534 54.2071 61.3641 53.5092C62.0748 52.8112 62.6401 51.981 63.0279 51.066C63.4157 50.151 63.6182 49.169 63.6241 48.1762C63.6299 47.1834 63.4388 46.1991 63.0618 45.2797L65.9127 44.1277C67.0016 46.7467 67.0001 49.688 65.9085 52.3059C64.8169 54.9238 62.7245 57.0043 60.0905 58.0909C58.8252 58.5957 57.4738 58.8531 56.1103 58.8489V58.8489Z" fill="#65874F"/>
</g>
<defs>
<clipPath id="clip0">
<rect width="59" height="74" fill="white" transform="translate(18 11)"/>
</clipPath>
</defs>
</svg>
