<svg width="80" height="80" viewBox="0 0 80 80" fill="none" xmlns="http://www.w3.org/2000/svg">
<g clip-path="url(#clip0)">
<rect width="80" height="80" fill="#D8C8EC" fill-opacity="0.25"/>
<path d="M20.3165 39.1513C20.3165 38.4714 21.1939 37.7355 21.5004 37.5323C21.5836 37.478 21.6551 37.4082 21.7109 37.3268C21.7666 37.2454 21.8053 37.1541 21.825 37.058C21.8447 36.9619 21.8448 36.863 21.8255 36.7668C21.8061 36.6707 21.7676 36.5792 21.7122 36.4977C21.6568 36.4161 21.5855 36.346 21.5024 36.2915C21.4193 36.2369 21.3261 36.1989 21.228 36.1796C21.1299 36.1603 21.0289 36.1602 20.9308 36.1791C20.8327 36.1981 20.7393 36.2358 20.6561 36.2901C20.4638 36.4138 18.7902 37.5559 18.7902 39.1513C18.8387 39.9051 19.1769 40.613 19.7366 41.1324C20.0942 41.5415 20.3165 41.8094 20.3165 42.1391C20.3165 42.8191 19.4362 43.555 19.1147 43.7581C18.9557 43.8719 18.8478 44.0414 18.8135 44.2313C18.7792 44.4212 18.8211 44.6168 18.9305 44.7771C19.0398 44.9375 19.2082 45.0502 19.4004 45.0918C19.5927 45.1334 19.7939 45.1006 19.962 45.0003C20.1513 44.8766 21.8249 43.7345 21.8249 42.1391C21.7777 41.3858 21.4392 40.6784 20.8784 40.161C20.5389 39.7518 20.3165 39.484 20.3165 39.1513Z" fill="#612F7A"/>
<path d="M24.8893 39.1515C24.8893 38.4715 25.7697 37.7356 26.0912 37.5325C26.2501 37.4187 26.358 37.2491 26.3924 37.0592C26.4267 36.8693 26.3848 36.6738 26.2754 36.5134C26.166 36.3531 25.9976 36.2403 25.8054 36.1987C25.6132 36.1572 25.412 36.19 25.2439 36.2903C25.0546 36.4139 23.381 37.556 23.381 39.1515C23.427 39.9053 23.7643 40.6137 24.3244 41.1325C24.685 41.5417 24.9043 41.8095 24.9043 42.1392C24.9043 42.8192 24.027 43.5551 23.7025 43.7582C23.5435 43.872 23.4356 44.0416 23.4013 44.2315C23.367 44.4214 23.4089 44.6169 23.5183 44.7773C23.6276 44.9376 23.796 45.0504 23.9883 45.0919C24.1805 45.1335 24.3817 45.1007 24.5498 45.0004C24.7421 44.8768 26.4157 43.7347 26.4157 42.1392C26.3673 41.3862 26.029 40.6793 25.4692 40.1611C25.1147 39.752 24.8923 39.4841 24.8923 39.1515H24.8893Z" fill="#612F7A"/>
<path d="M37.6942 39.1397C37.6942 38.4624 38.5712 37.7294 38.8914 37.527C38.9744 37.4729 39.0456 37.4034 39.1011 37.3223C39.1566 37.2412 39.1952 37.1502 39.2148 37.0545C39.2344 36.9588 39.2346 36.8603 39.2153 36.7645C39.196 36.6687 39.1577 36.5776 39.1024 36.4964C39.0472 36.4151 38.9762 36.3453 38.8934 36.291C38.8107 36.2366 38.7178 36.1987 38.6201 36.1796C38.5224 36.1604 38.4218 36.1602 38.3241 36.1791C38.2263 36.198 38.1333 36.2356 38.0504 36.2897C37.8589 36.4128 36.1917 37.5505 36.1917 39.1397C36.2401 39.8906 36.577 40.5957 37.1345 41.1131C37.4907 41.5207 37.7122 41.7875 37.7122 42.1159C37.7122 42.7932 36.8382 43.5263 36.515 43.7286C36.4274 43.7809 36.3516 43.8499 36.2919 43.9316C36.2323 44.0134 36.1902 44.106 36.1681 44.2041C36.146 44.3022 36.1444 44.4036 36.1633 44.5024C36.1823 44.6011 36.2214 44.695 36.2784 44.7785C36.3353 44.862 36.4089 44.9334 36.4948 44.9883C36.5806 45.0432 36.6769 45.0806 36.7779 45.0981C36.8788 45.1156 36.9823 45.1129 37.0822 45.0902C37.1821 45.0675 37.2762 45.0253 37.359 44.966C37.5476 44.8428 39.2147 43.7052 39.2147 42.1159C39.1678 41.3647 38.8307 40.6591 38.2719 40.1425C37.9157 39.7379 37.6972 39.4711 37.6972 39.1397H37.6942Z" fill="#612F7A"/>
<path d="M42.2525 39.1397C42.2525 38.4624 43.1265 37.7294 43.4317 37.527C43.5147 37.4729 43.5859 37.4034 43.6414 37.3223C43.6969 37.2412 43.7355 37.1502 43.7551 37.0545C43.7747 36.9588 43.7749 36.8603 43.7556 36.7645C43.7363 36.6687 43.698 36.5776 43.6427 36.4964C43.5875 36.4151 43.5165 36.3453 43.4337 36.291C43.351 36.2366 43.2581 36.1987 43.1604 36.1796C43.0627 36.1604 42.9621 36.1602 42.8644 36.1791C42.7666 36.198 42.6736 36.2356 42.5907 36.2897C42.3992 36.4128 40.7321 37.5505 40.7321 39.1397C40.7804 39.8906 41.1173 40.5957 41.6748 41.1131C42.034 41.5207 42.2525 41.7875 42.2525 42.1159C42.2525 42.7932 41.3756 43.5263 41.0553 43.7286C40.897 43.842 40.7895 44.0109 40.7553 44.2C40.7211 44.3892 40.7629 44.584 40.8718 44.7437C40.9807 44.9034 41.1485 45.0157 41.34 45.0572C41.5314 45.0986 41.7319 45.0659 41.8993 44.966C42.0879 44.8428 43.755 43.7052 43.755 42.1159C43.7078 41.3662 43.372 40.6619 42.8152 40.1455C42.459 39.7379 42.2405 39.4711 42.2405 39.1397H42.2525Z" fill="#612F7A"/>
<path d="M55.1024 39.1528C55.1024 38.4729 55.9826 37.7372 56.304 37.5341C56.4629 37.4204 56.5708 37.2508 56.6051 37.061C56.6394 36.8711 56.5975 36.6756 56.4882 36.5153C56.3788 36.355 56.2105 36.2423 56.0183 36.2007C55.8261 36.1591 55.625 36.1919 55.4569 36.2922C55.2676 36.4158 53.5944 37.5577 53.5944 39.1528C53.6425 39.9059 53.9794 40.6134 54.5377 41.1334C54.8982 41.5424 55.1174 41.8102 55.1174 42.1399C55.1174 42.8197 54.2403 43.5554 53.9158 43.7585C53.757 43.8723 53.6491 44.0418 53.6148 44.2316C53.5804 44.4215 53.6223 44.617 53.7317 44.7773C53.841 44.9376 54.0094 45.0503 54.2016 45.0919C54.3937 45.1335 54.5949 45.1007 54.763 45.0004C54.9552 44.8768 56.6285 43.7349 56.6285 42.1399C56.5801 41.387 56.2419 40.6802 55.6822 40.1622C55.3217 39.7531 55.1054 39.4853 55.1054 39.1528H55.1024Z" fill="#612F7A"/>
<path d="M59.6731 39.1528C59.6731 38.4729 60.5533 37.7372 60.8747 37.5341C61.0336 37.4204 61.1415 37.2508 61.1758 37.061C61.2101 36.8711 61.1682 36.6756 61.0589 36.5153C60.9495 36.355 60.7812 36.2423 60.589 36.2007C60.3968 36.1591 60.1957 36.1919 60.0276 36.2922C59.8383 36.4158 58.1651 37.5577 58.1651 39.1528C58.2131 39.9059 58.5501 40.6134 59.1084 41.1334C59.4688 41.5424 59.6881 41.8102 59.6881 42.1399C59.6881 42.8197 58.811 43.5554 58.4865 43.7585C58.3276 43.8723 58.2198 44.0418 58.1854 44.2316C58.1511 44.4215 58.193 44.617 58.3024 44.7773C58.4117 44.9376 58.5801 45.0503 58.7722 45.0919C58.9644 45.1335 59.1656 45.1007 59.3337 45.0004C59.5259 44.8768 61.1991 43.7349 61.1991 42.1399C61.1507 41.387 60.8126 40.6802 60.2529 40.1622C59.8924 39.7531 59.6761 39.4853 59.6761 39.1528H59.6731Z" fill="#612F7A"/>
<rect x="15.625" y="19.7969" width="14.0625" height="1.52344" rx="0.761719" fill="#612F7A"/>
<rect x="15.625" y="22.7266" width="14.0625" height="1.52344" rx="0.761719" fill="#612F7A"/>
<rect x="15.625" y="25.6562" width="14.0625" height="1.52344" rx="0.761719" fill="#612F7A"/>
<rect x="15.625" y="28.5859" width="14.0625" height="1.52344" rx="0.761719" fill="#612F7A"/>
<rect x="32.9688" y="19.7969" width="14.0625" height="1.52344" rx="0.761719" fill="#612F7A"/>
<rect x="32.9688" y="22.7266" width="14.0625" height="1.52344" rx="0.761719" fill="#612F7A"/>
<rect x="32.9688" y="25.6562" width="14.0625" height="1.52344" rx="0.761719" fill="#612F7A"/>
<rect x="32.9688" y="28.5859" width="14.0625" height="1.52344" rx="0.761719" fill="#612F7A"/>
<rect x="50.3125" y="19.7969" width="14.0625" height="1.52344" rx="0.761719" fill="#612F7A"/>
<rect x="50.3125" y="22.7266" width="14.0625" height="1.52344" rx="0.761719" fill="#612F7A"/>
<rect x="50.3125" y="25.6562" width="14.0625" height="1.52344" rx="0.761719" fill="#612F7A"/>
<rect x="50.3125" y="28.5859" width="14.0625" height="1.52344" rx="0.761719" fill="#612F7A"/>
<path fill-rule="evenodd" clip-rule="evenodd" d="M65.8984 17.1016H14.1016C13.5191 17.1016 13.0469 17.5738 13.0469 18.1562V31.75C13.0469 32.3325 13.5191 32.8047 14.1016 32.8047H65.8984C66.4809 32.8047 66.9531 32.3325 66.9531 31.75V18.1562C66.9531 17.5738 66.4809 17.1016 65.8984 17.1016ZM14.1016 15.3438C12.5483 15.3438 11.2891 16.6029 11.2891 18.1562V31.75C11.2891 33.3033 12.5483 34.5625 14.1016 34.5625H65.8984C67.4517 34.5625 68.7109 33.3033 68.7109 31.75V18.1562C68.7109 16.6029 67.4517 15.3438 65.8984 15.3438H14.1016Z" fill="#612F7A"/>
<path d="M18.7832 57.2617C18.7617 57.123 18.7197 56.9961 18.6572 56.8809C18.5947 56.7637 18.5146 56.6631 18.417 56.5791C18.3193 56.4932 18.2041 56.4268 18.0713 56.3799C17.9404 56.3311 17.7959 56.3066 17.6377 56.3066C17.4541 56.3066 17.2891 56.3311 17.1426 56.3799C16.998 56.4268 16.8701 56.4932 16.7588 56.5791C16.6494 56.6631 16.5557 56.7637 16.4775 56.8809C16.4014 56.998 16.3389 57.126 16.29 57.2646C16.2412 57.4014 16.2051 57.5459 16.1816 57.6982C16.1602 57.8506 16.1494 58.0049 16.1494 58.1611C16.1494 58.3838 16.1758 58.6016 16.2285 58.8145C16.2832 59.0254 16.3701 59.2139 16.4893 59.3799C16.6084 59.5459 16.7617 59.6797 16.9492 59.7812C17.1387 59.8809 17.3682 59.9307 17.6377 59.9307C17.9912 59.9307 18.2617 59.8408 18.4492 59.6611C18.6387 59.4814 18.7559 59.2305 18.8008 58.9082H20.2891C20.2617 59.2422 20.1758 59.5449 20.0312 59.8164C19.8867 60.0879 19.6973 60.3203 19.4629 60.5137C19.2285 60.707 18.9551 60.8564 18.6426 60.9619C18.332 61.0654 17.9971 61.1172 17.6377 61.1172C17.1514 61.1172 16.7217 61.0459 16.3486 60.9033C15.9756 60.7588 15.6621 60.5576 15.4082 60.2998C15.1562 60.04 14.9648 59.7285 14.834 59.3652C14.7031 59.002 14.6377 58.6006 14.6377 58.1611C14.6377 57.7178 14.7031 57.3105 14.834 56.9395C14.9648 56.5684 15.1562 56.249 15.4082 55.9814C15.6621 55.7139 15.9756 55.5059 16.3486 55.3574C16.7217 55.207 17.1514 55.1318 17.6377 55.1318C17.8525 55.1318 18.0625 55.1543 18.2676 55.1992C18.4746 55.2422 18.6709 55.3057 18.8564 55.3896C19.0439 55.4736 19.2178 55.5771 19.3779 55.7002C19.5381 55.8213 19.6797 55.9609 19.8027 56.1191C19.9258 56.2773 20.0273 56.4521 20.1074 56.6436C20.1895 56.835 20.2432 57.041 20.2686 57.2617H18.7832ZM20.6377 58.1377C20.6377 57.8701 20.6641 57.6104 20.7168 57.3584C20.7715 57.1045 20.8535 56.8672 20.9629 56.6465C21.0723 56.4238 21.21 56.2207 21.376 56.0371C21.542 55.8516 21.7363 55.6934 21.959 55.5625C22.1836 55.4297 22.4375 55.3271 22.7207 55.2549C23.0039 55.1807 23.3174 55.1436 23.6611 55.1436C24.0049 55.1436 24.3193 55.1807 24.6045 55.2549C24.8896 55.3291 25.1445 55.4326 25.3691 55.5654C25.5957 55.6982 25.793 55.8574 25.9609 56.043C26.1289 56.2266 26.2686 56.4297 26.3799 56.6523C26.4912 56.873 26.5742 57.1094 26.6289 57.3613C26.6836 57.6133 26.7109 57.8721 26.7109 58.1377C26.7109 58.4072 26.6836 58.668 26.6289 58.9199C26.5742 59.1719 26.4912 59.4082 26.3799 59.6289C26.2705 59.8477 26.1318 60.0479 25.9639 60.2295C25.7979 60.4111 25.6016 60.5674 25.375 60.6982C25.1484 60.8271 24.8926 60.9277 24.6074 61C24.3223 61.0703 24.0068 61.1055 23.6611 61.1055C23.3174 61.1055 23.0039 61.0693 22.7207 60.9971C22.4375 60.9248 22.1836 60.8242 21.959 60.6953C21.7363 60.5645 21.542 60.4082 21.376 60.2266C21.21 60.043 21.0723 59.8418 20.9629 59.623C20.8535 59.4023 20.7715 59.167 20.7168 58.917C20.6641 58.665 20.6377 58.4053 20.6377 58.1377ZM22.1494 58.1377C22.1494 58.2842 22.1611 58.4297 22.1846 58.5742C22.21 58.7188 22.249 58.8574 22.3018 58.9902C22.3545 59.123 22.4209 59.2461 22.501 59.3594C22.5811 59.4707 22.6768 59.5684 22.7881 59.6523C22.9014 59.7363 23.0303 59.8018 23.1748 59.8486C23.3193 59.8955 23.4814 59.9189 23.6611 59.9189C23.8447 59.9189 24.0098 59.8955 24.1562 59.8486C24.3047 59.8018 24.4355 59.7363 24.5488 59.6523C24.6641 59.5684 24.7617 59.4707 24.8418 59.3594C24.9238 59.2461 24.9912 59.123 25.0439 58.9902C25.0967 58.8574 25.1348 58.7188 25.1582 58.5742C25.1836 58.4297 25.1963 58.2842 25.1963 58.1377C25.1963 57.9912 25.1836 57.8447 25.1582 57.6982C25.1348 57.5518 25.0967 57.4121 25.0439 57.2793C24.9912 57.1465 24.9238 57.0234 24.8418 56.9102C24.7617 56.7949 24.6641 56.6953 24.5488 56.6113C24.4355 56.5273 24.3047 56.4619 24.1562 56.415C24.0098 56.3662 23.8447 56.3418 23.6611 56.3418C23.4814 56.3418 23.3193 56.3662 23.1748 56.415C23.0303 56.4619 22.9014 56.5273 22.7881 56.6113C22.6768 56.6953 22.5811 56.7949 22.501 56.9102C22.4209 57.0234 22.3545 57.1465 22.3018 57.2793C22.249 57.4121 22.21 57.5518 22.1846 57.6982C22.1611 57.8447 22.1494 57.9912 22.1494 58.1377ZM27.2529 55.2725H28.7529L30.9971 58.8291V55.2725H32.4502V61H30.9385L28.7061 57.4551V61H27.2529V55.2725ZM37.1699 57.2617C37.1484 57.123 37.1064 56.9961 37.0439 56.8809C36.9814 56.7637 36.9014 56.6631 36.8037 56.5791C36.7061 56.4932 36.5908 56.4268 36.458 56.3799C36.3271 56.3311 36.1826 56.3066 36.0244 56.3066C35.8408 56.3066 35.6758 56.3311 35.5293 56.3799C35.3848 56.4268 35.2568 56.4932 35.1455 56.5791C35.0361 56.6631 34.9424 56.7637 34.8643 56.8809C34.7881 56.998 34.7256 57.126 34.6768 57.2646C34.6279 57.4014 34.5918 57.5459 34.5684 57.6982C34.5469 57.8506 34.5361 58.0049 34.5361 58.1611C34.5361 58.3838 34.5625 58.6016 34.6152 58.8145C34.6699 59.0254 34.7568 59.2139 34.876 59.3799C34.9951 59.5459 35.1484 59.6797 35.3359 59.7812C35.5254 59.8809 35.7549 59.9307 36.0244 59.9307C36.3779 59.9307 36.6484 59.8408 36.8359 59.6611C37.0254 59.4814 37.1426 59.2305 37.1875 58.9082H38.6758C38.6484 59.2422 38.5625 59.5449 38.418 59.8164C38.2734 60.0879 38.084 60.3203 37.8496 60.5137C37.6152 60.707 37.3418 60.8564 37.0293 60.9619C36.7188 61.0654 36.3838 61.1172 36.0244 61.1172C35.5381 61.1172 35.1084 61.0459 34.7354 60.9033C34.3623 60.7588 34.0488 60.5576 33.7949 60.2998C33.543 60.04 33.3516 59.7285 33.2207 59.3652C33.0898 59.002 33.0244 58.6006 33.0244 58.1611C33.0244 57.7178 33.0898 57.3105 33.2207 56.9395C33.3516 56.5684 33.543 56.249 33.7949 55.9814C34.0488 55.7139 34.3623 55.5059 34.7354 55.3574C35.1084 55.207 35.5381 55.1318 36.0244 55.1318C36.2393 55.1318 36.4492 55.1543 36.6543 55.1992C36.8613 55.2422 37.0576 55.3057 37.2432 55.3896C37.4307 55.4736 37.6045 55.5771 37.7646 55.7002C37.9248 55.8213 38.0664 55.9609 38.1895 56.1191C38.3125 56.2773 38.4141 56.4521 38.4941 56.6436C38.5762 56.835 38.6299 57.041 38.6553 57.2617H37.1699ZM43.7178 55.2725V56.4238H40.7646V57.4727H43.4424V58.6006H40.7646V59.8633H43.7295V61H39.2646V55.2725H43.7178ZM47.9629 59.7227H46.0176L45.5635 61H43.9902L46.1992 55.2725H47.8076L50.0137 61H48.417L47.9629 59.7227ZM46.3545 58.7822H47.626L47.002 57.0098L46.3545 58.7822ZM51.9443 55.2725V59.8018H54.5107V61H50.4326V55.2725H51.9443ZM59.4443 55.2725V56.4238H56.4912V57.4727H59.1689V58.6006H56.4912V59.8633H59.4561V61H54.9912V55.2725H59.4443ZM62.3096 59.8867C62.3643 59.8867 62.4287 59.8848 62.5029 59.8809C62.5771 59.875 62.6562 59.8633 62.7402 59.8457C62.8242 59.8281 62.9111 59.8027 63.001 59.7695C63.0908 59.7344 63.1787 59.6875 63.2646 59.6289C63.3506 59.5703 63.4316 59.498 63.5078 59.4121C63.584 59.3242 63.6504 59.2197 63.707 59.0986C63.7656 58.9756 63.8115 58.833 63.8447 58.6709C63.8779 58.5068 63.8945 58.3203 63.8945 58.1113C63.8945 57.8301 63.8682 57.583 63.8154 57.3701C63.7627 57.1553 63.6758 56.9766 63.5547 56.834C63.4336 56.6895 63.2734 56.5811 63.0742 56.5088C62.875 56.4346 62.6279 56.3975 62.333 56.3975H61.5771V59.8867H62.3096ZM62.3213 55.2725C62.792 55.2725 63.2158 55.3262 63.5928 55.4336C63.9717 55.5391 64.293 55.7041 64.5566 55.9287C64.8223 56.1514 65.0264 56.4355 65.1689 56.7812C65.3115 57.125 65.3828 57.5342 65.3828 58.0088C65.3828 58.499 65.3203 58.9307 65.1953 59.3037C65.0703 59.6768 64.8809 59.9893 64.627 60.2412C64.373 60.4912 64.0537 60.6807 63.6689 60.8096C63.2861 60.9365 62.8369 61 62.3213 61H60.0771V55.2725H62.3213ZM29.3154 65.4238V64.2725H33.9707V65.4238H32.3857V70H30.874V65.4238H29.3154ZM38.0254 70H36.502V67.6768L34.2461 64.2725H35.9277L37.293 66.4785L38.626 64.2725H40.2578L38.0254 67.6768V70ZM43.0908 66.7627C43.4209 66.7627 43.6631 66.71 43.8174 66.6045C43.9717 66.499 44.0488 66.332 44.0488 66.1035C44.0488 65.873 43.9717 65.7021 43.8174 65.5908C43.6631 65.4795 43.4209 65.4238 43.0908 65.4238H42.2002V66.7627H43.0908ZM43.4629 64.2725C43.7891 64.2725 44.0811 64.3125 44.3389 64.3926C44.5986 64.4727 44.8174 64.5898 44.9951 64.7441C45.1748 64.8984 45.3115 65.0869 45.4053 65.3096C45.501 65.5322 45.5488 65.7852 45.5488 66.0684C45.5488 66.3496 45.501 66.6016 45.4053 66.8242C45.3115 67.0469 45.1748 67.2354 44.9951 67.3896C44.8174 67.5439 44.5986 67.6621 44.3389 67.7441C44.0811 67.8242 43.7891 67.8643 43.4629 67.8643H42.2002V70H40.6885V64.2725H43.4629ZM50.5439 64.2725V65.4238H47.5908V66.4727H50.2686V67.6006H47.5908V68.8633H50.5557V70H46.0908V64.2725H50.5439Z" fill="#612F7A"/>
</g>
<defs>
<clipPath id="clip0">
<rect width="80" height="80" fill="white"/>
</clipPath>
</defs>
</svg>
