<svg width="80" height="80" viewBox="0 0 80 80" fill="none" xmlns="http://www.w3.org/2000/svg">
<rect width="80" height="80" fill="#D8C8EC" fill-opacity="0.25"/>
<path d="M55.2832 31.7187H24.7228C24.6295 31.7128 24.5361 31.7257 24.4481 31.7566C24.3602 31.7876 24.2796 31.8358 24.2115 31.8984C24.1433 31.9611 24.089 32.0367 24.0518 32.1207C24.0147 32.2047 23.9955 32.2953 23.9955 32.3868C23.9955 32.4784 24.0147 32.5689 24.0518 32.6529C24.089 32.7369 24.1433 32.8126 24.2115 32.8752C24.2796 32.9378 24.3602 32.9861 24.4481 33.017C24.5361 33.0479 24.6295 33.0609 24.7228 33.055H55.2832C55.4565 33.0441 55.6191 32.9689 55.7379 32.8448C55.8567 32.7207 55.9228 32.557 55.9228 32.3868C55.9228 32.2167 55.8567 32.0529 55.7379 31.9288C55.6191 31.8047 55.4565 31.7296 55.2832 31.7187V31.7187Z" fill="#612F7A"/>
<path d="M55.2833 34.5374H24.7229C24.5416 34.5374 24.3678 34.6079 24.2396 34.7335C24.1114 34.859 24.0394 35.0293 24.0394 35.2069C24.0394 35.3845 24.1114 35.5548 24.2396 35.6803C24.3678 35.8059 24.5416 35.8765 24.7229 35.8765H55.2833C55.4645 35.8765 55.6384 35.8059 55.7666 35.6803C55.8947 35.5548 55.9667 35.3845 55.9667 35.2069C55.9667 35.0293 55.8947 34.859 55.7666 34.7335C55.6384 34.6079 55.4645 34.5374 55.2833 34.5374V34.5374Z" fill="#612F7A"/>
<path d="M36.4395 24.2454H38.7204L37.6179 25.973C37.5182 26.1299 37.4859 26.3191 37.5281 26.4992C37.5702 26.6794 37.6834 26.8359 37.8429 26.9346V26.9346C38.0006 27.0321 38.1912 27.0649 38.3734 27.0257C38.5555 26.9865 38.7146 26.8785 38.816 26.7252L39.9945 24.8791L41.1757 26.7252C41.2252 26.803 41.2898 26.8704 41.366 26.9238C41.4421 26.9771 41.5282 27.0152 41.6193 27.0359C41.7104 27.0566 41.8049 27.0596 41.8972 27.0446C41.9895 27.0295 42.0779 26.9968 42.1573 26.9484C42.2367 26.8999 42.3055 26.8365 42.36 26.762C42.4144 26.6874 42.4533 26.6031 42.4745 26.5138C42.4956 26.4245 42.4986 26.332 42.4833 26.2416C42.4679 26.1511 42.4346 26.0645 42.3851 25.9867V25.9867L41.2826 24.2454H43.5635C43.7448 24.2342 43.915 24.1558 44.0394 24.026C44.1638 23.8962 44.2331 23.7249 44.2331 23.5469C44.2331 23.3689 44.1638 23.1976 44.0394 23.0678C43.915 22.938 43.7448 22.8596 43.5635 22.8484H41.2826L42.3851 21.1236C42.4429 21.0472 42.4842 20.9602 42.5065 20.8677C42.5288 20.7751 42.5317 20.6792 42.5149 20.5855C42.4981 20.4919 42.462 20.4026 42.4088 20.3231C42.3556 20.2436 42.2865 20.1756 42.2056 20.1231C42.1247 20.0706 42.0337 20.0349 41.9382 20.018C41.8428 20.0011 41.7448 20.0034 41.6502 20.0248C41.5557 20.0463 41.4666 20.0863 41.3884 20.1426C41.3102 20.1989 41.2446 20.2701 41.1954 20.3521C41.1872 20.3611 41.1806 20.3713 41.1757 20.3824L39.9973 22.2285L38.816 20.3879C38.7684 20.309 38.7054 20.2401 38.6305 20.1851C38.5557 20.1301 38.4705 20.0901 38.3799 20.0673C38.2893 20.0445 38.195 20.0394 38.1024 20.0524C38.0097 20.0653 37.9206 20.096 37.8401 20.1427C37.7596 20.1894 37.6892 20.2511 37.6331 20.3244C37.5769 20.3977 37.5361 20.4812 37.5128 20.5699C37.4896 20.6587 37.4844 20.7511 37.4976 20.8419C37.5108 20.9326 37.5421 21.0199 37.5898 21.0988L37.6067 21.1291L38.7092 22.8539H36.4395C36.2645 22.8726 36.1027 22.954 35.9852 23.0824C35.8676 23.2108 35.8026 23.3772 35.8026 23.5497C35.8026 23.7221 35.8676 23.8885 35.9852 24.0169C36.1027 24.1453 36.2645 24.2267 36.4395 24.2454Z" fill="#612F7A"/>
<path d="M31.4334 43.5995C31.4334 42.963 32.2547 42.2742 32.5416 42.084C32.6195 42.0332 32.6864 41.9678 32.7386 41.8916C32.7907 41.8155 32.827 41.73 32.8454 41.64C32.8639 41.5501 32.864 41.4575 32.8459 41.3675C32.8278 41.2775 32.7917 41.1919 32.7398 41.1155C32.688 41.0392 32.6212 40.9736 32.5435 40.9225C32.4657 40.8715 32.3784 40.8359 32.2866 40.8178C32.1948 40.7998 32.1003 40.7997 32.0084 40.8174C31.9166 40.8352 31.8292 40.8705 31.7513 40.9213C31.5713 41.037 30.0047 42.1061 30.0047 43.5995C30.0501 44.3051 30.3667 44.9676 30.8906 45.4538C31.2253 45.8368 31.4334 46.0875 31.4334 46.3961C31.4334 47.0326 30.6094 47.7214 30.3084 47.9116C30.1597 48.0181 30.0587 48.1768 30.0266 48.3545C29.9944 48.5323 30.0336 48.7153 30.136 48.8654C30.2384 49.0155 30.396 49.1211 30.5759 49.16C30.7559 49.1989 30.9442 49.1682 31.1016 49.0743C31.2788 48.9586 32.8453 47.8895 32.8453 46.3961C32.8011 45.691 32.4843 45.0289 31.9594 44.5446C31.6416 44.1616 31.4334 43.9108 31.4334 43.5995Z" fill="#612F7A"/>
<path d="M35.7141 43.5997C35.7141 42.9632 36.5382 42.2743 36.8391 42.0842C36.9879 41.9777 37.0889 41.819 37.121 41.6412C37.1531 41.4635 37.1139 41.2804 37.0115 41.1303C36.9092 40.9803 36.7515 40.8747 36.5716 40.8358C36.3917 40.7969 36.2034 40.8276 36.046 40.9215C35.8688 41.0372 34.3022 42.1063 34.3022 43.5997C34.3453 44.3053 34.6611 44.9683 35.1854 45.454C35.5229 45.837 35.7282 46.0877 35.7282 46.3963C35.7282 47.0328 34.9069 47.7216 34.6032 47.9117C34.4544 48.0183 34.3534 48.177 34.3213 48.3547C34.2892 48.5325 34.3284 48.7155 34.4308 48.8656C34.5331 49.0157 34.6907 49.1212 34.8707 49.1602C35.0506 49.1991 35.2389 49.1684 35.3963 49.0745C35.5763 48.9588 37.1428 47.8897 37.1428 46.3963C37.0975 45.6915 36.7809 45.0297 36.2569 44.5447C35.925 44.1617 35.7169 43.911 35.7169 43.5997H35.7141Z" fill="#612F7A"/>
<path d="M39.9945 43.5995C39.9945 42.963 40.8186 42.2742 41.1195 42.084C41.1975 42.0332 41.2644 41.9678 41.3166 41.8916C41.3687 41.8155 41.405 41.73 41.4234 41.64C41.4418 41.5501 41.442 41.4575 41.4239 41.3675C41.4057 41.2775 41.3697 41.1919 41.3178 41.1155C41.2659 41.0392 41.1992 40.9736 41.1214 40.9225C41.0437 40.8715 40.9564 40.8359 40.8646 40.8178C40.7728 40.7998 40.6783 40.7997 40.5864 40.8174C40.4945 40.8352 40.4072 40.8705 40.3292 40.9213C40.1492 41.037 38.5827 42.1061 38.5827 43.5995C38.6281 44.3051 38.9447 44.9676 39.4686 45.4538C39.8033 45.8368 40.0114 46.0875 40.0114 46.3961C40.0114 47.0326 39.1902 47.7215 38.8864 47.9116C38.8041 47.9607 38.7328 48.0256 38.6768 48.1023C38.6208 48.1791 38.5812 48.2662 38.5604 48.3584C38.5397 48.4506 38.5381 48.5459 38.5559 48.6386C38.5738 48.7314 38.6105 48.8197 38.6641 48.8981C38.7176 48.9766 38.7868 49.0437 38.8674 49.0953C38.9481 49.1469 39.0386 49.182 39.1334 49.1984C39.2283 49.2149 39.3256 49.2124 39.4194 49.191C39.5133 49.1697 39.6018 49.13 39.6795 49.0743C39.8567 48.9586 41.4233 47.8895 41.4233 46.3961C41.3792 45.6902 41.0625 45.0272 40.5374 44.5418C40.2027 44.1616 39.9974 43.9108 39.9974 43.5995H39.9945Z" fill="#612F7A"/>
<path d="M44.2778 43.5995C44.2778 42.963 45.0991 42.2742 45.3859 42.084C45.4639 42.0332 45.5308 41.9678 45.583 41.8916C45.6351 41.8155 45.6714 41.73 45.6898 41.64C45.7082 41.5501 45.7084 41.4575 45.6903 41.3675C45.6721 41.2775 45.6361 41.1919 45.5842 41.1155C45.5323 41.0392 45.4656 40.9736 45.3878 40.9225C45.3101 40.8715 45.2228 40.8359 45.131 40.8178C45.0392 40.7998 44.9447 40.7997 44.8528 40.8174C44.761 40.8352 44.6736 40.8705 44.5956 40.9213C44.4156 41.037 42.8491 42.1061 42.8491 43.5995C42.8945 44.3051 43.2111 44.9676 43.735 45.4538C44.0725 45.8368 44.2778 46.0875 44.2778 46.3961C44.2778 47.0326 43.4538 47.7214 43.1528 47.9116C43.0041 48.0181 42.9031 48.1768 42.8709 48.3545C42.8388 48.5323 42.878 48.7153 42.9804 48.8654C43.0828 49.0155 43.2404 49.1211 43.4203 49.16C43.6003 49.1989 43.7886 49.1682 43.946 49.0743C44.1231 48.9586 45.6897 47.8895 45.6897 46.3961C45.6454 45.6916 45.3298 45.0298 44.8066 44.5446C44.4719 44.1616 44.2666 43.9108 44.2666 43.5995H44.2778Z" fill="#612F7A"/>
<path d="M48.5587 43.5997C48.5587 42.9632 49.3827 42.2743 49.6837 42.0842C49.8324 41.9777 49.9334 41.819 49.9656 41.6412C49.9977 41.4635 49.9585 41.2804 49.8561 41.1303C49.7537 40.9803 49.5961 40.8747 49.4162 40.8358C49.2363 40.7969 49.0479 40.8276 48.8906 40.9215C48.7134 41.0372 47.1468 42.1063 47.1468 43.5997C47.1918 44.3048 47.5073 44.9672 48.0299 45.454C48.3674 45.837 48.5727 46.0877 48.5727 46.3963C48.5727 47.0328 47.7515 47.7216 47.4478 47.9117C47.299 48.0183 47.198 48.177 47.1659 48.3547C47.1337 48.5325 47.1729 48.7155 47.2753 48.8656C47.3777 49.0157 47.5353 49.1212 47.7153 49.1602C47.8952 49.1991 48.0835 49.1684 48.2409 49.0745C48.4209 48.9588 49.9874 47.8897 49.9874 46.3963C49.9421 45.6915 49.6255 45.0297 49.1015 44.5447C48.764 44.1617 48.5615 43.911 48.5615 43.5997H48.5587Z" fill="#612F7A"/>
<path fill-rule="evenodd" clip-rule="evenodd" d="M60.0195 16.5195H19.9805C18.6321 16.5195 17.5391 17.6126 17.5391 18.9609V35.5625C17.5391 36.9109 18.6321 38.0039 19.9805 38.0039H60.0195C61.3679 38.0039 62.4609 36.9109 62.4609 35.5625V18.9609C62.4609 17.6126 61.3679 16.5195 60.0195 16.5195ZM19.9805 15.0547C17.8231 15.0547 16.0742 16.8036 16.0742 18.9609V35.5625C16.0742 37.7199 17.8231 39.4688 19.9805 39.4688H60.0195C62.1769 39.4688 63.9258 37.7199 63.9258 35.5625V18.9609C63.9258 16.8036 62.1769 15.0547 60.0195 15.0547H19.9805Z" fill="#612F7A"/>
<path d="M23.6865 66H22.2949L21.2988 62.1533H21.2754L20.3027 66H18.876L17.3262 60.2725H18.8496L19.6787 63.7002L20.5781 60.2725H22.0195L22.9072 63.7471L23.7598 60.2725H25.2715L23.6865 66ZM28.9746 64.7227H27.0293L26.5752 66H25.002L27.2109 60.2725H28.8193L31.0254 66H29.4287L28.9746 64.7227ZM27.3662 63.7822H28.6377L28.0137 62.0098L27.3662 63.7822ZM32.9561 60.2725V64.8018H35.5225V66H31.4443V60.2725H32.9561ZM37.5146 60.2725V64.8018H40.0811V66H36.0029V60.2725H37.5146ZM42.2549 61.4238V60.2725H46.9102V61.4238H45.3252V66H43.8135V61.4238H42.2549ZM50.9648 66H49.4414V63.6768L47.1855 60.2725H48.8672L50.2324 62.4785L51.5654 60.2725H53.1973L50.9648 63.6768V66ZM56.0303 62.7627C56.3604 62.7627 56.6025 62.71 56.7568 62.6045C56.9111 62.499 56.9883 62.332 56.9883 62.1035C56.9883 61.873 56.9111 61.7021 56.7568 61.5908C56.6025 61.4795 56.3604 61.4238 56.0303 61.4238H55.1396V62.7627H56.0303ZM56.4023 60.2725C56.7285 60.2725 57.0205 60.3125 57.2783 60.3926C57.5381 60.4727 57.7568 60.5898 57.9346 60.7441C58.1143 60.8984 58.251 61.0869 58.3447 61.3096C58.4404 61.5322 58.4883 61.7852 58.4883 62.0684C58.4883 62.3496 58.4404 62.6016 58.3447 62.8242C58.251 63.0469 58.1143 63.2354 57.9346 63.3896C57.7568 63.5439 57.5381 63.6621 57.2783 63.7441C57.0205 63.8242 56.7285 63.8643 56.4023 63.8643H55.1396V66H53.6279V60.2725H56.4023ZM63.4834 60.2725V61.4238H60.5303V62.4727H63.208V63.6006H60.5303V64.8633H63.4951V66H59.0303V60.2725H63.4834Z" fill="#612F7A"/>
</svg>
