<svg width="200" height="185" viewBox="0 0 200 185" fill="none" xmlns="http://www.w3.org/2000/svg">
<path d="M200 185H188.514V91.4897L100 15.2346L11.4855 91.4897V185H0V86.1511L100 0L200 86.1511V185Z" fill="black"/>
<path d="M41.0149 145.135V163.672H51.7414V167.973H35.9957V145.135H41.0149Z" fill="black"/>
<path d="M64.9367 145.135V167.973H60.0121V145.135H64.9367Z" fill="black"/>
<path d="M80.6587 167.973L72.7531 145.135H78.1531L83.167 160.907L88.1888 145.135H93.5021L85.5045 167.973H80.6587Z" fill="black"/>
<path d="M106.235 145.135V167.973H101.311V145.135H106.235Z" fill="black"/>
<path d="M116.174 145.135H121.148L130.908 160.444H130.953V145.135H135.736V167.973H130.722L121.004 152.68H120.957V167.973H116.174V145.135Z" fill="black"/>
<path d="M162.111 165.629C161.704 166.152 161.225 166.613 160.69 167.001C160.196 167.352 159.662 167.642 159.098 167.861C158.553 168.074 157.987 168.225 157.409 168.312C156.848 168.395 156.282 168.438 155.715 168.439C154.597 168.447 153.483 168.308 152.401 168.026C151.416 167.767 150.471 167.37 149.596 166.847C148.765 166.349 148.009 165.733 147.353 165.017C146.699 164.302 146.146 163.5 145.708 162.634C145.259 161.737 144.92 160.788 144.7 159.808C144.466 158.772 144.35 157.712 144.353 156.649C144.349 155.557 144.466 154.467 144.7 153.4C144.919 152.398 145.257 151.426 145.708 150.506C146.145 149.622 146.698 148.801 147.353 148.067C148.006 147.336 148.761 146.705 149.596 146.195C150.469 145.666 151.411 145.263 152.395 144.998C153.478 144.71 154.595 144.571 155.715 144.587C156.495 144.586 157.272 144.661 158.037 144.812C158.78 144.954 159.506 145.173 160.204 145.466C160.884 145.756 161.529 146.123 162.126 146.56C162.718 146.992 163.248 147.503 163.702 148.08C164.162 148.677 164.54 149.335 164.824 150.034C165.128 150.792 165.325 151.589 165.407 152.402H160.516C160.391 151.857 160.175 151.338 159.878 150.866C159.599 150.43 159.243 150.049 158.828 149.743C158.399 149.432 157.921 149.197 157.415 149.047C156.866 148.885 156.297 148.805 155.726 148.811C155.035 148.8 154.348 148.902 153.69 149.113C152.544 149.48 151.554 150.227 150.88 151.231C150.54 151.733 150.263 152.276 150.055 152.847C149.839 153.447 149.683 154.068 149.59 154.7C149.488 155.354 149.437 156.014 149.438 156.676C149.436 157.611 149.551 158.542 149.779 159.448C149.991 160.316 150.365 161.134 150.88 161.861C151.39 162.574 152.058 163.157 152.831 163.563C153.728 164.013 154.72 164.233 155.72 164.204C156.44 164.212 157.156 164.11 157.845 163.902C158.459 163.714 159.03 163.404 159.524 162.992C160.007 162.574 160.398 162.06 160.674 161.482C160.98 160.82 161.164 160.108 161.218 159.379H156.101V155.336H165.819V167.973H162.578L162.111 165.629Z" fill="black"/>
<path d="M36.0745 103.576H41.049L50.8089 118.885H50.8536V103.576H55.6364V126.413H50.6225L40.9045 111.12H40.8599V126.413H36.0745V103.576Z" fill="black"/>
<path d="M64.3484 115.002C64.3466 113.98 64.4532 112.96 64.6662 111.96C64.8725 110.985 65.1907 110.037 65.6144 109.137C66.0292 108.256 66.5592 107.434 67.1902 106.695C67.8355 105.948 68.588 105.301 69.4227 104.778C70.3151 104.224 71.2807 103.799 72.2908 103.518C73.434 103.203 74.615 103.051 75.7998 103.065C76.995 103.051 78.1863 103.204 79.3403 103.518C80.3578 103.797 81.3306 104.222 82.2294 104.778C83.07 105.3 83.8279 105.946 84.4776 106.695C85.1205 107.433 85.662 108.254 86.0877 109.137C86.5182 110.036 86.84 110.983 87.0463 111.96C87.4665 113.962 87.4665 116.03 87.0463 118.032C86.84 119 86.5181 119.939 86.0877 120.828C85.6611 121.704 85.1196 122.518 84.4776 123.249C83.8252 123.991 83.0676 124.631 82.2294 125.15C81.3303 125.701 80.3573 126.12 79.3403 126.392C78.1869 126.7 76.9981 126.852 75.805 126.845C74.6211 126.857 73.4409 126.709 72.2961 126.405C71.2864 126.131 70.3206 125.713 69.428 125.163C68.5955 124.643 67.8433 124.002 67.1955 123.262C66.5654 122.53 66.0354 121.716 65.6196 120.841C65.196 119.95 64.8778 119.011 64.6715 118.045C64.4556 117.045 64.3473 116.025 64.3484 115.002ZM69.3676 115.002C69.3669 115.933 69.4879 116.86 69.7274 117.759C69.9489 118.634 70.3349 119.459 70.8647 120.187C71.3919 120.91 72.0743 121.503 72.8608 121.922C73.7735 122.382 74.7849 122.608 75.805 122.579C76.8437 122.608 77.8741 122.383 78.8071 121.922C79.605 121.506 80.2991 120.913 80.8374 120.187C81.3665 119.457 81.7549 118.634 81.9825 117.759C82.2175 116.859 82.3375 115.933 82.3397 115.002C82.337 114.381 82.2852 113.761 82.1847 113.149C82.0817 112.54 81.9162 111.944 81.691 111.369C81.4705 110.813 81.1839 110.286 80.8374 109.799C80.4899 109.31 80.068 108.88 79.5872 108.525C79.079 108.153 78.5138 107.868 77.9141 107.68C77.2332 107.472 76.5245 107.37 75.8129 107.378C75.1116 107.369 74.4133 107.471 73.7433 107.68C72.5812 108.049 71.5721 108.793 70.8725 109.799C70.528 110.287 70.2415 110.814 70.0189 111.369C69.7927 111.943 69.6297 112.539 69.533 113.149C69.4253 113.761 69.3699 114.381 69.3676 115.002Z" fill="black"/>
<path d="M104.557 103.576C105.066 103.576 105.623 103.576 106.222 103.592C106.821 103.608 107.422 103.642 108.024 103.698C108.599 103.75 109.17 103.838 109.734 103.962C110.225 104.065 110.699 104.244 111.136 104.492C111.559 104.743 111.956 105.036 112.321 105.366C112.692 105.703 113.017 106.088 113.29 106.51C113.572 106.947 113.793 107.421 113.947 107.919C114.115 108.463 114.198 109.03 114.193 109.6C114.194 110.097 114.123 110.591 113.981 111.067C113.694 111.972 113.188 112.791 112.51 113.451C112.183 113.772 111.82 114.054 111.428 114.29C112.044 114.437 112.626 114.707 113.138 115.085C113.614 115.434 114.024 115.867 114.351 116.361C114.669 116.85 114.909 117.386 115.063 117.95C115.222 118.518 115.302 119.105 115.302 119.695C115.3 120.573 115.117 121.442 114.763 122.245C114.409 123.048 113.893 123.768 113.248 124.358C112.517 125.014 111.668 125.523 110.747 125.857C109.652 126.252 108.496 126.443 107.333 126.421H96.0708V103.576H104.557ZM105.405 112.889C106.004 112.902 106.601 112.838 107.183 112.699C107.61 112.597 108.011 112.411 108.365 112.15C108.654 111.928 108.879 111.632 109.017 111.292C109.155 110.937 109.224 110.557 109.219 110.175C109.239 109.71 109.138 109.249 108.927 108.835C108.733 108.5 108.452 108.225 108.113 108.041C107.737 107.838 107.326 107.708 106.902 107.657C106.406 107.588 105.906 107.554 105.405 107.556H101.09V112.889H105.405ZM106.918 122.438C107.412 122.448 107.904 122.369 108.371 122.205C108.762 122.067 109.12 121.847 109.421 121.559C109.703 121.282 109.922 120.947 110.065 120.577C110.214 120.185 110.288 119.768 110.283 119.348C110.296 118.894 110.175 118.446 109.936 118.061C109.703 117.703 109.39 117.406 109.022 117.192C108.624 116.959 108.193 116.791 107.743 116.695C107.271 116.592 106.789 116.54 106.306 116.541H101.09V122.438H106.918Z" fill="black"/>
<path d="M129.222 103.576V122.113H139.941V126.413H124.206V103.576H129.222Z" fill="black"/>
<path d="M165.268 103.576V107.704H153.141V112.587H163.836V116.61H153.141V122.343H165.318V126.411H148.167V103.576H165.268Z" fill="black"/>
</svg>
