<svg width="32" height="32" viewBox="0 0 32 32" fill="none" xmlns="http://www.w3.org/2000/svg">
<path d="M26.5818 9H5.42396C3.53528 9 2 10.5131 2 12.3744V26.6256C2 28.4869 3.53528 30 5.42396 30H26.576C28.4647 30 30 28.4869 30 26.6256V12.3801C30.0058 10.5188 28.4705 9 26.5818 9ZM28.4415 26.6256C28.4415 27.6362 27.6073 28.4584 26.5818 28.4584H5.42396C4.39851 28.4584 3.56424 27.6362 3.56424 26.6256V12.3801C3.56424 11.3695 4.39851 10.5473 5.42396 10.5473H26.576C27.6015 10.5473 28.4357 11.3695 28.4357 12.3801V26.6256H28.4415Z" fill="#D26132"/>
<path d="M19.6586 19.323L26.5065 13.2708C26.8251 12.9853 26.8541 12.5 26.5644 12.1802C26.2747 11.8662 25.7823 11.8377 25.4578 12.1231L16.0144 20.4763L14.1721 18.8548C14.1663 18.8491 14.1605 18.8434 14.1605 18.8377C14.12 18.7977 14.0794 18.7634 14.0331 18.7292L6.53628 12.1174C6.21184 11.832 5.71939 11.8605 5.42972 12.1802C5.14004 12.5 5.16901 12.9853 5.49345 13.2708L12.4225 19.3744L5.52241 25.7406C5.20957 26.0318 5.19218 26.5171 5.48765 26.8311C5.64408 26.991 5.85264 27.0767 6.06121 27.0767C6.2524 27.0767 6.44358 27.0081 6.59421 26.8711L13.5986 20.4135L15.4988 22.0864C15.6495 22.2178 15.8348 22.2806 16.0202 22.2806C16.2056 22.2806 16.3968 22.2121 16.5417 22.0807L18.4941 20.3564L25.4578 26.8768C25.6085 27.0196 25.8055 27.0881 25.9966 27.0881C26.2052 27.0881 26.408 27.0081 26.5644 26.8483C26.8599 26.5399 26.8483 26.0489 26.5354 25.7577L19.6586 19.323Z" fill="#D26132"/>
</svg>
