<svg width="32" height="32" viewBox="0 0 32 32" fill="none" xmlns="http://www.w3.org/2000/svg">
<path d="M32 30.6909H30.1623V15.9866L16 3.99559L1.83768 15.9866V30.6909H0V15.1471L16 1.59998L32 15.1471V30.6909Z" fill="#D26132"/>
<path d="M6.56235 24.4222V27.3371H8.27858V28.0134H5.75928V24.4222H6.56235Z" fill="#D26132"/>
<path d="M10.3899 24.4222V28.0134H9.60193V24.4222H10.3899Z" fill="#D26132"/>
<path d="M12.9054 28.0134L11.6405 24.4222H12.5045L13.3067 26.9024L14.1102 24.4222H14.9604L13.6807 28.0134H12.9054Z" fill="#D26132"/>
<path d="M16.9977 24.4222V28.0134H16.2097V24.4222H16.9977Z" fill="#D26132"/>
<path d="M18.5878 24.4222H19.3837L20.9453 26.8295H20.9524V24.4222H21.7177V28.0134H20.9155L19.3606 25.6086H19.353V28.0134H18.5878V24.4222Z" fill="#D26132"/>
<path d="M25.9378 27.6448C25.8726 27.727 25.7961 27.7996 25.7104 27.8605C25.6315 27.9158 25.5459 27.9613 25.4558 27.9958C25.3686 28.0293 25.278 28.053 25.1856 28.0666C25.0958 28.0798 25.0052 28.0865 24.9145 28.0866C24.7356 28.0879 24.5574 28.066 24.3842 28.0217C24.2266 27.981 24.0755 27.9186 23.9354 27.8364C23.8024 27.758 23.6815 27.6611 23.5765 27.5486C23.472 27.4362 23.3834 27.3101 23.3134 27.1738C23.2415 27.0328 23.1873 26.8836 23.152 26.7295C23.1146 26.5666 23.096 26.3999 23.0966 26.2328C23.096 26.0609 23.1146 25.8896 23.152 25.7218C23.1871 25.5642 23.2412 25.4114 23.3134 25.2667C23.3833 25.1277 23.4718 24.9987 23.5765 24.8832C23.681 24.7682 23.8019 24.669 23.9354 24.5888C24.0751 24.5057 24.2259 24.4424 24.3833 24.4005C24.5566 24.3553 24.7353 24.3335 24.9145 24.336C25.0392 24.3358 25.1636 24.3477 25.286 24.3714C25.4048 24.3937 25.521 24.4282 25.6327 24.4743C25.7415 24.5198 25.8447 24.5775 25.9403 24.6462C26.0349 24.7142 26.1198 24.7946 26.1924 24.8852C26.266 24.9792 26.3264 25.0825 26.3719 25.1926C26.4206 25.3116 26.452 25.437 26.4652 25.5648H25.6827C25.6626 25.4792 25.6281 25.3976 25.5806 25.3233C25.5359 25.2548 25.479 25.1949 25.4125 25.1468C25.3439 25.0979 25.2674 25.0609 25.1864 25.0372C25.0987 25.0118 25.0076 24.9993 24.9162 25.0002C24.8057 24.9984 24.6958 25.0145 24.5905 25.0477C24.4071 25.1054 24.2487 25.2228 24.1409 25.3808C24.0864 25.4597 24.0421 25.545 24.0089 25.6348C23.9744 25.7292 23.9494 25.8269 23.9345 25.9263C23.9181 26.029 23.91 26.1329 23.9101 26.2369C23.9098 26.3839 23.9282 26.5304 23.9648 26.6729C23.9987 26.8093 24.0584 26.938 24.1409 27.0522C24.2225 27.1643 24.3294 27.256 24.4531 27.32C24.5965 27.3906 24.7553 27.4253 24.9153 27.4208C25.0304 27.422 25.1451 27.406 25.2553 27.3733C25.3535 27.3437 25.4448 27.295 25.5238 27.2301C25.6011 27.1644 25.6638 27.0836 25.7079 26.9927C25.7569 26.8886 25.7864 26.7766 25.7949 26.6621H24.9763V26.0262H26.5311V28.0133H26.0126L25.9378 27.6448Z" fill="#D26132"/>
<path d="M5.77197 17.8871H6.5679L8.12949 20.2944H8.13663V17.8871H8.90188V21.4782H8.09965L6.54478 19.0734H6.53764V21.4782H5.77197V17.8871Z" fill="#D26132"/>
<path d="M10.2957 19.6839C10.2954 19.5231 10.3124 19.3627 10.3465 19.2054C10.3795 19.0521 10.4304 18.9032 10.4982 18.7615C10.5646 18.623 10.6494 18.4939 10.7504 18.3776C10.8536 18.26 10.974 18.1584 11.1076 18.0761C11.2503 17.989 11.4048 17.9222 11.5664 17.8779C11.7494 17.8285 11.9383 17.8046 12.1279 17.8067C12.3191 17.8046 12.5097 17.8286 12.6944 17.8779C12.8572 17.9219 13.0128 17.9886 13.1566 18.0761C13.2911 18.1582 13.4124 18.2598 13.5163 18.3776C13.6192 18.4936 13.7058 18.6227 13.7739 18.7615C13.8428 18.9029 13.8943 19.0519 13.9273 19.2054C13.9946 19.5202 13.9946 19.8455 13.9273 20.1603C13.8943 20.3124 13.8428 20.4601 13.7739 20.6C13.7057 20.7377 13.619 20.8658 13.5163 20.9806C13.4119 21.0973 13.2907 21.198 13.1566 21.2796C13.0128 21.3663 12.8571 21.432 12.6944 21.4749C12.5098 21.5233 12.3196 21.5473 12.1287 21.5461C11.9393 21.548 11.7505 21.5248 11.5673 21.477C11.4057 21.4338 11.2512 21.368 11.1084 21.2817C10.9752 21.1999 10.8548 21.0991 10.7512 20.9827C10.6504 20.8675 10.5656 20.7395 10.4991 20.6021C10.4313 20.4619 10.3804 20.3143 10.3473 20.1623C10.3128 20.0052 10.2955 19.8448 10.2957 19.6839ZM11.0987 19.6839C11.0986 19.8303 11.118 19.976 11.1563 20.1174C11.1917 20.255 11.2535 20.3847 11.3383 20.4992C11.4226 20.6128 11.5318 20.7061 11.6576 20.772C11.8037 20.8443 11.9655 20.8798 12.1287 20.8752C12.2949 20.8799 12.4598 20.8445 12.609 20.772C12.7367 20.7065 12.8478 20.6133 12.9339 20.4992C13.0185 20.3844 13.0807 20.2549 13.1171 20.1174C13.1547 19.9759 13.1739 19.8302 13.1743 19.6839C13.1738 19.5862 13.1655 19.4888 13.1495 19.3924C13.133 19.2967 13.1065 19.2029 13.0705 19.1126C13.0352 19.0251 12.9893 18.9422 12.9339 18.8656C12.8783 18.7888 12.8108 18.7212 12.7339 18.6654C12.6526 18.6069 12.5621 18.562 12.4662 18.5325C12.3572 18.4997 12.2438 18.4837 12.13 18.485C12.0178 18.4836 11.906 18.4996 11.7988 18.5325C11.6129 18.5904 11.4514 18.7075 11.3395 18.8656C11.2844 18.9424 11.2385 19.0252 11.2029 19.1126C11.1667 19.2027 11.1407 19.2966 11.1252 19.3924C11.108 19.4886 11.0991 19.5862 11.0987 19.6839Z" fill="#D26132"/>
<path d="M16.7291 17.8871C16.8106 17.8871 16.8997 17.8871 16.9955 17.8896C17.0914 17.8921 17.1876 17.8975 17.2838 17.9062C17.3758 17.9144 17.4672 17.9283 17.5574 17.9479C17.6361 17.964 17.7118 17.9921 17.7818 18.0312C17.8494 18.0706 17.9129 18.1167 17.9713 18.1686C18.0307 18.2216 18.0828 18.2821 18.1264 18.3485C18.1716 18.4171 18.2069 18.4917 18.2315 18.57C18.2584 18.6556 18.2717 18.7448 18.271 18.8344C18.2711 18.9126 18.2596 18.9903 18.2369 19.0651C18.191 19.2074 18.1102 19.3362 18.0016 19.4399C17.9493 19.4905 17.8912 19.5348 17.8284 19.5719C17.9271 19.595 18.0201 19.6375 18.102 19.6968C18.1782 19.7518 18.2439 19.8198 18.2962 19.8975C18.347 19.9744 18.3855 20.0587 18.4101 20.1474C18.4355 20.2366 18.4484 20.329 18.4483 20.4218C18.448 20.5599 18.4187 20.6965 18.3621 20.8228C18.3055 20.9491 18.2229 21.0622 18.1197 21.1551C18.0027 21.2582 17.8669 21.3382 17.7196 21.3908C17.5444 21.4528 17.3593 21.4828 17.1733 21.4795H15.3713V17.8871H16.7291ZM16.8649 19.3516C16.9606 19.3536 17.0562 19.3436 17.1493 19.3216C17.2175 19.3056 17.2818 19.2763 17.3385 19.2354C17.3846 19.2004 17.4206 19.1538 17.4427 19.1005C17.4648 19.0446 17.4758 18.9849 17.475 18.9248C17.4782 18.8517 17.4621 18.7791 17.4284 18.7141C17.3973 18.6614 17.3523 18.6182 17.2981 18.5892C17.2379 18.5573 17.1722 18.5368 17.1044 18.5288C17.025 18.518 16.945 18.5127 16.8649 18.5129H16.1744V19.3516H16.8649ZM17.1069 20.8532C17.1859 20.8547 17.2646 20.8423 17.3393 20.8165C17.4019 20.7948 17.4592 20.7602 17.5074 20.7149C17.5524 20.6713 17.5875 20.6186 17.6103 20.5604C17.6342 20.4988 17.6461 20.4332 17.6452 20.3672C17.6474 20.2958 17.6281 20.2254 17.5898 20.1648C17.5524 20.1086 17.5024 20.0618 17.4435 20.0283C17.3799 19.9916 17.3108 19.9652 17.2389 19.95C17.1633 19.9338 17.0863 19.9257 17.009 19.9258H16.1744V20.8532H17.1069Z" fill="#D26132"/>
<path d="M20.6756 17.8871V20.802H22.3905V21.4782H19.8729V17.8871H20.6756Z" fill="#D26132"/>
<path d="M26.4428 17.8871V18.5363H24.5026V19.3041H26.2138V19.9367H24.5026V20.8382H26.4508V21.4778H23.7067V17.8871H26.4428Z" fill="#D26132"/>
</svg>
