<svg width="32" height="32" viewBox="0 0 32 32" fill="none" xmlns="http://www.w3.org/2000/svg">
<path d="M22.0511 21.941H23.6918V26.141H22.0511V21.941Z" fill="#D26132"/>
<path d="M22.8696 20.8514C23.2987 20.8514 23.7098 20.4742 23.6899 20.0311C23.67 19.5867 23.3295 19.2108 22.8696 19.2108C22.4405 19.2108 22.0294 19.5881 22.0493 20.0311C22.0692 20.4756 22.4097 20.8514 22.8696 20.8514Z" fill="#D26132"/>
<path d="M24.3178 15.9541V2H5.60527C3.61733 2 2 3.56975 2 5.5577V26.5008H2.01734C2.19955 28.4605 3.85254 30 5.85902 30H22.8802C26.8061 30 30 26.8537 30 22.9279C30 19.4944 27.5569 16.6208 24.3178 15.9541ZM22.6746 15.8113C19.0598 15.9144 16.1116 18.725 15.7902 22.2819H8.59783V3.59562H22.6746V15.8113ZM5.60527 3.59562H6.95458V22.2819H5.85902C5.03483 22.2819 4.27079 22.5425 3.6432 22.9844V5.5577C3.6432 4.47576 4.52339 3.59562 5.60527 3.59562ZM5.85902 28.3568C4.6372 28.3568 3.6432 27.3627 3.6432 26.141C3.6432 24.9191 4.6372 23.9251 5.85902 23.9251H15.8307C15.899 24.4106 16.0164 24.8804 16.1778 25.3295H6.16402V26.9727H17.0246C17.3811 27.4873 17.8035 27.9527 18.2797 28.3569H5.85902V28.3568ZM22.8803 28.4044C19.8605 28.4044 17.4038 25.9476 17.4038 22.9279C17.4038 19.9081 19.8605 17.4514 22.8803 17.4514C25.9001 17.4514 28.3568 19.9081 28.3568 22.9279C28.3568 25.9476 25.9 28.4044 22.8803 28.4044Z" fill="#D26132"/>
<path d="M12.9811 6.79065H18.4805V8.43384H12.9811V6.79065Z" fill="#D26132"/>
<path d="M11.1234 10.358H20.3381V12.0012H11.1234V10.358Z" fill="#D26132"/>
</svg>
