<?xml version="1.0" standalone="no"?>
<!DOCTYPE svg PUBLIC "-//W3C//DTD SVG 1.1//EN" "http://www.w3.org/Graphics/SVG/1.1/DTD/svg11.dtd" >
<svg xmlns="http://www.w3.org/2000/svg" xmlns:xlink="http://www.w3.org/1999/xlink" version="1.1">
<metadata>
Created by FontForge 20160405 at Mon Apr 24 01:23:20 2017
 By www-data
Copyright (c) 2008 by Prinya R. nont. All rights reserved.
</metadata>
<defs>
<font id="DBHelvethaicaX-ThinExt" horiz-adv-x="0" >
  <font-face 
    font-family="DB Helvethaica X Thin Ext"
    font-weight="100"
    font-stretch="expanded"
    units-per-em="4096"
    panose-1="2 0 5 6 9 0 0 2 0 4"
    ascent="3276"
    descent="-820"
    x-height="1384"
    cap-height="1888"
    bbox="-2016 -1159 3418 3055"
    underline-thickness="82"
    underline-position="-627"
    unicode-range="U+0020-F882"
  />
<missing-glyph horiz-adv-x="1704" 
d="M1733 1638v-57h24q29 0 29 37q0 4 -6 12t-23 8h-24zM1745 1577h-12v-57h-21v139h45q49 0 49 -41q0 -29 -12 -35t-29 -6l41 -57h-20zM1757 1499q53 0 71.5 28.5t18.5 53.5q0 45 -22.5 71.5t-67.5 26.5t-69.5 -26.5t-24.5 -71.5q0 -33 22.5 -57.5t71.5 -24.5zM1757 1692
q53 0 78 -33t25 -78q0 -33 -25 -63.5t-78 -30.5q-49 0 -77.5 30.5t-28.5 63.5q0 45 28.5 78t77.5 33zM827 1294q66 -4 154 -16t176 -28.5t162 -39t111 -51.5q-82 164 -254 252t-353 88q-139 0 -266 -53t-209 -164q74 8 147.5 12t147.5 4h92t92 -4zM1540 1618v-582
q-197 62 -450.5 105t-532.5 43q-197 0 -385 -25q25 90 78 174t135 147.5t190.5 100.5t239.5 37q127 0 229.5 -28.5t180.5 -69.5t129 -90.5t76 -86.5q0 -4 -2.5 27t-2.5 76v94v78h115zM631 520q0 33 -22.5 49.5t-47.5 16.5q-29 0 -49 -16.5t-20 -49.5t20 -47t49 -14
q25 0 47.5 14t22.5 47zM135 569q0 95 37 168.5t98.5 122.5t139 73.5t159.5 24.5t158 -22.5t135.5 -67.5t94 -114.5t34.5 -167.5v-475h434v827h115v-934h-774v107h119v487q0 123 -90 184.5t-222 61.5q-122 0 -220.5 -67.5t-98.5 -190.5v-439l238 238q-21 8 -53.5 41t-32.5 94
q0 74 45 117t118 43q70 0 113 -47t43 -113q0 -57 -22.5 -88t-38.5 -47q-9 -8 -70.5 -67.5t-134.5 -129.5q-86 -82 -193 -184h-131v565z" />
    <glyph glyph-name="plusminus" unicode="&#x2b;&#x2d;" horiz-adv-x="1470" 
d="M676 1286h118v-402h557v-113h-557v-402h-118v402h-557v113h557v402zM119 167h1232v-113h-1232v113z" />
    <glyph glyph-name="ellipsis" unicode="&#x2e;&#x2e;&#x2e;" horiz-adv-x="2527" 
d="M283 183h200v-183h-200v183zM2044 183h200v-183h-200v183zM1168 183h200v-183h-200v183z" />
    <glyph glyph-name="lessequal" unicode="&#x3c;&#x3d;" horiz-adv-x="1442" 
d="M115 1102l1240 580v-125l-1103 -513l1103 -508v-125l-1240 576v115zM1339 41h-1240v114h1240v-114z" />
    <glyph glyph-name="greaterequal" unicode="&#x3e;&#x3d;" horiz-adv-x="1475" 
d="M1360 987l-1240 -576v125l1103 508l-1103 513v125l1240 -580v-115zM136 155h1240v-114h-1240v114z" />
    <glyph glyph-name="fongmanfunnuthai" unicode="&#xe4f;&#x22;" horiz-adv-x="1966" 
d="M1105 2318h157l-26 -467h-100zM712 2318h153l-27 -467h-99zM476 795q0 67 18.5 130.5t52.5 119.5t81 102.5t103.5 80t121.5 52t134 18.5q102 0 193.5 -41t160.5 -110t109 -160t40 -192q0 -106 -40 -198.5t-109 -161.5t-160.5 -108.5t-193.5 -39.5q-104 0 -197 39.5
t-162.5 108.5t-110.5 161.5t-41 198.5zM598 795q0 -79 30.5 -149.5t83.5 -123t124 -83t151 -30.5q79 0 148.5 30.5t121.5 83t82 123t30 149.5q0 77 -30 146.5t-82 121.5t-121.5 82.5t-148.5 30.5q-80 0 -151 -30.5t-124 -82.5t-83.5 -121.5t-30.5 -146.5zM173 795
q0 112 29 216t82 194.5t127.5 165t165 127.5t194.5 82t216 29t216 -29t194.5 -82t165 -127.5t128 -165t82.5 -194.5t29 -216t-29 -216.5t-82.5 -195t-128 -165t-165 -127.5t-194.5 -82t-216 -29t-216 29t-194.5 82t-165 127.5t-127.5 165t-82 194.5t-29 217zM290 795
q0 -97 25 -186t70 -166.5t108.5 -141t141 -108.5t166.5 -70t186 -25q96 0 185.5 25t167 70t141 108.5t108.5 141t70 166.5t25 186t-25 186t-70 166t-108.5 140.5t-141 109t-167 70t-185.5 24.5q-97 0 -186 -24.5t-166.5 -70t-141 -109t-108.5 -140.5t-70 -166.5t-25 -185.5z
" />
    <glyph glyph-name="dochadaphinthuthai" unicode="&#xe0e;&#xe3a;" horiz-adv-x="1974" 
d="M1761 -475h-100q-121 87 -248 127.5t-254 40.5q-146 0 -289 -51t-276 -142v130q134 88 277 130t288 42q125 0 250.5 -34t237.5 -100v1336q0 130 -48.5 225t-131.5 157t-193.5 92t-233.5 30q-85 0 -179 -15.5t-182.5 -52t-164 -97.5t-124.5 -151q24 -24 47.5 -61t42 -83
t29.5 -100t11 -112v-836h-397v114h283v722q0 60 -13 112t-34.5 95t-49 77t-55.5 59q55 114 137.5 197t184 136.5t219.5 79.5t245 26q88 0 176 -14.5t168 -45t149 -79t119.5 -116.5t79.5 -157.5t29 -201.5v-1479zM1594 -743q0 21 8 40t22 33.5t33.5 23.5t42.5 9q19 0 37 -9
t32.5 -23.5t23 -33.5t8.5 -40t-8.5 -40t-23 -33.5t-32.5 -23.5t-37 -9q-23 0 -42.5 9t-33.5 23.5t-22 33.5t-8 40z" />
    <glyph glyph-name="topatakphintuthai" unicode="&#xe0f;&#xe3a;" horiz-adv-x="1974" 
d="M1647 1004q0 130 -48.5 225t-131.5 157t-193.5 92t-233.5 30q-85 0 -179 -15.5t-182.5 -52t-164 -97.5t-124.5 -151q24 -24 47.5 -61t42 -83t29.5 -100t11 -112v-836h-397v114h283v722q0 60 -13 112t-34.5 95t-49 77t-55.5 59q55 114 137.5 197t184 136.5t219.5 79.5
t245 26q88 0 176 -14.5t168 -45t149 -79t119.5 -116.5t79.5 -157.5t29 -201.5v-1479h-105q-24 43 -60 76.5t-78 56.5t-89 35t-94 12q-41 0 -84 -11.5t-83 -34t-74.5 -56t-57.5 -78.5h-95q-43 90 -114 135t-155 45q-87 0 -156 -45t-106 -135h-112q18 62 55.5 114.5t88 90.5
t109.5 59.5t121 21.5q92 0 175.5 -36.5t145.5 -121.5q39 47 82.5 77.5t88.5 48.5t89 25t82 7q80 0 161.5 -25t150.5 -81v1299zM1594 -743q0 21 8 40t22 33.5t33.5 23.5t42.5 9q19 0 37 -9t32.5 -23.5t23 -33.5t8.5 -40t-8.5 -40t-23 -33.5t-32.5 -23.5t-37 -9q-23 0 -42.5 9
t-33.5 23.5t-22 33.5t-8 40z" />
    <glyph glyph-name="dochadasarauthai" unicode="&#xe0e;&#xe38;" horiz-adv-x="1974" 
d="M1761 -475h-100q-121 87 -248 127.5t-254 40.5q-146 0 -289 -51t-276 -142v130q134 88 277 130t288 42q125 0 250.5 -34t237.5 -100v1336q0 130 -48.5 225t-131.5 157t-193.5 92t-233.5 30q-85 0 -179 -15.5t-182.5 -52t-164 -97.5t-124.5 -151q24 -24 47.5 -61t42 -83
t29.5 -100t11 -112v-836h-397v114h283v722q0 60 -13 112t-34.5 95t-49 77t-55.5 59q55 114 137.5 197t184 136.5t219.5 79.5t245 26q88 0 176 -14.5t168 -45t149 -79t119.5 -116.5t79.5 -157.5t29 -201.5v-1479zM1647 -1159v368h-225v110h339v-478h-114z" />
    <glyph glyph-name="topataksarauthai" unicode="&#xe0f;&#xe38;" horiz-adv-x="1974" 
d="M1647 1004q0 130 -48.5 225t-131.5 157t-193.5 92t-233.5 30q-85 0 -179 -15.5t-182.5 -52t-164 -97.5t-124.5 -151q24 -24 47.5 -61t42 -83t29.5 -100t11 -112v-836h-397v114h283v722q0 60 -13 112t-34.5 95t-49 77t-55.5 59q55 114 137.5 197t184 136.5t219.5 79.5
t245 26q88 0 176 -14.5t168 -45t149 -79t119.5 -116.5t79.5 -157.5t29 -201.5v-1479h-105q-24 43 -60 76.5t-78 56.5t-89 35t-94 12q-41 0 -84 -11.5t-83 -34t-74.5 -56t-57.5 -78.5h-95q-43 90 -114 135t-155 45q-87 0 -156 -45t-106 -135h-112q18 62 55.5 114.5t88 90.5
t109.5 59.5t121 21.5q92 0 175.5 -36.5t145.5 -121.5q39 47 82.5 77.5t88.5 48.5t89 25t82 7q80 0 161.5 -25t150.5 -81v1299zM1647 -1159v368h-225v110h339v-478h-114z" />
    <glyph glyph-name="dochadasarauuthai" unicode="&#xe0e;&#xe39;" horiz-adv-x="1974" 
d="M1761 -475h-100q-121 87 -248 127.5t-254 40.5q-146 0 -289 -51t-276 -142v130q134 88 277 130t288 42q125 0 250.5 -34t237.5 -100v1336q0 130 -48.5 225t-131.5 157t-193.5 92t-233.5 30q-85 0 -179 -15.5t-182.5 -52t-164 -97.5t-124.5 -151q24 -24 47.5 -61t42 -83
t29.5 -100t11 -112v-836h-397v114h283v722q0 60 -13 112t-34.5 95t-49 77t-55.5 59q55 114 137.5 197t184 136.5t219.5 79.5t245 26q88 0 176 -14.5t168 -45t149 -79t119.5 -116.5t79.5 -157.5t29 -201.5v-1479zM864 -676h286v-158q0 -54 21 -95t55.5 -68.5t78.5 -42
t91 -14.5q54 0 100 13.5t79.5 41t52.5 69t19 96.5v158h114v-158q0 -62 -21 -120t-65.5 -103t-113.5 -72t-165 -27q-80 0 -146 24t-113.5 67t-74 102t-26.5 129v56h-172v102z" />
    <glyph glyph-name="topataksarauuthai" unicode="&#xe0f;&#xe39;" horiz-adv-x="1974" 
d="M1647 1004q0 130 -48.5 225t-131.5 157t-193.5 92t-233.5 30q-85 0 -179 -15.5t-182.5 -52t-164 -97.5t-124.5 -151q24 -24 47.5 -61t42 -83t29.5 -100t11 -112v-836h-397v114h283v722q0 60 -13 112t-34.5 95t-49 77t-55.5 59q55 114 137.5 197t184 136.5t219.5 79.5
t245 26q88 0 176 -14.5t168 -45t149 -79t119.5 -116.5t79.5 -157.5t29 -201.5v-1479h-105q-24 43 -60 76.5t-78 56.5t-89 35t-94 12q-41 0 -84 -11.5t-83 -34t-74.5 -56t-57.5 -78.5h-95q-43 90 -114 135t-155 45q-87 0 -156 -45t-106 -135h-112q18 62 55.5 114.5t88 90.5
t109.5 59.5t121 21.5q92 0 175.5 -36.5t145.5 -121.5q39 47 82.5 77.5t88.5 48.5t89 25t82 7q80 0 161.5 -25t150.5 -81v1299zM864 -676h286v-158q0 -54 21 -95t55.5 -68.5t78.5 -42t91 -14.5q54 0 100 13.5t79.5 41t52.5 69t19 96.5v158h114v-158q0 -62 -21 -120
t-65.5 -103t-113.5 -72t-165 -27q-80 0 -146 24t-113.5 67t-74 102t-26.5 129v56h-172v102z" />
    <glyph glyph-name=".notdef" horiz-adv-x="1704" 
d="M1733 1638v-57h24q29 0 29 37q0 4 -6 12t-23 8h-24zM1745 1577h-12v-57h-21v139h45q49 0 49 -41q0 -29 -12 -35t-29 -6l41 -57h-20zM1757 1499q53 0 71.5 28.5t18.5 53.5q0 45 -22.5 71.5t-67.5 26.5t-69.5 -26.5t-24.5 -71.5q0 -33 22.5 -57.5t71.5 -24.5zM1757 1692
q53 0 78 -33t25 -78q0 -33 -25 -63.5t-78 -30.5q-49 0 -77.5 30.5t-28.5 63.5q0 45 28.5 78t77.5 33zM827 1294q66 -4 154 -16t176 -28.5t162 -39t111 -51.5q-82 164 -254 252t-353 88q-139 0 -266 -53t-209 -164q74 8 147.5 12t147.5 4h92t92 -4zM1540 1618v-582
q-197 62 -450.5 105t-532.5 43q-197 0 -385 -25q25 90 78 174t135 147.5t190.5 100.5t239.5 37q127 0 229.5 -28.5t180.5 -69.5t129 -90.5t76 -86.5q0 -4 -2.5 27t-2.5 76v94v78h115zM631 520q0 33 -22.5 49.5t-47.5 16.5q-29 0 -49 -16.5t-20 -49.5t20 -47t49 -14
q25 0 47.5 14t22.5 47zM135 569q0 95 37 168.5t98.5 122.5t139 73.5t159.5 24.5t158 -22.5t135.5 -67.5t94 -114.5t34.5 -167.5v-475h434v827h115v-934h-774v107h119v487q0 123 -90 184.5t-222 61.5q-122 0 -220.5 -67.5t-98.5 -190.5v-439l238 238q-21 8 -53.5 41t-32.5 94
q0 74 45 117t118 43q70 0 113 -47t43 -113q0 -57 -22.5 -88t-38.5 -47q-9 -8 -70.5 -67.5t-134.5 -129.5q-86 -82 -193 -184h-131v565z" />
    <glyph glyph-name=".null" 
 />
    <glyph glyph-name="nonmarkingreturn" horiz-adv-x="1159" 
 />
    <glyph glyph-name="space" unicode=" " horiz-adv-x="778" 
 />
    <glyph glyph-name="exclam" unicode="!" horiz-adv-x="766" 
d="M299 151h167v-151h-167v151zM316 1089v799h138v-804l-34 -687h-74z" />
    <glyph glyph-name="quotedbl" unicode="&#x22;" horiz-adv-x="1159" 
d="M721 1888h122v-671h-122v671zM316 1888h122v-671h-122v671z" />
    <glyph glyph-name="numbersign" unicode="#" horiz-adv-x="1651" 
d="M1021 1123h-328q-16 -107 -30 -207t-30 -208h328zM574 1123h-304l6 114h312l92 651h123l-96 -651h328l92 651h123l-92 -651h293l-7 -114h-300l-60 -415h293l-6 -110h-301l-86 -598h-123l87 598h-329l-86 -598h-123l87 598h-297l6 110h307z" />
    <glyph glyph-name="dollar" unicode="$" horiz-adv-x="1651" 
d="M771 2114h121v-199q105 -6 205.5 -34t185.5 -83t148 -139t93 -204h-122q-18 63 -56 122.5t-99.5 106.5t-149.5 79t-205 40v-782q39 -10 90 -18.5t108 -20t117 -27t117 -39t107.5 -57.5t88 -81.5t59.5 -111t22 -146.5q0 -101 -29.5 -180.5t-80 -140t-119.5 -103
t-147.5 -70t-163.5 -41t-169 -14.5v-254h-121v259q-122 8 -236.5 40t-207 95.5t-155 162.5t-80.5 242h123q15 -112 68 -190t130 -129t170 -77.5t188 -35.5v837q-121 21 -232.5 55.5t-197.5 89.5t-137.5 135t-51.5 194q0 112 39.5 205t117.5 161t193.5 108t268.5 46v199z
M1479 517q0 82 -32 141.5t-102.5 104t-182 77t-270.5 59.5v-816q126 2 233.5 30.5t186 83t123 134.5t44.5 186zM274 1395q0 -58 21.5 -104t58.5 -82t86.5 -63.5t104.5 -48t113 -34.5t113 -24v764q-96 -6 -186 -30.5t-159 -73t-110.5 -123.5t-41.5 -181z" />
    <glyph glyph-name="percent" unicode="%" horiz-adv-x="2527" 
d="M1721 1887h136l-1034 -1887h-136zM181 1415q0 104 26 190.5t79 149t133.5 97.5t190.5 35q113 0 195 -35t135 -97.5t78.5 -149t25.5 -190.5q0 -102 -25.5 -188t-78.5 -148.5t-135 -97t-195 -34.5q-110 0 -190.5 34.5t-133.5 97t-79 148.5t-26 188zM1483 440q0 104 26 191
t79 149.5t134 97.5t191 35q113 0 195 -35t135 -97.5t78.5 -149.5t25.5 -191q0 -102 -25.5 -188t-78.5 -148t-135 -97t-195 -35q-110 0 -191 35t-134 97t-79 148t-26 188zM926 1415q0 96 -23 165t-64.5 113.5t-99.5 66t-129 21.5q-68 0 -125 -21.5t-98 -66t-64.5 -113.5
t-23.5 -165q0 -97 24.5 -166t66.5 -112.5t98.5 -63.5t121.5 -20q69 0 127 20t100 63.5t65.5 112.5t23.5 166zM2229 440q0 96 -23 165t-64.5 114t-99.5 66t-129 21q-68 0 -125 -21t-98.5 -66t-65 -114t-23.5 -165q0 -97 24.5 -165.5t66.5 -112t99 -63.5t122 -20q69 0 127 20
t100 63.5t65.5 112t23.5 165.5z" />
    <glyph glyph-name="ampersand" unicode="&#x26;" horiz-adv-x="2040" 
d="M1768 789q3 -128 -32.5 -240.5t-103.5 -209.5q40 -39 84 -82.5t89 -87.5t89 -87t83 -82h-158l-257 251q-63 -66 -140 -119.5t-163 -92t-178.5 -59t-187.5 -20.5q-129 0 -229 22.5t-175 61t-126.5 90t-84 109.5t-46.5 120t-14 121q0 78 22 159t79.5 158t157.5 146t256 123
q-81 81 -127 145.5t-68.5 117t-28 94.5t-5.5 77q0 85 27.5 156t80.5 121t130 78t176 28q95 0 173 -28t134 -77.5t87 -116t31 -142.5q0 -62 -19 -124t-67 -123.5t-129 -121.5t-205 -118l626 -613q52 78 80 169.5t25 196.5h114zM814 988q-138 -47 -229.5 -105.5t-146 -123.5
t-77 -135t-22.5 -140q0 -72 30 -144.5t96 -131.5t171.5 -96t256.5 -37q86 0 168.5 18.5t157.5 52t141 81t120 105.5zM626 1504q0 -50 11 -92t37 -84.5t69 -91.5t106 -114q97 43 167.5 91t116 99t67 104t21.5 107q0 55 -24 102t-65.5 81.5t-96.5 54.5t-117 20
q-81 0 -136.5 -23t-90 -61t-50 -88.5t-15.5 -104.5z" />
    <glyph glyph-name="quotesingle" unicode="'" horiz-adv-x="766" 
d="M324 1888h122v-671h-122v671z" />
    <glyph glyph-name="parenleft" unicode="(" horiz-adv-x="963" 
d="M275 692q0 178 28.5 337.5t81 307.5t126 288t162.5 280h144q-72 -117 -145 -245.5t-132.5 -276.5t-97 -319t-37.5 -372t37.5 -372t97 -319t132.5 -276.5t145 -244.5h-144q-89 139 -162.5 279t-126 288t-81 307t-28.5 338z" />
    <glyph glyph-name="parenright" unicode=")" horiz-adv-x="963" 
d="M688 692q0 -179 -28.5 -338t-81 -307t-126 -288t-162.5 -279h-144q72 116 145 244.5t132.5 276.5t97 319t37.5 372t-37.5 372t-97 319t-132.5 276.5t-145 245.5h144q89 -140 162.5 -280t126 -288t81 -307.5t28.5 -337.5z" />
    <glyph glyph-name="asterisk" unicode="*" horiz-adv-x="1110" 
d="M111 1543l51 101l334 -128v343h114v-344q85 32 173 65t171 64l43 -106l-362 -132q64 -63 133.5 -131.5t132.5 -129.5l-78 -71l-269 268q-63 -66 -131.5 -137t-130.5 -136l-78 77l250 260z" />
    <glyph glyph-name="plus" unicode="+" horiz-adv-x="1470" 
d="M676 1355h118v-561h557v-114h-557v-557h-118v557h-557v114h557v561z" />
    <glyph glyph-name="comma" unicode="," horiz-adv-x="766" 
d="M509 248v-220q0 -155 -61 -253t-179 -143v128q63 31 91 92.5t32 147.5h-123v248h240z" />
    <glyph glyph-name="hyphen" unicode="-" horiz-adv-x="1307" 
d="M119 794h1068v-114h-1068v114z" />
    <glyph glyph-name="period" unicode="." horiz-adv-x="766" 
d="M267 0v237h224v-237h-224z" />
    <glyph glyph-name="slash" unicode="/" horiz-adv-x="1081" 
d="M892 1953h137l-844 -2018h-133z" />
    <glyph glyph-name="zero" unicode="0" horiz-adv-x="1786" 
d="M197 918q0 132 15 254.5t49 229.5t87.5 194.5t130.5 150.5t178.5 97.5t231.5 34.5q131 0 233.5 -34.5t180.5 -97.5t132.5 -150.5t88.5 -194.5t49.5 -229.5t15.5 -254.5q0 -133 -15.5 -256t-49.5 -230t-88.5 -195t-132.5 -150.5t-180.5 -96.5t-233.5 -34q-130 0 -231.5 34
t-178.5 96.5t-130.5 150.5t-87.5 195t-49 230t-15 256zM1467 918q0 50 -3 113t-13 132t-28 141t-47.5 139t-72 126t-102 103.5t-136.5 70t-176 25.5q-98 0 -174.5 -25.5t-135 -70t-100.5 -103.5t-71 -126t-46.5 -139t-27 -141t-12.5 -132t-3 -113q0 -67 6 -156t25.5 -183.5
t57 -186t101 -164t156.5 -117t224 -44.5q99 0 176 25.5t136.5 70t102 103.5t72 126.5t47.5 139t28 141t13 132.5t3 113z" />
    <glyph glyph-name="one" unicode="1" horiz-adv-x="1786" 
d="M938 1594q-50 -37 -105.5 -62t-120 -40t-141 -21.5t-169.5 -6.5v103q155 0 254 22t160 61t92.5 91.5t51.5 113.5h100v-1855h-122v1594z" />
    <glyph glyph-name="two" unicode="2" horiz-adv-x="1786" 
d="M248 1320q12 126 58 228.5t128 175.5t200.5 112.5t274.5 39.5q159 0 275.5 -43.5t192.5 -118.5t113 -176.5t37 -218.5q0 -95 -24 -173.5t-66 -143.5t-99 -119t-123 -100t-138.5 -86t-145.5 -78q-88 -46 -176 -95.5t-164 -109.5t-133.5 -132.5t-84.5 -165.5h1154v-116
h-1295q7 94 37 172.5t76 145.5t106 123t127 104t138.5 89t141.5 79q103 55 201 112.5t175 128.5t124 159.5t47 205.5q0 125 -41.5 211t-110.5 139t-158.5 76t-185.5 23q-255 0 -387 -114t-160 -334h-114z" />
    <glyph glyph-name="three" unicode="3" horiz-adv-x="1786" 
d="M811 1026h98q106 0 189.5 26t141.5 75.5t89 120t31 159.5q0 104 -45 174.5t-115.5 113t-156 61t-166.5 18.5q-93 0 -176 -24.5t-149 -73t-112.5 -121t-66.5 -168.5h-119q25 124 81 216.5t137 154t184 91.5t221 30q157 0 271 -39t188.5 -104.5t110 -150t35.5 -175.5
q0 -51 -12 -111.5t-42 -119.5t-81 -111.5t-130 -87.5q88 -31 153.5 -81t108.5 -113t64 -136t21 -149q0 -113 -38.5 -212t-118.5 -173t-203 -117t-291 -43q-36 0 -97.5 2.5t-134.5 16.5t-149.5 44.5t-143 87t-114.5 143.5t-64 214h118q18 -122 71.5 -200t132 -123
t176.5 -62.5t205 -17.5q120 0 217.5 29.5t167 85.5t107 138t37.5 187q0 106 -39 185.5t-109 131.5t-168.5 78t-216.5 26h-98v104z" />
    <glyph glyph-name="four" unicode="4" horiz-adv-x="1786" 
d="M1213 489h-1020v111l1026 1255h116v-1259h327v-107h-327v-489h-122v489zM1213 596v1068q-218 -267 -433 -533t-435 -535h868z" />
    <glyph glyph-name="five" unicode="5" horiz-adv-x="1786" 
d="M425 1855h996v-111h-896q-14 -89 -26 -171t-24 -162t-24.5 -162t-26.5 -172q107 63 225 94t236 31q133 0 255 -39.5t215.5 -117.5t149 -194.5t55.5 -270.5q0 -140 -48 -254t-138 -196t-218 -126.5t-288 -44.5q-133 0 -239 28t-187 81t-137.5 129t-90.5 171h124
q34 -81 88 -138t123 -92t150.5 -51t168.5 -16q64 0 131.5 10.5t131 34t119.5 62t97.5 95t66 132.5t24.5 175q0 128 -48 223t-127 158t-181 94t-210 31q-66 0 -132 -11.5t-129.5 -34t-122 -56.5t-107.5 -79l-101 11z" />
    <glyph glyph-name="six" unicode="6" horiz-adv-x="1786" 
d="M1467 565q0 106 -30 198t-93.5 160.5t-163 108t-238.5 39.5q-92 0 -170.5 -19.5t-142 -54t-112.5 -80.5t-82 -99t-50 -110.5t-17 -114.5q0 -103 37.5 -198t109.5 -168t176.5 -116.5t238.5 -43.5q123 0 222.5 38t169 105t107.5 158t38 197zM1383 1532q-23 58 -66 102
t-97.5 74t-116.5 45t-124 15q-91 0 -173.5 -16t-154 -55.5t-130 -105.5t-100 -165.5t-64 -236t-22.5 -316.5v-12q52 90 124.5 151.5t154 99t166.5 53.5t162 16q72 0 148 -13t148 -42.5t135.5 -76.5t111.5 -115.5t76 -159t28 -206.5q0 -66 -16 -137t-50 -139t-86.5 -129
t-125.5 -107t-168 -73t-213 -27q-235 0 -393 99.5t-241 292.5q-44 106 -63.5 237.5t-19.5 292.5q0 181 23.5 320.5t64 244t94 177.5t114.5 121.5t126 76t127 41t118 17t99 3.5q68 0 146 -17t152.5 -57t137.5 -107t101 -166h-133z" />
    <glyph glyph-name="seven" unicode="7" horiz-adv-x="1786" 
d="M230 1855h1285v-97q-141 -193 -265 -400.5t-225 -428.5t-178 -453.5t-125 -475.5h-124q50 245 123 471.5t169 441.5t215.5 421t262.5 410h-1138v111z" />
    <glyph glyph-name="eight" unicode="8" horiz-adv-x="1786" 
d="M205 501q0 90 30.5 168t81 141t115.5 109t135 72q-79 36 -132 85.5t-85 105t-45.5 114.5t-13.5 114q0 103 41 189t118.5 148t189 97t253.5 35q139 0 252 -33t192.5 -94.5t122.5 -148t43 -193.5q0 -52 -13 -108.5t-44.5 -111t-85 -105.5t-134.5 -92q75 -24 140 -69.5
t114 -108.5t77 -142.5t28 -171.5q0 -54 -12.5 -115.5t-42.5 -122t-80.5 -116t-127.5 -98t-183 -68t-246 -25.5q-138 0 -243 25.5t-181.5 68t-127 98t-81 116t-43 122t-12.5 115.5zM1381 1410q0 73 -28 138t-87.5 114t-152 77.5t-220.5 28.5q-127 0 -217.5 -28.5t-149 -77.5
t-86 -114t-27.5 -138q0 -77 29.5 -143t89.5 -114.5t151 -76t214 -27.5t214 29.5t151 79t89.5 115t29.5 137.5zM1463 501q0 94 -35.5 174.5t-107 139.5t-178.5 93t-249 34q-132 0 -237 -34t-178 -93t-112 -139.5t-39 -174.5q0 -88 34 -166.5t104 -138t176.5 -94.5t251.5 -35
q148 0 256 34.5t177.5 93.5t103 138t33.5 168z" />
    <glyph glyph-name="nine" unicode="9" horiz-adv-x="1786" 
d="M312 1270q0 -106 30 -198t93.5 -160.5t163 -108t238.5 -39.5q92 0 170.5 19.5t142 54t112.5 80.5t82 99t50 110.5t17 114.5q0 103 -38 198t-110 168t-176.5 116.5t-237.5 43.5q-123 0 -222.5 -38t-169 -105t-107.5 -158t-38 -197zM396 303q23 -58 66 -102t97.5 -74
t116.5 -45t124 -15q90 0 173 16t154.5 55.5t130 105.5t100 165.5t64 235.5t22.5 317v12q-52 -90 -124.5 -151.5t-154 -99t-166.5 -53.5t-162 -16q-72 0 -148 13t-148 42.5t-135.5 76.5t-111.5 115.5t-76 159t-28 206.5q0 66 16 137t50 139t86.5 129t125.5 107t168 73t213 27
q235 0 393 -99.5t241 -292.5q44 -106 63.5 -237.5t19.5 -292.5q0 -182 -23.5 -321t-64 -243.5t-94 -177.5t-114.5 -121.5t-126 -76t-127 -41t-118 -17t-99 -3.5q-68 0 -146 17t-152.5 57t-137.5 107t-101 166h133z" />
    <glyph glyph-name="colon" unicode=":" horiz-adv-x="766" 
d="M276 1143v237h224v-237h-224zM267 0v237h224v-237h-224z" />
    <glyph glyph-name="semicolon" unicode=";" horiz-adv-x="766" 
d="M277 1143v237h224v-237h-224zM509 248v-220q0 -155 -61 -253t-179 -143v128q63 31 91 92.5t32 147.5h-123v248h240z" />
    <glyph glyph-name="less" unicode="&#x3c;" horiz-adv-x="1470" 
d="M115 725l1240 580v-129l-1107 -508l1107 -508v-125l-1240 576v114z" />
    <glyph glyph-name="equal" unicode="=" horiz-adv-x="1569" 
d="M168 1052h1232v-118h-1232v118zM168 540h1232v-114h-1232v114z" />
    <glyph glyph-name="greater" unicode="&#x3e;" horiz-adv-x="1470" 
d="M1355 611l-1240 -576v125l1107 508l-1107 508v129l1240 -580v-114z" />
    <glyph glyph-name="question" unicode="?" horiz-adv-x="1651" 
d="M205 1412q17 105 54 184.5t88 137t112.5 96t127.5 61t132.5 32t128.5 9.5q119 0 226 -33.5t187.5 -100.5t128 -167.5t47.5 -234.5q0 -89 -29.5 -160t-76.5 -130t-107 -108.5t-120 -96.5q-51 -39 -98 -77.5t-83 -80t-58 -88t-22 -101.5v-228h-122v228q0 71 26 130
t68.5 110.5t96 96.5t108.5 88q53 41 106 85.5t95 95t68 109t26 127.5q0 102 -36 181.5t-99 133.5t-148 82.5t-184 28.5q-104 0 -191.5 -24.5t-154 -75t-111.5 -128t-63 -182.5h-123zM693 163h175v-163h-175v163z" />
    <glyph glyph-name="at" unicode="@" horiz-adv-x="1999" 
d="M1419 1415h114q-52 -180 -88 -308t-61 -216t-39.5 -142t-22 -86t-9.5 -48.5t-2 -28.5q0 -21 5 -38.5t17 -30.5t32.5 -20.5t51.5 -7.5q51 0 99 25t91 68.5t79 103t62 129t40.5 145.5t14.5 154q0 97 -27.5 185t-77.5 163t-119.5 136.5t-154.5 104.5t-182 66.5t-202 23.5
q-119 0 -227.5 -31t-202 -87t-169 -134t-129.5 -171t-83 -199t-29 -217q0 -122 29.5 -233t84 -206.5t131.5 -173t172.5 -132t206.5 -84.5t233 -30q82 0 164.5 14.5t160 45.5t147.5 77.5t129 111.5h144q-139 -177 -326.5 -268t-418.5 -91q-138 0 -264 33.5t-234 95
t-196.5 148.5t-150.5 194t-96 232t-34 262q0 134 34.5 257t97 229t150 192t194 147.5t228.5 95t254 33.5q118 0 229.5 -26t209.5 -75.5t179.5 -119.5t139.5 -157.5t90.5 -191.5t32.5 -220q0 -119 -23 -219.5t-62.5 -181.5t-91 -142.5t-108 -102.5t-115.5 -62t-112 -21
q-92 0 -144 40.5t-60 118.5q-52 -51 -100 -81t-91.5 -45.5t-83 -20t-74.5 -4.5q-86 0 -154 33t-114.5 88.5t-71 128t-24.5 151.5q0 83 17.5 165.5t51 156.5t81.5 137.5t109 110t133.5 73t155.5 26.5q37 0 83.5 -9.5t92.5 -32t88 -60t70 -94.5zM1044 1355q-68 0 -127 -23
t-107 -62.5t-85.5 -92t-63 -112t-38.5 -123t-13 -124.5q0 -74 20 -133.5t55 -101t84 -64t108 -22.5q70 0 132 34t113 90t89 128.5t60 149.5q13 45 20 89.5t7 87.5q0 59 -14.5 110t-45.5 88.5t-79 59t-115 21.5z" />
    <glyph glyph-name="A" unicode="A" horiz-adv-x="1876" 
d="M52 0l840 1888h88l844 -1888h-133l-263 594h-983q-63 -146 -130 -297t-130 -297h-133zM489 693h895q-58 131 -113.5 256.5t-111 250t-111.5 250.5t-114 258z" />
    <glyph glyph-name="B" unicode="B" horiz-adv-x="1937" 
d="M230 1888h913q269 0 408.5 -114.5t139.5 -341.5q0 -57 -11 -116.5t-39 -115.5t-75.5 -107.5t-120.5 -93.5q88 -28 150 -76.5t101.5 -112.5t58 -140.5t18.5 -160.5q0 -95 -33 -186.5t-101.5 -163t-173.5 -115.5t-248 -44h-987v1888zM1176 1046q95 0 168 29.5t123 81.5
t76 123.5t26 154.5q0 91 -30.5 156t-86.5 106t-135.5 60.5t-177.5 19.5h-787v-731h824zM1217 112q110 0 192.5 33t137 88t81.5 127t27 149q0 91 -27.5 168.5t-85 134.5t-147.5 89.5t-215 32.5h-828v-822h865z" />
    <glyph glyph-name="C" unicode="C" horiz-adv-x="2032" 
d="M1757 1315q-25 117 -80 212t-143 162t-211 103.5t-283 36.5q-175 0 -320.5 -62.5t-250 -177t-162.5 -277t-58 -362.5q0 -184 50 -345.5t148.5 -281.5t245 -189.5t339.5 -69.5q123 0 235.5 32t207.5 99.5t168 171t116 246.5h122q-36 -134 -107 -255t-177.5 -212
t-247.5 -144.5t-317 -53.5q-108 0 -217 23t-209.5 72.5t-188 128t-152 190t-101.5 257.5t-37 331q0 138 27 265t80 237t131 200.5t179.5 154.5t225.5 99t270 35q91 0 182 -12t176 -40t161.5 -74.5t139.5 -116t109.5 -164.5t71.5 -219h-123z" />
    <glyph glyph-name="D" unicode="D" horiz-adv-x="1966" 
d="M230 1888h864q192 0 332.5 -66.5t232 -187.5t136 -290t44.5 -374q0 -130 -18 -252t-55.5 -230t-96 -197.5t-140 -154t-187 -100.5t-236.5 -36h-876v1888zM1106 116q117 0 208 35t158.5 96t114.5 143.5t75.5 177.5t41.5 197.5t13 204.5q0 96 -13 193t-42 186.5
t-76.5 167.5t-116.5 136t-162 91t-213 33h-742v-1661h754z" />
    <glyph glyph-name="E" unicode="E" horiz-adv-x="1745" 
d="M230 1888h1346v-116h-1224v-742h1184v-111h-1184v-803h1245v-116h-1367v1888z" />
    <glyph glyph-name="F" unicode="F" horiz-adv-x="1602" 
d="M230 1888h1289v-116h-1167v-742h1110v-111h-1110v-919h-122v1888z" />
    <glyph glyph-name="G" unicode="G" horiz-adv-x="2171" 
d="M1250 950h707v-950h-96l-23 408q-60 -99 -135.5 -183t-170.5 -145.5t-211.5 -96.5t-259.5 -35q-172 0 -305.5 42.5t-233.5 115t-169 168.5t-112 203t-62 218.5t-19 214.5q0 182 36 329t99.5 261.5t150 197.5t186.5 137t209.5 80t219.5 26q79 0 161.5 -10.5t163 -34.5
t157 -64t143 -98.5t121.5 -138t94 -183.5h-129q-43 105 -112.5 183t-160.5 129t-201.5 76t-236.5 25q-190 0 -335.5 -70t-244 -193t-149 -290t-50.5 -362q0 -141 28.5 -259t80 -212.5t123.5 -165.5t158.5 -118.5t185 -71.5t203.5 -24q158 0 294.5 58t240.5 162t169.5 246.5
t80.5 312.5h-596v112z" />
    <glyph glyph-name="H" unicode="H" horiz-adv-x="2130" 
d="M1778 947h-1426v-947h-122v1888h122v-827h1426v827h122v-1888h-122v947z" />
    <glyph glyph-name="I" unicode="I" horiz-adv-x="639" 
d="M259 1888h121v-1888h-121v1888z" />
    <glyph glyph-name="J" unicode="J" horiz-adv-x="1430" 
d="M195 500q8 -125 43 -207.5t93.5 -132t139 -69.5t180.5 -20q427 0 427 450v1366h122v-1366q0 -159 -42 -267t-116 -174.5t-174.5 -95t-216.5 -28.5q-122 0 -211.5 24t-152.5 64.5t-103 94.5t-63.5 114.5t-34 124t-13.5 122.5h122z" />
    <glyph glyph-name="K" unicode="K" horiz-adv-x="1802" 
d="M356 656v-656h-126v1888h126v-1066l1226 1066h182l-896 -783l957 -1105h-167l-882 1023z" />
    <glyph glyph-name="L" unicode="L" horiz-adv-x="1507" 
d="M230 1888h126v-1772h1130v-116h-1256v1888z" />
    <glyph glyph-name="M" unicode="M" horiz-adv-x="2572" 
d="M2174 1888h168v-1888h-121v1713q-216 -426 -435 -857t-434 -856h-132l-868 1713v-1713h-122v1888h168l892 -1744z" />
    <glyph glyph-name="N" unicode="N" horiz-adv-x="2114" 
d="M352 1743v-1743h-122v1888h153l1379 -1742v1742h122v-1888h-157z" />
    <glyph glyph-name="O" unicode="O" horiz-adv-x="2171" 
d="M123 946q0 121 22.5 242t71.5 231.5t125 205.5t183 165.5t246 110.5t314 40t314 -40t246 -110.5t183.5 -165.5t125 -205.5t71.5 -231.5t23 -242q0 -122 -23 -243t-71.5 -232t-125 -206.5t-183.5 -166t-246 -110.5t-314 -40t-314 40t-246 110.5t-183 166t-125 206.5
t-71.5 232t-22.5 243zM1926 946q0 215 -64.5 379t-177.5 275t-266.5 168t-332.5 57q-181 0 -335 -57t-266 -168t-175.5 -275t-63.5 -379t64.5 -379.5t177 -276.5t266 -169t332.5 -57t332.5 56.5t266.5 168t177.5 276.5t64.5 381z" />
    <glyph glyph-name="P" unicode="P" horiz-adv-x="1778" 
d="M230 1888h880q137 0 240.5 -34t172.5 -98.5t104 -157.5t35 -211q0 -126 -36.5 -231.5t-107 -181t-173.5 -118t-235 -42.5h-754v-814h-126v1888zM1110 929q119 0 201 40t133 105t74 147t23 166q0 99 -30 171.5t-85.5 120t-135.5 70.5t-180 23h-754v-843h754z" />
    <glyph glyph-name="Q" unicode="Q" horiz-adv-x="2171" 
d="M123 945q0 121 22.5 242t71.5 231.5t125 205.5t183 165.5t246 110.5t314 40t314 -40t246 -110.5t183.5 -165.5t125 -205.5t71.5 -231.5t23 -242q0 -106 -19.5 -213.5t-59.5 -209.5t-99.5 -193.5t-138.5 -164.5q54 -43 112 -89.5t110 -88.5l-74 -91l-247 196
q-106 -67 -242 -105t-305 -38q-175 0 -314 40t-246 110.5t-183 166t-125 206t-71.5 231.5t-22.5 243zM1926 945q0 215 -64.5 379.5t-177.5 275.5t-266.5 168t-332.5 57q-181 0 -335 -57t-266 -168t-175.5 -275.5t-63.5 -379.5q0 -143 29 -264t83 -219t129.5 -172.5t169 -125
t202 -76t227.5 -25.5q124 0 237 28t210 82q-62 50 -132 105t-130 103l75 92l289 -231q138 109 215 284.5t77 418.5z" />
    <glyph glyph-name="R" unicode="R" horiz-adv-x="1954" 
d="M230 1888h1048q80 0 145.5 -20t117 -54.5t89 -81t62 -99.5t36.5 -110t12 -112q0 -68 -16.5 -137.5t-56.5 -134t-106 -122.5t-165 -104q83 -44 138 -114.5t88.5 -154t49 -173.5t19.5 -173q3 -71 16.5 -145.5t33.5 -152.5h-122q-8 31 -16 64.5t-14 68t-10.5 68t-5.5 63.5
q-8 119 -35.5 226.5t-79 190t-130 132.5t-189.5 54h-783v-867h-126v1888zM1139 977q125 0 215.5 41.5t149 105.5t86.5 140.5t28 146.5q0 53 -18 116t-58 117.5t-105 91t-159 36.5h-922v-795h783z" />
    <glyph glyph-name="S" unicode="S" horiz-adv-x="1688" 
d="M215 516q11 -85 44.5 -150.5t82.5 -113.5t111.5 -80.5t131.5 -52t142.5 -28t144.5 -8.5q131 0 242 27.5t192 81.5t127 135.5t46 189.5q0 72 -29.5 130.5t-84.5 103.5t-134 75.5t-177 47.5l-406 69q-50 8 -106 24t-111 41t-105.5 60t-89 82.5t-61.5 108t-23 136.5
q0 117 43 213.5t127.5 164.5t209 105.5t287.5 37.5q115 0 227.5 -23t208 -77t166.5 -142t103 -218h-122q-18 67 -60 130t-112.5 112t-172 78t-238.5 29q-104 0 -202 -21t-174.5 -69t-122.5 -126.5t-46 -193.5q0 -59 21 -112t66.5 -96.5t116 -76t169.5 -49.5l451 -79
q35 -6 85.5 -19t106.5 -36.5t111.5 -58t100 -84t72 -114.5t27.5 -149q0 -103 -30.5 -183.5t-83 -141.5t-123 -104t-151.5 -69.5t-168.5 -38.5t-172.5 -12q-90 0 -179.5 11t-171.5 36.5t-154.5 67t-129 102t-94.5 141.5t-51 186h123z" />
    <glyph glyph-name="T" unicode="T" horiz-adv-x="1593" 
d="M734 1777h-705v111h1535v-111h-708v-1777h-122v1777z" />
    <glyph glyph-name="U" unicode="U" horiz-adv-x="1995" 
d="M230 1887h122v-1267q0 -146 43 -250t125.5 -170.5t203 -97.5t275.5 -31q157 0 277 31t201.5 97.5t123.5 170.5t42 250v1267h122v-1267q0 -328 -193.5 -496t-572.5 -168q-391 0 -580 166.5t-189 497.5v1267z" />
    <glyph glyph-name="V" unicode="V" horiz-adv-x="1851" 
d="M1718 1888h129l-853 -1888h-112l-878 1888h130l806 -1740z" />
    <glyph glyph-name="W" unicode="W" horiz-adv-x="2806" 
d="M661 0l-614 1888h128l550 -1692l624 1692h107l628 -1711l547 1711h128l-615 -1888h-114l-625 1670l-625 -1670h-119z" />
    <glyph glyph-name="X" unicode="X" horiz-adv-x="1741" 
d="M1530 1888h153l-745 -934l766 -954h-149l-691 870l-674 -870h-152l748 967l-725 921h154l649 -837z" />
    <glyph glyph-name="Y" unicode="Y" horiz-adv-x="1819" 
d="M1637 1888h148l-815 -1081v-807h-122v807l-814 1081h148l727 -972z" />
    <glyph glyph-name="Z" unicode="Z" horiz-adv-x="1679" 
d="M58 104l1378 1673h-1284v111h1449v-99l-1382 -1673h1403v-116h-1564v104z" />
    <glyph glyph-name="bracketleft" unicode="[" horiz-adv-x="963" 
d="M434 -386h356v-118h-478v2392h478v-118h-356v-2156z" />
    <glyph glyph-name="backslash" unicode="\" horiz-adv-x="998" 
d="M988 -65h-133l-845 2018h138z" />
    <glyph glyph-name="bracketright" unicode="]" horiz-adv-x="963" 
d="M529 1770h-356v118h478v-2392h-478v118h356v2156z" />
    <glyph glyph-name="asciicircum" unicode="^" horiz-adv-x="1479" 
d="M741 1779l-463 -890h-123l533 1023h106l533 -1023h-127z" />
    <glyph glyph-name="underscore" unicode="_" horiz-adv-x="1200" 
d="M-77 -250h1359v-114h-1359v114z" />
    <glyph glyph-name="grave" unicode="`" horiz-adv-x="532" 
d="M225 1956l212 -374l-109 13l-245 374z" />
    <glyph glyph-name="a" unicode="a" horiz-adv-x="1642" 
d="M202 1055q28 91 82 157.5t131.5 110t177 65t218.5 21.5q62 0 126.5 -6t125.5 -21t115 -40t94 -63.5t63.5 -91.5t23.5 -124v-725q0 -54 11 -101.5t36 -81.5t65.5 -51.5t100.5 -11.5v-100q-11 0 -30.5 -1t-29.5 -1q-69 0 -116 20.5t-77.5 56.5t-46.5 84t-22 103
q-70 -89 -148 -142.5t-158 -83t-159 -39t-150 -9.5q-99 0 -174 16t-129 43t-89.5 63.5t-56.5 77t-29.5 83.5t-8.5 83q0 78 32 143.5t100 117.5t174.5 90.5t255.5 61.5l233 36q67 10 123 35t96 60.5t62 79.5t22 93q0 62 -34.5 107.5t-93.5 75.5t-138 45t-169 15
q-74 0 -150.5 -10t-143.5 -38t-118.5 -76.5t-76.5 -126.5h-120zM1246 820q-39 -40 -77.5 -64.5t-78.5 -39t-82 -22.5t-87 -14l-283 -40q-33 -5 -73.5 -14.5t-82 -25.5t-81.5 -39t-70.5 -53.5t-49.5 -69.5t-19 -88q0 -64 26.5 -114t75 -84t117.5 -52t154 -18q78 0 154 17
t143.5 48.5t125 75.5t99.5 97.5t65.5 115.5t23.5 129v255z" />
    <glyph glyph-name="b" unicode="b" horiz-adv-x="1729" 
d="M205 1888h114v-789q45 69 98 118.5t108.5 83.5t111.5 54.5t106.5 32t94 15t75.5 3.5q149 0 272.5 -50t212.5 -144t138 -228.5t49 -302.5q0 -174 -49.5 -307t-139 -223.5t-213 -137t-270.5 -46.5q-65 0 -142.5 12t-156.5 47t-154.5 97t-136.5 163v-286h-118v1888z
M1471 681q0 146 -42 261t-116.5 194.5t-177 121t-222.5 41.5q-132 0 -240.5 -46.5t-186.5 -129t-120.5 -196t-42.5 -246.5q0 -72 18.5 -145t53.5 -140.5t86.5 -126t117 -101.5t144.5 -68t170 -25q142 0 247 48.5t174 131.5t103 193t34 233z" />
    <glyph glyph-name="c" unicode="c" horiz-adv-x="1589" 
d="M1422 401q-44 -120 -106 -202t-139 -133t-168 -73t-194 -22q-118 0 -213.5 28.5t-169.5 78.5t-127.5 118t-88.5 146t-51.5 163.5t-16.5 170.5q0 147 42 279t125 231t207 157t289 58q106 0 201.5 -26.5t175.5 -76.5t141 -121.5t97 -161.5h-124q-32 69 -84 122t-116.5 88.5
t-139 54t-151.5 18.5q-137 0 -239.5 -50t-171.5 -135t-103.5 -198t-34.5 -239q0 -125 37 -234.5t108 -191t173.5 -129t234.5 -47.5q82 0 154.5 17.5t134 56.5t111 101t86.5 152h121z" />
    <glyph glyph-name="d" unicode="d" horiz-adv-x="1729" 
d="M1524 0h-118v286q-61 -101 -136.5 -163t-154.5 -97t-156.5 -47t-142.5 -12q-147 0 -270.5 46.5t-213 137t-139 223.5t-49.5 307q0 168 49 302.5t138 228.5t212.5 144t272.5 50q31 0 75 -3.5t94.5 -15t106.5 -32t111.5 -54.5t108 -83.5t98.5 -118.5v789h114v-1888z
M258 681q0 -123 33.5 -233t102.5 -193t174 -131.5t248 -48.5q91 0 170 25t144.5 68t117 101.5t86.5 126t53.5 140.5t18.5 145q0 133 -42.5 246.5t-120.5 196t-186.5 129t-240.5 46.5q-120 0 -222.5 -41.5t-177 -121t-116.5 -194.5t-42 -261z" />
    <glyph glyph-name="e" unicode="e" horiz-adv-x="1683" 
d="M263 680q2 -106 27.5 -192t68 -153t99.5 -116.5t122.5 -81.5t137 -47.5t142.5 -15.5q61 0 123 10.5t121 36.5t113 70.5t99 113.5h136q-54 -86 -115 -149t-133.5 -104t-157.5 -61t-186 -20q-119 0 -218 27t-178 75.5t-138.5 115.5t-99 146t-59 168t-19.5 181
q0 144 42 274.5t129 228.5t220.5 156t316.5 58q78 0 156.5 -16.5t151.5 -52t137.5 -92.5t114.5 -137t81.5 -185t39.5 -238h-1274zM856 1298q-107 0 -206.5 -27.5t-180 -88.5t-135 -159.5t-70.5 -239.5h1151q-19 127 -69.5 223t-124.5 161t-167 98t-198 33z" />
    <glyph glyph-name="f" unicode="f" horiz-adv-x="774" 
d="M279 1618q0 79 24 133.5t69 87.5t110.5 47.5t148.5 14.5q29 0 65 -4t78 -12v-106q-45 8 -78 12t-65 4q-54 0 -98 -7t-75 -26.5t-48 -54t-17 -89.5v-234h381v-105h-381v-1279h-114v1279h-274v105h274v234z" />
    <glyph glyph-name="g" unicode="g" horiz-adv-x="1729" 
d="M1430 1377h114v-1362q0 -155 -41 -267t-128 -185t-222.5 -107.5t-325.5 -34.5q-59 0 -120.5 3.5t-121 15t-115 32t-103.5 54t-86.5 82t-63.5 116.5h124q31 -71 87.5 -110t125 -58t140.5 -23t133 -4q171 0 286.5 30t186 90.5t100.5 152t30 213.5v294
q-69 -103 -147.5 -166.5t-158 -99t-156.5 -47.5t-145 -12q-84 0 -167 18.5t-158.5 56.5t-140 96t-112 137t-74.5 178.5t-27 221.5t28 222.5t77 179t114.5 136.5t141 96.5t157 57t161.5 18.5q79 0 160 -15t159 -51.5t151 -99t137 -156.5v297zM823 1294q-125 0 -228.5 -44
t-178.5 -123.5t-116.5 -190.5t-41.5 -244q0 -139 42.5 -250.5t118 -189.5t179 -120t225.5 -42q94 0 175.5 23.5t149 65t120 97.5t88.5 122t55 139t19 147q0 77 -20 151.5t-57.5 142.5t-91 126t-121 100t-147.5 66t-170 24z" />
    <glyph glyph-name="h" unicode="h" horiz-adv-x="1638" 
d="M205 1888h114v-751q68 86 148.5 141.5t162.5 87.5t158.5 44.5t137.5 12.5q108 0 201 -28t161 -82.5t106.5 -136t38.5 -187.5v-988h-114v988q0 73 -26 134t-76 104.5t-123 68t-168 24.5q-83 0 -160.5 -18.5t-145 -52.5t-123 -80t-95 -101t-61.5 -117t-22 -126v-824h-114
v1887z" />
    <glyph glyph-name="i" unicode="i" horiz-adv-x="586" 
d="M234 1384h114v-1384h-114v1384zM226 1888h134v-225h-134v225z" />
    <glyph glyph-name="j" unicode="j" horiz-adv-x="586" 
d="M-69 -552h57q96 0 164 17t111.5 56.5t64 105.5t20.5 164v1593h-114v-1593q0 -74 -14 -119.5t-44 -71t-76.5 -34.5t-111.5 -9h-57v-109zM226 1888h134v-225h-134v225zM226 1888h134v-225h-134v225z" />
    <glyph glyph-name="k" unicode="k" horiz-adv-x="1495" 
d="M1210 1386h168l-653 -528l706 -858h-143l-652 788l-317 -252v-536h-114v1888h114v-1214z" />
    <glyph glyph-name="l" unicode="l" horiz-adv-x="524" 
d="M205 1888h114v-1888h-114v1888z" />
    <glyph glyph-name="m" unicode="m" horiz-adv-x="2609" 
d="M2290 987q0 86 -29.5 146.5t-78 99t-111 56t-129.5 17.5q-110 0 -214.5 -33.5t-185.5 -93t-130 -141.5t-49 -178v-860h-113v936q0 91 -26.5 160t-74 115.5t-114 70.5t-146.5 24q-68 0 -137 -17t-132 -47.5t-118 -73t-95.5 -95t-64 -112.5t-23.5 -125v-836h-114v1385h114
v-249q58 72 128 123.5t145 85t152 49t149 15.5q65 0 130.5 -15t124.5 -49t108 -88.5t82 -133.5q60 80 130.5 134.5t148 88.5t159.5 48.5t166 14.5q42 0 93 -7t102.5 -25t99.5 -48.5t85 -77.5t59.5 -112t22.5 -152v-987h-114v987z" />
    <glyph glyph-name="n" unicode="n" horiz-adv-x="1634" 
d="M205 1385h114v-274q76 101 158 164t162.5 98.5t155 48t135.5 12.5q109 0 201 -26t159 -78.5t105 -132t38 -185.5v-1012h-118v1012q0 77 -26.5 136.5t-76 100t-121 61.5t-161.5 21q-80 0 -156.5 -22t-144.5 -60.5t-125 -90t-98 -110t-64 -121t-23 -122.5v-805h-114v1385z
" />
    <glyph glyph-name="o" unicode="o" horiz-adv-x="1729" 
d="M144 692q0 146 43 277.5t132 231t224.5 158t320.5 58.5t320.5 -58.5t224.5 -158t132.5 -231t43.5 -277.5t-43.5 -277t-132.5 -229.5t-224.5 -156.5t-320.5 -58q-123 0 -224.5 26.5t-181.5 74t-139 114t-98 146.5t-58 171.5t-19 188.5zM1471 692q0 78 -14.5 154.5t-45 145
t-79 127t-116 101.5t-155 67t-197.5 24q-109 0 -196.5 -24t-154.5 -67t-115.5 -101.5t-79.5 -127t-45.5 -145t-14.5 -154.5q0 -77 14.5 -152.5t45.5 -143.5t79.5 -126.5t115.5 -101t154.5 -66.5t196.5 -24q165 0 280.5 52.5t188 139t105.5 196.5t33 226z" />
    <glyph glyph-name="p" unicode="p" horiz-adv-x="1729" 
d="M205 1384h118v-295q61 100 136.5 162.5t154.5 97.5t156.5 47t142.5 12q147 0 270.5 -46.5t213 -137t139 -223.5t49.5 -307q0 -168 -49 -302.5t-138 -228.5t-212.5 -144t-272.5 -50q-32 0 -75.5 3.5t-94 15t-106.5 32t-111.5 54.5t-108.5 83.5t-98 118.5v-800h-114v1908z
M1471 694q0 123 -34 233t-103 193t-174 131.5t-247 48.5q-91 0 -170 -25t-144.5 -68t-117 -101.5t-86.5 -126t-53.5 -140.5t-18.5 -145q0 -133 42.5 -246.5t120.5 -196t186.5 -129t240.5 -46.5q120 0 222.5 41.5t177 121t116.5 194.5t42 261z" />
    <glyph glyph-name="q" unicode="q" horiz-adv-x="1729" 
d="M1524 -524h-114v800q-46 -69 -98.5 -118.5t-108 -83.5t-111.5 -54.5t-106.5 -32t-94.5 -15t-75 -3.5q-149 0 -272.5 50t-212.5 144t-138 228.5t-49 302.5q0 174 49.5 307t139 223.5t213 137t270.5 46.5q65 0 142.5 -12t156.5 -47t154.5 -97.5t136.5 -162.5v295h118v-1908
zM258 694q0 -146 42 -261t116.5 -194.5t177 -121t222.5 -41.5q132 0 240.5 46.5t186.5 129t120.5 196t42.5 246.5q0 72 -18.5 145t-53.5 140.5t-86.5 126t-117 101.5t-144.5 68t-170 25q-143 0 -248 -48.5t-174 -131.5t-102.5 -193t-33.5 -233z" />
    <glyph glyph-name="r" unicode="r" horiz-adv-x="999" 
d="M205 1385h114v-260q60 97 129.5 152t138 82t130 33t106.5 6h110v-107h-110q-107 0 -199 -39t-159.5 -113t-106.5 -180t-39 -239v-721h-114v1386z" />
    <glyph glyph-name="s" unicode="s" horiz-adv-x="1495" 
d="M252 337q23 -59 63.5 -107t102 -83t145 -54t191.5 -19q142 0 237.5 21.5t154 61t83.5 94.5t25 123q0 51 -18.5 91.5t-59.5 71.5t-106.5 52.5t-159.5 35.5l-421 60q-60 9 -115 32.5t-97 64.5t-67 101.5t-25 143.5q0 87 38 158.5t109 123t172.5 80t228.5 28.5
q130 0 228.5 -24.5t169 -69.5t114.5 -109.5t67 -145.5h-123q-37 123 -151.5 185t-304.5 62q-79 0 -157 -15t-139.5 -48.5t-99.5 -88t-38 -132.5q0 -43 10 -83t38 -73.5t78 -58t131 -36.5l389 -56q130 -19 212 -54.5t129 -82t64.5 -101.5t17.5 -112q0 -110 -43 -187
t-123 -125t-193.5 -69.5t-254.5 -21.5q-107 0 -204.5 19t-178.5 62t-143 113t-96 172h120z" />
    <glyph glyph-name="t" unicode="t" horiz-adv-x="901" 
d="M312 1810h114v-426h389v-105h-389v-1046q0 -48 17 -80t49 -51t78.5 -26.5t105.5 -7.5q13 0 30.5 0.5t36.5 1.5t37.5 2t34.5 2v-106q-16 -1 -35 -2l-38 -2t-37.5 -1.5t-33.5 -0.5q-75 0 -140.5 11t-114 41t-76.5 82.5t-28 136.5v1046h-279v105h279v426z" />
    <glyph glyph-name="u" unicode="u" horiz-adv-x="1638" 
d="M1433 0h-114v274q-76 -101 -158 -164.5t-162 -98.5t-154.5 -47.5t-135.5 -12.5q-109 0 -201.5 26t-159.5 78.5t-105 131.5t-38 186v1011h118v-1011q0 -78 27.5 -137t78 -98.5t121.5 -60t159 -20.5q80 0 156.5 22.5t144 61t124.5 90t98 110t64 119.5t23 120v804h114v-1384
z" />
    <glyph glyph-name="v" unicode="v" horiz-adv-x="1500" 
d="M1354 1384h126l-670 -1384h-112l-678 1384h126l610 -1255z" />
    <glyph glyph-name="w" unicode="w" horiz-adv-x="2314" 
d="M2118 1384h125l-548 -1384h-114l-432 1233l-432 -1233h-110l-536 1384h125l465 -1223l429 1223h122l429 -1227z" />
    <glyph glyph-name="x" unicode="x" horiz-adv-x="1495" 
d="M1273 1385h143l-595 -669l627 -717h-146l-561 647l-560 -647h-142l623 721l-578 665h146l511 -591z" />
    <glyph glyph-name="y" unicode="y" horiz-adv-x="1446" 
d="M1294 1384h124l-735 -1638q-32 -70 -68 -124t-84.5 -91t-113.5 -56t-154 -19h-114v107h114q63 0 108.5 9t80.5 34t65.5 69t63.5 115l90 192l-644 1402h125l577 -1269z" />
    <glyph glyph-name="z" unicode="z" horiz-adv-x="1487" 
d="M111 97l1074 1186h-1025v102h1175v-94l-1078 -1189h1119v-103h-1265v98z" />
    <glyph glyph-name="braceleft" unicode="{" horiz-adv-x="766" 
d="M332 1540q0 174 64 265t182 91h130v-118h-130q-40 0 -64 -21.5t-37.5 -55.5t-18 -76.5t-4.5 -84.5v-483q0 -75 -16.5 -134.5t-43 -105.5t-59 -79t-65.5 -53q33 -20 66 -52t59 -76.5t42.5 -101.5t16.5 -127v-484q0 -42 5 -84.5t18.5 -76.5t38 -55.5t62.5 -21.5h130v-118
h-130q-118 0 -182 91t-64 265v484q0 62 -19 114t-49.5 91.5t-69.5 64t-79 32.5v113q42 6 81 31.5t69 66.5t48.5 96t18.5 120v483z" />
    <glyph glyph-name="bar" unicode="|" horiz-adv-x="475" 
d="M173 1888h121v-1888h-121v1888z" />
    <glyph glyph-name="braceright" unicode="}" horiz-adv-x="766" 
d="M434 1057q0 -65 18.5 -120t48.5 -96t69 -66.5t81 -31.5v-113q-40 -8 -79 -32.5t-69.5 -64t-49.5 -91.5t-19 -114v-484q0 -174 -64 -265t-182 -91h-130v118h130q38 0 62.5 21.5t38 55.5t18.5 76.5t5 84.5v484q0 70 16.5 127t42.5 101.5t59 76.5t66 52q-33 20 -65.5 53
t-59 79t-43 105.5t-16.5 134.5v483q0 42 -4.5 84.5t-18 76.5t-37.5 55.5t-64 21.5h-130v118h130q118 0 182 -91t64 -265v-483z" />
    <glyph glyph-name="asciitilde" unicode="~" horiz-adv-x="1470" 
d="M164 634q33 57 67 94.5t70.5 59t75.5 30.5t82 9q51 0 99 -14.5t94 -36.5t91 -47.5t90 -47.5t91.5 -36.5t95.5 -14.5q33 0 61.5 8.5t56.5 27.5t56 49.5t59 74.5l48 -104q-31 -48 -65 -80.5t-69.5 -52t-72.5 -28t-74 -8.5q-49 0 -97 14.5t-95 36.5t-93 47t-92 47t-92 36.5
t-92 14.5q-44 0 -76 -11.5t-58 -32.5t-49.5 -51.5t-50.5 -69.5z" />
    <glyph glyph-name="uni00A0" unicode="&#xa0;" horiz-adv-x="467" 
 />
    <glyph glyph-name="cent" unicode="&#xa2;" horiz-adv-x="1651" 
d="M1422 407q-42 -112 -99.5 -191.5t-128 -130.5t-153 -77t-173.5 -32v-262h-114v262q-107 8 -193.5 40.5t-154 83.5t-116.5 118t-80.5 143t-46.5 158.5t-15 164.5q0 142 38 269.5t114 226t189.5 160.5t264.5 73v257h114v-257q98 -6 185 -35.5t158.5 -79.5t126.5 -119
t89 -153h-124q-30 63 -75.5 112.5t-101.5 85.5t-122 57.5t-136 27.5v-1230q73 5 137 26t118.5 60t99 99t78.5 143h121zM262 684q0 -118 32.5 -223t95.5 -186t154.5 -132.5t209.5 -62.5v1228q-122 -11 -214.5 -65t-154 -138t-92.5 -192.5t-31 -228.5z" />
    <glyph glyph-name="sterling" unicode="&#xa3;" horiz-adv-x="1651" 
d="M107 953h199q-18 42 -35.5 86.5t-31 92t-22 97t-8.5 101.5q0 66 17.5 132t53.5 126.5t90.5 113t128.5 91t168.5 60.5t209.5 22q141 0 253 -33t193.5 -96.5t130.5 -156.5t64 -214h-122q-31 184 -160 286.5t-359 102.5q-116 0 -215.5 -29.5t-173 -85.5t-115.5 -136.5
t-42 -182.5q0 -49 9.5 -97t24.5 -94.5t34.5 -93t39.5 -92.5h564v-111h-518q25 -65 40 -129t15 -133q0 -38 -4.5 -88t-19 -105.5t-41.5 -112.5t-72 -109q42 10 80 12t78 2q84 0 159 -17t147 -37t144.5 -37t151.5 -17q34 0 70 4t74.5 15t79.5 30.5t86 49.5l38 -106
q-46 -33 -89.5 -53t-85.5 -31.5t-84 -15.5t-85 -4q-75 0 -152.5 17t-156.5 37t-157.5 37t-155.5 17q-103 0 -186.5 -18t-158.5 -62l-45 89q135 99 199 222t64 281q0 71 -17.5 133.5t-44.5 128.5h-249v111z" />
    <glyph glyph-name="yen" unicode="&#xa5;" horiz-adv-x="1819" 
d="M906 918q183 244 364 486t364 486l151 -2l-750 -995h496v-111h-561v-222h561v-106h-561v-454h-122v454h-557v106h557v222h-557v111h493q-91 121 -186 246.5t-190 252t-189.5 251.5t-184.5 245h148z" />
    <glyph glyph-name="copyright" unicode="&#xa9;" horiz-adv-x="1999" 
d="M9 946q0 144 37 272t103.5 235.5t158.5 192.5t202 144t234 90.5t255 31.5t255 -31.5t234 -90.5t202.5 -144t159 -192.5t103.5 -235.5t37 -272q0 -145 -37 -273.5t-103.5 -236t-159 -193t-202.5 -145t-234 -91t-255 -31.5t-255 31.5t-234 91t-202 145t-158.5 193
t-103.5 236t-37 273.5zM1868 946q0 123 -31 234.5t-87.5 207t-135.5 172.5t-175.5 131.5t-208 84t-231.5 29.5q-121 0 -232.5 -29.5t-208 -84t-175 -131.5t-135 -172.5t-87 -207t-30.5 -234.5q0 -124 30.5 -236.5t87 -208.5t135 -173t175 -131.5t208 -84t232.5 -29.5
q120 0 231.5 29.5t208 84t175.5 131.5t135.5 173t87.5 208.5t31 236.5zM1460 721q-29 -69 -72 -125t-97.5 -96t-119 -61.5t-135.5 -21.5q-114 0 -206.5 40.5t-158.5 112t-102 169t-36 211.5t34 211.5t98.5 169t157 112t209.5 40.5q66 0 129 -20t117.5 -58.5t98 -93.5
t69.5 -124h-119q-43 91 -117.5 140t-177.5 49q-90 0 -161.5 -32t-121 -89t-76 -135t-26.5 -170q0 -91 27.5 -168.5t78 -134.5t122.5 -89.5t161 -32.5q46 0 92 13.5t86 39t71.5 62t48.5 81.5h126z" />
    <glyph glyph-name="guillemotleft" unicode="&#xab;" horiz-adv-x="1356" 
d="M234 809l384 284v-149l-288 -207q71 -51 144.5 -105.5t143.5 -105.5v-152l-384 288v147zM697 809l384 284v-149l-288 -207q71 -51 144.5 -105.5t143.5 -105.5v-152l-384 288v147z" />
    <glyph glyph-name="registered" unicode="&#xae;" horiz-adv-x="1999" 
d="M9 946q0 144 37 272t103.5 235.5t158.5 192.5t202 144t234 90.5t255 31.5t255 -31.5t234 -90.5t202.5 -144t159 -192.5t103.5 -235.5t37 -272q0 -145 -37 -273.5t-103.5 -236t-159 -193t-202.5 -145t-234 -91t-255 -31.5t-255 31.5t-234 91t-202 145t-158.5 193
t-103.5 236t-37 273.5zM1868 946q0 123 -31 234.5t-87.5 207t-135.5 172.5t-175.5 131.5t-208 84t-231.5 29.5q-121 0 -232.5 -29.5t-208 -84t-175 -131.5t-135 -172.5t-87 -207t-30.5 -234.5q0 -124 30.5 -236.5t87 -208.5t135 -173t175 -131.5t208 -84t232.5 -29.5
q120 0 231.5 29.5t208 84t175.5 131.5t135.5 173t87.5 208.5t31 236.5zM980 894h-227v-469h-114v1042h405q195 0 294 -69.5t99 -218.5q0 -63 -24.5 -111.5t-68.5 -84t-104 -57t-132 -29.5q38 -56 79.5 -116t83 -121t82 -120.5t78.5 -114.5h-135zM1044 998q48 0 97.5 8.5
t90 29t66 55.5t25.5 88q0 60 -25.5 95.5t-66 54.5t-90 25t-97.5 6h-291v-362h291z" />
    <glyph glyph-name="guillemotright" unicode="&#xbb;" horiz-adv-x="1356" 
d="M1122 662l-384 -288v152q70 51 143.5 105.5t144.5 105.5l-288 207v149l384 -284v-147zM659 662l-384 -288v152q70 51 143.5 105.5t144.5 105.5l-288 207v149l384 -284v-147z" />
    <glyph glyph-name="onequarter" unicode="&#xbc;" horiz-adv-x="2527" 
d="M504 1607q-30 -19 -67.5 -30.5t-79.5 -18t-86.5 -8.5t-89.5 -2v103q68 1 124.5 8.5t100 29t74 61t45.5 105.5h97v-1090h-118v842zM1756 1855h143l-1047 -1855h-136zM2151 228h-651v95l662 767h107v-754h188v-108h-188v-228h-118v228zM2151 901q-64 -74 -125 -143
t-121 -138t-121.5 -139t-126.5 -145h494v565z" />
    <glyph glyph-name="onehalf" unicode="&#xbd;" horiz-adv-x="2527" 
d="M1586 746q12 67 43.5 124t84 98.5t126.5 65t171 23.5q103 0 179.5 -24t126.5 -66t74.5 -99t24.5 -123q0 -81 -35 -144.5t-90.5 -114.5t-124.5 -91t-138 -75q-44 -23 -88.5 -46.5t-85 -49t-74.5 -54.5t-57 -62h693v-108h-864q18 81 61 142t99.5 109t122.5 86t131 72
q61 32 120.5 66.5t106.5 74.5t76 88t29 107q0 56 -22 95.5t-61 64t-91.5 35.5t-112.5 11q-71 0 -124.5 -14t-91 -40.5t-61.5 -64.5t-36 -86h-112zM504 1607q-30 -19 -67.5 -30.5t-79.5 -18t-86.5 -8.5t-89.5 -2v103q68 1 124.5 8.5t100 29t74 61t45.5 105.5h97v-1090h-118
v842zM1659 1855h141l-1047 -1855h-136z" />
    <glyph glyph-name="threequarters" unicode="&#xbe;" horiz-adv-x="2527" 
d="M566 1394h52q137 0 200 51t63 143q0 45 -23 76.5t-61 51t-86.5 28t-100.5 8.5q-125 0 -194 -42.5t-94 -133.5h-114q16 72 52.5 124.5t89 87t118.5 51t142 16.5q105 0 179 -22.5t120.5 -59.5t68 -85t21.5 -100q0 -27 -5.5 -61t-21.5 -67.5t-44.5 -63.5t-74.5 -50
q50 -18 87.5 -48.5t62 -67.5t37 -77.5t12.5 -78.5q0 -24 -5 -55.5t-20 -65.5t-43 -67t-73.5 -59t-112.5 -42t-159 -16q-24 0 -63.5 2.5t-85.5 12.5t-94.5 28.5t-92 50.5t-77.5 79.5t-50 114.5h112q19 -54 55 -89t83.5 -55t102 -28t110.5 -8q152 0 223.5 53t71.5 144
q0 52 -25.5 93.5t-69 69.5t-100.5 43t-121 15h-52v99zM1897 1855h141l-1047 -1855h-136zM2151 228h-651v95l662 767h107v-754h188v-108h-188v-228h-118v228zM2151 901q-64 -74 -125 -143t-121 -138t-121.5 -139t-126.5 -145h494v565z" />
    <glyph glyph-name="multiply" unicode="&#xd7;" horiz-adv-x="1470" 
d="M189 1196l85 85l459 -462q115 115 231.5 231t231.5 231l85 -85l-462 -463q113 -112 231 -229.5t231 -229.5l-85 -85l-463 463q-114 -115 -229.5 -231.5t-229.5 -231.5l-85 85l463 459z" />
    <glyph glyph-name="divide" unicode="&#xf7;" horiz-adv-x="1569" 
d="M652 1266q0 25 11 48.5t29 42t42.5 29.5t51.5 11q25 0 49 -11t42 -29.5t29 -42t11 -48.5q0 -27 -11 -51.5t-29 -43t-42 -29.5t-49 -11q-27 0 -51.5 11t-42.5 29.5t-29 43t-11 51.5zM652 208q0 27 11 51.5t29 43t42.5 29.5t51.5 11q25 0 49 -11t42 -29.5t29 -43t11 -51.5
q0 -26 -11 -48.5t-29 -40t-42 -27.5t-49 -10q-27 0 -51.5 10t-42.5 27.5t-29 40t-11 48.5zM168 794h1232v-118h-1232v118z" />
    <glyph glyph-name="kokaithai" unicode="&#xe01;" horiz-adv-x="1860" 
d="M926 1511q-86 0 -180 -15t-182.5 -51t-164 -95.5t-124.5 -147.5q24 -24 47.5 -59.5t42 -80.5t29.5 -97.5t11 -109.5v-855h-114v855q0 58 -13 108.5t-34 92.5t-48.5 75.5t-56.5 58.5q55 111 137.5 191.5t184 133t219.5 78t246 25.5q88 0 176 -14t168 -44t148.5 -77
t119.5 -114t79.5 -154t28.5 -196v-1019h-114v1019q0 127 -48.5 219.5t-131 153t-193 90t-233.5 29.5z" />
    <glyph glyph-name="khokhaithai" unicode="&#xe02;" horiz-adv-x="1585" 
d="M755 -1l-475 1475h-239v111h326l472 -1475q118 368 236.5 738t236.5 737h120l-512 -1586h-165z" />
    <glyph glyph-name="khokhuatthai" unicode="&#xe03;" horiz-adv-x="1577" 
d="M725 1416q-33 -28 -66.5 -46t-65 -28.5t-60.5 -14.5t-54 -4q-57 0 -108 20.5t-94.5 56t-77.5 83.5t-56 102h125q12 -32 33 -60t48.5 -49.5t60.5 -34t69 -12.5q42 0 79.5 12t69 33t55 49.5t37.5 61.5h119v-223q-1 -53 -30 -105.5t-71 -102t-89.5 -94.5t-85.5 -82
q-45 -45 -76 -78.5t-50.5 -66.5t-29 -71t-10.5 -92v1v-237q0 -61 19.5 -111.5t52 -91t75.5 -70.5t90.5 -50.5t96 -30.5t92.5 -10q46 0 95.5 10t97 30.5t90 50.5t74.5 70.5t51 91t19 111.5v1151h113v-1151q0 -108 -45.5 -195t-120.5 -148.5t-172.5 -94.5t-201.5 -33
t-201 32.5t-172.5 93.5t-121 148.5t-45.5 196.5v237q0 70 15.5 123t45 99.5t72 92t97.5 101.5q23 23 58 56t68.5 70.5t58 76.5t27.5 72v54z" />
    <glyph glyph-name="khokhwaithai" unicode="&#xe04;" horiz-adv-x="1855" 
d="M327 0h-114v1047q0 101 29 183t79 145t118.5 109t148 76t165.5 44t173 14t174.5 -14t167 -44t148 -76t119 -109t79 -145t28.5 -183v-1047h-114v1047q0 111 -45.5 197t-126 145.5t-191 90.5t-239.5 31q-128 0 -238 -31t-190 -90.5t-125.5 -145.5t-45.5 -197v-496
q51 76 120 137t148 104t164.5 66.5t169.5 23.5v-106q-66 0 -136 -20t-136.5 -56.5t-126.5 -88.5t-105 -116t-71.5 -139t-26.5 -157v-199z" />
    <glyph glyph-name="khokhonthai" unicode="&#xe05;" horiz-adv-x="1855" 
d="M327 551q51 76 120 137t148 104t164.5 66.5t169.5 23.5v-106q-66 0 -136 -20t-136.5 -56.5t-126.5 -88.5t-105 -116t-71.5 -139t-26.5 -157v-199h-114v1103q0 109 38 195t101.5 148t147 100.5t175.5 52.5l251 -233q62 57 127.5 116.5t127.5 115.5q94 -12 178 -49.5
t147 -99.5t99.5 -148.5t36.5 -197.5v-1103h-114v1103q0 140 -79.5 240.5t-229.5 141.5q-35 -31 -73 -65t-76.5 -68.5t-76 -68.5t-71.5 -64l-290 266q-74 -17 -131 -53t-95.5 -86.5t-58.5 -112t-20 -130.5v-552z" />
    <glyph glyph-name="khorakhangthai" unicode="&#xe06;" horiz-adv-x="1843" 
d="M575 988q-37 -34 -75.5 -76.5t-69.5 -93t-50.5 -109t-19.5 -122.5q0 -55 23.5 -114t67 -115t103.5 -106t133 -88t156 -60t173 -22q96 0 186 30.5t160 88.5t112 141t42 188v1055h114v-1055q0 -124 -46 -226.5t-128 -175.5t-195.5 -113t-248.5 -40q-67 0 -146.5 11.5
t-164.5 45.5t-172 95.5t-169 161.5v-290h-114v592q0 76 20.5 141t55.5 122.5t81.5 110t98.5 103.5q33 32 61.5 61.5t50 60t34 62.5t12.5 70v91q-53 -45 -109.5 -64t-120.5 -19q-54 0 -106 16t-98 48t-83.5 79.5t-60.5 111.5h115q17 -39 42 -67t55 -47t64 -28t68 -9
q36 0 71 9.5t66.5 28.5t58.5 47.5t45 65.5h103v-263q0 -42 -11 -81t-34.5 -79.5t-60.5 -83t-89 -90.5z" />
    <glyph glyph-name="ngonguthai" unicode="&#xe07;" horiz-adv-x="1438" 
d="M445 289q25 -62 64 -102.5t85 -64.5t96.5 -34t100.5 -10q26 0 59.5 6t69 19.5t70 35t61 52.5t43 72.5t16.5 94.5v1116h-303v111h417v-1227q0 -85 -35 -156t-94.5 -122.5t-138 -80t-165.5 -28.5q-163 0 -280 66.5t-174 210.5q-31 83 -64 171.5t-66 178t-66 177.5t-64 171
h125z" />
    <glyph glyph-name="chochanthai" unicode="&#xe08;" horiz-adv-x="1683" 
d="M1499 1103q0 -64 -24.5 -147.5t-65.5 -178.5t-94.5 -197t-110.5 -203.5t-113.5 -197.5t-104.5 -179h-172l-356 748h-238v111h317l365 -768h5q46 78 99 168.5t105.5 185t101 189.5t86 181.5t60 160.5t22.5 127q0 74 -22.5 133t-61.5 104.5t-91.5 78t-112.5 53t-125 30
t-128 9.5q-72 0 -152.5 -12.5t-157.5 -43t-145 -81.5t-116 -127h-130q46 89 118.5 158t163.5 116.5t197.5 72t221.5 24.5q63 0 137 -9.5t148 -32.5t142.5 -61t120.5 -95.5t82.5 -135.5t28.5 -181z" />
    <glyph glyph-name="chochingthai" unicode="&#xe09;" horiz-adv-x="1794" 
d="M1581 -1h-118v271q-79 -98 -166.5 -159t-172 -95t-161 -45.5t-132.5 -11.5q-137 0 -248.5 34.5t-190.5 100.5t-122.5 162t-43.5 219v395h113v-395q0 -98 34.5 -173.5t98 -128t154.5 -79.5t205 -27q76 0 152 19.5t146 55t131 84t106 105.5t71 121t26 131v468
q0 99 -41.5 183.5t-118.5 147t-186.5 97.5t-244.5 35q-88 0 -168.5 -12.5t-148.5 -39t-122.5 -66.5t-89.5 -94h-140q45 75 108.5 134.5t146 101t185.5 63t229 21.5q177 0 310 -47.5t221.5 -126.5t133 -182.5t44.5 -214.5v-1052z" />
    <glyph glyph-name="chochangthai" unicode="&#xe0a;" horiz-adv-x="1704" 
d="M1342 715q0 94 -22.5 156t-69.5 98.5t-119 51t-170 14.5v94q92 0 169 25.5t132.5 81t86 141.5t30.5 208h113q0 -104 -17 -184t-47.5 -140t-72.5 -102t-92 -70q42 -17 77 -45.5t61 -73t40.5 -107.5t14.5 -148v-300q0 -81 -26 -146.5t-70.5 -115.5t-104.5 -86t-128 -59
t-141 -34t-144 -11q-78 0 -153.5 12t-143.5 37t-125.5 62.5t-99 87.5t-65 113t-23.5 140v331q0 52 15 96t40 84t56.5 76t64.5 72q31 33 60.5 66.5t52.5 69.5t37 75.5t14 84.5q0 44 -19.5 69t-45 37t-52 15t-39.5 3q-54 0 -104.5 -12.5t-104.5 -24.5v112q69 17 123.5 25
t85.5 8q60 0 109.5 -13t85 -41t55.5 -72t20 -106q0 -58 -17 -108t-44 -94t-61 -83.5t-67 -75.5q-29 -31 -56 -62t-48 -63t-34 -66.5t-13 -71.5v-331q0 -65 22.5 -116t60.5 -89.5t88 -65t105 -42.5t112 -23.5t108 -7.5q54 0 112 7.5t113.5 23.5t105.5 42.5t87.5 65t59.5 89
t22 116.5v300z" />
    <glyph glyph-name="sosothai" unicode="&#xe0b;" horiz-adv-x="1704" 
d="M231 671q0 70 23.5 131t61.5 114t84.5 100.5t93.5 91.5q35 33 67.5 65t57 63.5t39.5 62.5t15 63v54q-33 -28 -66.5 -46t-65 -28.5t-60.5 -14.5t-54 -4q-57 0 -108 20.5t-94.5 56t-77.5 83.5t-56 102h125q12 -32 33 -60t48.5 -49.5t60.5 -34t69 -12.5q42 0 79.5 12t69 33
t55 49.5t37.5 61.5h119v-223q0 -45 -18 -87t-47.5 -82t-67 -77.5t-76.5 -74.5q-41 -39 -82.5 -81t-75 -87.5t-54.5 -96t-21 -105.5v-256q0 -65 22.5 -116.5t60.5 -89.5t88 -64.5t105 -43t112 -24t108 -7.5q54 0 112 7.5t113.5 24t105.5 43t87.5 64.5t59.5 89t22 117v299
q0 94 -22.5 156t-69.5 99t-119 51.5t-170 14.5v94q92 0 169 25.5t132.5 81t86 141.5t30.5 208h114q0 -104 -17 -184.5t-47.5 -140.5t-72.5 -102t-92 -69q42 -17 77.5 -45t61 -72.5t39.5 -107.5t14 -150v-299q0 -81 -26 -146.5t-70.5 -115.5t-104.5 -86t-128 -59t-141 -34
t-144 -11q-78 0 -153.5 12t-143.5 37t-125.5 62t-99 87.5t-65 113.5t-23.5 140v256z" />
    <glyph glyph-name="chochoethai" unicode="&#xe0c;" horiz-adv-x="2691" 
d="M291 887q0 54 -13 102.5t-34 90.5t-48.5 76t-56.5 59q47 87 116 161t158.5 128t199.5 84t239 30q133 0 249.5 -30.5t202.5 -98.5t136 -177t50 -265v-443q0 -64 21 -128t59 -123t89.5 -110.5t112 -89t128 -59.5t136.5 -22q88 0 150.5 25.5t102 75.5t57.5 125t18 174v1113
h114v-1113q0 -132 -28 -228t-83.5 -158.5t-138.5 -92t-192 -29.5q-73 0 -144.5 15t-140.5 50.5t-134.5 93t-126.5 142.5v-265h-113v1047q0 122 -38 209.5t-107.5 144t-166 83t-213.5 26.5q-73 0 -153 -13t-157 -45t-146.5 -87t-120.5 -139q25 -26 48.5 -62.5t41.5 -81
t29 -94.5t11 -101v-777h283v-110h-397v887z" />
    <glyph glyph-name="yoyingthai" unicode="&#xe0d;" horiz-adv-x="2675" 
d="M1377 1048q0 122 -38 209.5t-107.5 144t-166 83t-213.5 26.5q-73 0 -153 -13t-157 -45t-146.5 -87t-120.5 -139q25 -26 48.5 -62.5t41.5 -81t29 -94.5t11 -101v-778h283v-110h-397v888q0 54 -13 102.5t-34 90.5t-48.5 76t-56.5 59q47 87 116 161t158.5 128t199.5 84
t239 30q133 0 249.5 -30.5t202.5 -98.5t136 -177t50 -265v-372q0 -112 22.5 -190t64 -126.5t100.5 -70.5t133 -22q76 0 145.5 22t129 60.5t108 91t83 113t53 126t18.5 131.5v774h114v-1427q-3 -169 -40.5 -286.5t-108.5 -190.5t-176 -106t-244 -33q-92 0 -175 25t-150 75
t-115 125t-72 175h114q15 -63 48 -116.5t83 -92.5t116.5 -61t150.5 -22q140 0 228.5 38.5t139 106.5t69 161t18.5 202v302q-60 -86 -132 -143.5t-144.5 -92t-140.5 -49.5t-120 -15q-209 0 -321 128.5t-112 387.5v372z" />
    <glyph glyph-name="dochadathai" unicode="&#xe0e;" horiz-adv-x="1974" 
d="M1761 -475h-100q-121 87 -248 127.5t-254 40.5q-146 0 -289 -51t-276 -142v130q134 88 277 130t288 42q125 0 250.5 -34t237.5 -100v1336q0 130 -48.5 225t-131.5 157t-193.5 92t-233.5 30q-85 0 -179 -15.5t-182.5 -52t-164 -97.5t-124.5 -151q24 -24 47.5 -61t42 -83
t29.5 -100t11 -112v-836h-397v114h283v722q0 60 -13 112t-34.5 95t-49 77t-55.5 59q55 114 137.5 197t184 136.5t219.5 79.5t245 26q88 0 176 -14.5t168 -45t149 -79t119.5 -116.5t79.5 -157.5t29 -201.5v-1479z" />
    <glyph glyph-name="topatakthai" unicode="&#xe0f;" horiz-adv-x="1974" 
d="M1647 1004q0 130 -48.5 225t-131.5 157t-193.5 92t-233.5 30q-85 0 -179 -15.5t-182.5 -52t-164 -97.5t-124.5 -151q24 -24 47.5 -61t42 -83t29.5 -100t11 -112v-836h-397v114h283v722q0 60 -13 112t-34.5 95t-49 77t-55.5 59q55 114 137.5 197t184 136.5t219.5 79.5
t245 26q88 0 176 -14.5t168 -45t149 -79t119.5 -116.5t79.5 -157.5t29 -201.5v-1479h-105q-24 43 -60 76.5t-78 56.5t-89 35t-94 12q-41 0 -84 -11.5t-83 -34t-74.5 -56t-57.5 -78.5h-95q-43 90 -114 135t-155 45q-87 0 -156 -45t-106 -135h-112q18 62 55.5 114.5t88 90.5
t109.5 59.5t121 21.5q92 0 175.5 -36.5t145.5 -121.5q39 47 82.5 77.5t88.5 48.5t89 25t82 7q80 0 161.5 -25t150.5 -81v1299z" />
    <glyph glyph-name="thothanthai" unicode="&#xe10;" horiz-adv-x="1683" 
d="M744 -435q-14 36 -33.5 60.5t-42 40.5t-47 23t-48.5 7q-55 0 -102.5 -34t-66.5 -97h-122q9 46 36 88.5t66 74.5t87.5 51.5t101.5 19.5q24 0 51.5 -2.5t56 -11.5t56 -27.5t52.5 -51.5q49 47 111 70t128 23q55 0 105.5 -16.5t91.5 -47.5v116h114v-286h-107q-34 60 -90 93.5
t-118 33.5q-57 0 -110 -29t-96 -98h-74zM1499 1099q0 -83 -41.5 -198.5t-112 -256.5t-163.5 -304t-196 -340h-172l-356 748h-238v111h317l365 -768h5q46 78 99 168t105.5 184t101 188.5t86 180.5t60 160t22.5 127q0 74 -22.5 133t-61.5 104.5t-91.5 78t-112.5 53t-125 30
t-128 9.5q-72 0 -152.5 -12.5t-157.5 -43t-145 -81.5t-116 -127h-130q46 89 118.5 158t163.5 116.5t197.5 72t221.5 24.5q44 0 95.5 -5t105 -16.5t107 -30t102.5 -45.5q30 12 58.5 31t53 45.5t43.5 58.5t30 70h127q-11 -40 -30.5 -79.5t-47 -75t-62 -65t-74.5 -48.5
q34 -30 62.5 -66.5t48.5 -80.5t30.5 -96t9.5 -112z" />
    <glyph glyph-name="thonangmonthothai" unicode="&#xe11;" horiz-adv-x="1823" 
d="M422 1323q-52 0 -104 17.5t-97 51t-79.5 82.5t-52.5 112h113q12 -32 33 -60t49.5 -49.5t63 -34t74.5 -12.5q45 0 84 12t71 33t56 49.5t38 61.5h103v-327q114 77 197.5 132.5t145 94.5t104.5 63t76 37.5t59 18t54 4.5q45 0 81.5 -16t63 -50.5t40.5 -88t14 -128.5v-1326
h-113v1330q-1 49 -9 82.5t-21 54.5t-31 30t-39 9q-15 0 -32.5 -4.5t-46.5 -19t-73.5 -41t-111.5 -69.5t-161 -105.5t-223 -148.5v1q-60 -41 -120.5 -89.5t-109 -110t-79 -138.5t-30.5 -174v-607h-114v607q0 109 30.5 192.5t81.5 151t116.5 125t136.5 115.5v207
q-29 -20 -60.5 -34.5t-63 -23.5t-61 -13t-53.5 -4z" />
    <glyph glyph-name="thophuthaothai" unicode="&#xe12;" horiz-adv-x="2769" 
d="M1019 779l-703 -780h-103v1095q0 111 34.5 199.5t94.5 152t139.5 101.5t169.5 47l249 -227q55 56 112 113.5t111 113.5q95 -9 179.5 -46.5t148.5 -101.5t101 -152.5t37 -199.5v-499q0 -60 19 -122t52.5 -120.5t80.5 -110t103 -90t119 -60.5t130 -22q108 0 176 29
t106.5 82t52.5 128.5t14 168.5v1107h113v-1103q0 -128 -22.5 -225t-75.5 -162t-142 -98.5t-222 -33.5q-21 0 -54 3t-74 13t-88 29t-96 52t-98 81t-94 117v-259h-114v1099q0 69 -21 132t-61 114t-97.5 87.5t-129.5 53.5q-31 -31 -64.5 -65.5t-68 -69l-68.5 -68.5l-64 -64
l-294 267q-71 -19 -123.5 -56.5t-87.5 -88.5t-52 -113t-17 -129v-928q70 78 137 151t133 146t133.5 146.5t138.5 152.5h-303v108h453v-95z" />
    <glyph glyph-name="nonenthai" unicode="&#xe13;" horiz-adv-x="2691" 
d="M1377 1047q0 122 -38 209.5t-107.5 144t-166 83t-213.5 26.5q-73 0 -153 -13t-157 -45t-146.5 -87t-120.5 -139q25 -26 48.5 -62.5t41.5 -81t29 -94.5t11 -101v-778h283v-110h-397v888q0 54 -13 102.5t-34 90.5t-48.5 76t-56.5 59q47 87 116 161t158.5 128t199.5 84
t239 30q133 0 249.5 -30.5t202.5 -98.5t136 -177t50 -265v-576q0 -99 18 -174t58 -125t102 -75.5t151 -25.5q71 0 139 22t129 59.5t111.5 89t87.5 110.5t57.5 123t20.5 128v982h114v-1586h-114v265q-61 -85 -126.5 -142.5t-134 -93t-140 -50.5t-144.5 -15
q-110 0 -192.5 29.5t-138 92t-83.5 158.5t-28 228v576z" />
    <glyph glyph-name="dodekthai" unicode="&#xe14;" horiz-adv-x="1913" 
d="M327 163q148 150 294.5 300t298.5 304h-293v107h454v-95l-766 -779h-102v1047q0 99 28.5 180t79 144.5t120 110t151.5 77t174 45t188 14.5q144 0 278 -34t238 -104t166.5 -178t62.5 -255v-1047h-113v1047q0 114 -50.5 200.5t-137 145t-201.5 88.5t-243 30
q-132 0 -246.5 -30t-199 -88.5t-133 -145t-48.5 -200.5v-884z" />
    <glyph glyph-name="totaothai" unicode="&#xe15;" horiz-adv-x="1913" 
d="M315 0h-102v1095q0 111 34.5 199t94 151.5t138.5 101.5t169 47l305 -230q70 57 140.5 115t140.5 115q94 -9 178.5 -47t148 -101.5t100.5 -151.5t37 -199v-1095h-113v1099q0 68 -21.5 131t-62.5 114.5t-99.5 88t-131.5 52.5q-76 -63 -159 -130.5t-158 -129.5l-336 260
q-72 -15 -126.5 -52t-91 -89t-55 -115t-18.5 -130v-936q148 150 294.5 300t298.5 304h-293v107h454v-96z" />
    <glyph glyph-name="thothungthai" unicode="&#xe16;" horiz-adv-x="1860" 
d="M291 0v855q0 58 -13 108.5t-34 92.5t-48.5 75.5t-56.5 58.5q55 111 137.5 191.5t184 133t219.5 78t246 25.5q88 0 176 -14t168 -44t148.5 -77t119.5 -114t79.5 -154t28.5 -196v-1019h-118v1019q0 127 -48 219.5t-130 153t-191.5 90t-232.5 29.5q-86 0 -180 -15
t-182.5 -51t-164 -95.5t-124.5 -147.5q24 -24 47.5 -59.5t42 -80.5t29.5 -97.5t11 -109.5v-746h283v-109h-397z" />
    <glyph glyph-name="thothahanthai" unicode="&#xe17;" horiz-adv-x="1823" 
d="M213 1585h114v-281q78 100 166 165t179.5 102.5t184 52t179.5 14.5q124 0 229.5 -37t181.5 -105.5t119 -167t43 -221.5v-1107h-113v1107q0 102 -36 181t-98 133t-146 82t-180 28q-110 0 -205.5 -23.5t-174.5 -64t-140 -95t-103 -116t-64 -127.5t-22 -130v-975h-114v1585z
" />
    <glyph glyph-name="thothongthai" unicode="&#xe18;" horiz-adv-x="1880" 
d="M356 782v-387q0 -70 32.5 -129t104.5 -102.5t186.5 -68t278.5 -24.5q159 0 272 34t185 89t105 123.5t33 136.5q0 56 -18.5 113.5t-62.5 107.5t-117 88.5t-182 55.5l-574 92q-79 13 -149 37.5t-122.5 63t-83.5 90.5t-31 120q0 91 52 163.5t146 123.5t225.5 78t289.5 27
q147 0 263 -26t202.5 -73.5t143.5 -114.5t86 -149h-128q-26 61 -77 109t-123.5 80t-165 49t-201.5 17q-71 0 -143.5 -7t-139.5 -21.5t-125.5 -37.5t-101.5 -54.5t-68 -72.5t-25 -91q0 -37 23 -70t65 -61t100.5 -48.5t130.5 -32.5l569 -92q99 -16 182.5 -53.5t144 -96
t95 -137.5t34.5 -177q0 -109 -51 -199.5t-144 -155t-223.5 -100.5t-290.5 -36q-78 0 -161.5 6.5t-163 24.5t-150.5 48.5t-124.5 78.5t-85 115.5t-31.5 158.5v387h114z" />
    <glyph glyph-name="nonuthai" unicode="&#xe19;" horiz-adv-x="1823" 
d="M1609 -1h-113v282q-78 -100 -166 -165t-180 -102.5t-184.5 -52t-179.5 -14.5q-124 0 -229 37t-181.5 105.5t-119.5 167t-43 221.5v1107h114v-1107q0 -102 36 -181t98 -133t145.5 -82t179.5 -28q111 0 206.5 23.5t174.5 64t140 95t103 116t64 127.5t22 130v975h113v-1586z
" />
    <glyph glyph-name="bobaimaithai" unicode="&#xe1a;" horiz-adv-x="1823" 
d="M909 74q132 0 240.5 34t185.5 96t119 149t42 194v1038h113v-1038q0 -100 -28 -182.5t-77 -146.5t-115.5 -111.5t-144.5 -78.5t-163.5 -46t-171.5 -15q-85 0 -170 15t-162 46t-143.5 78.5t-115.5 111.5t-77 146t-28 183v1038h114v-1038q0 -107 42.5 -194t119.5 -149
t184 -96t236 -34z" />
    <glyph glyph-name="poplathai" unicode="&#xe1b;" horiz-adv-x="1823" 
d="M909 74q132 0 240.5 34t185.5 96t119 149t42 194v1734h113v-1734q0 -100 -28 -182.5t-77 -146.5t-115.5 -111.5t-144.5 -78.5t-163.5 -46t-171.5 -15q-85 0 -170 15t-162 46t-143.5 78.5t-115.5 111.5t-77 146t-28 183v1038h114v-1038q0 -107 42.5 -194t119.5 -149
t184 -96t236 -34z" />
    <glyph glyph-name="phophungthai" unicode="&#xe1c;" horiz-adv-x="1909" 
d="M213 1585h430v-108h-316v-1119q0 -86 20 -141t53.5 -86.5t78 -44t94.5 -12.5q82 0 143.5 30t101.5 84.5t60 130t20 167.5v428h113v-428q0 -92 22 -167.5t65 -130t106 -84.5t144 -30q48 0 90.5 12.5t74.5 44t50.5 86.5t18.5 141v1227h113v-1227q0 -101 -23 -174.5
t-67.5 -121.5t-109 -71.5t-147.5 -23.5q-42 0 -93.5 7.5t-104 31.5t-102.5 70t-90 123q-39 -78 -89 -124t-102 -70t-102.5 -31t-91.5 -7q-86 0 -153 23.5t-113 71.5t-70 121.5t-24 174.5v1227z" />
    <glyph glyph-name="fofathai" unicode="&#xe1d;" horiz-adv-x="1909" 
d="M213 1585h430v-108h-316v-1119q0 -86 20 -141t53.5 -86.5t78 -44t94.5 -12.5q82 0 143.5 30t101.5 84.5t60 130t20 167.5v428h113v-428q0 -92 22 -167.5t65 -130t106 -84.5t144 -30q48 0 90.5 12.5t74.5 44t50.5 86.5t18.5 141v1923h113v-1923q0 -101 -23 -174.5
t-67.5 -121.5t-109 -71.5t-147.5 -23.5q-42 0 -93.5 7.5t-104 31.5t-102.5 70t-90 123q-39 -78 -89 -124t-102 -70t-102.5 -31t-91.5 -7q-86 0 -153 23.5t-113 71.5t-70 121.5t-24 174.5v1227z" />
    <glyph glyph-name="phophanthai" unicode="&#xe1e;" horiz-adv-x="2327" 
d="M1236 1585l418 -1444l399 1444h115l-449 -1586h-132l-420 1438l-419 -1438h-136l-450 1586h115l403 -1449l419 1449h137z" />
    <glyph glyph-name="fofanthai" unicode="&#xe1f;" horiz-adv-x="2327" 
d="M1236 1585l418 -1444l592 2140h115l-642 -2282h-132l-420 1438l-419 -1438h-136l-450 1586h115l403 -1449l419 1449h137z" />
    <glyph glyph-name="phosamphaothai" unicode="&#xe20;" horiz-adv-x="1974" 
d="M1761 0h-114v1019q0 127 -48.5 219.5t-131.5 153t-193.5 90t-233.5 29.5q-85 0 -179 -15t-182.5 -51t-164 -95.5t-124.5 -147.5q24 -24 47.5 -59.5t42 -80.5t29.5 -97.5t11 -109.5v-855h-397v109h283v746q0 59 -13 109.5t-34.5 92.5t-49 75t-55.5 58q55 111 137.5 191.5
t184 133t219.5 78t245 25.5q88 0 176 -14t168 -44t149 -77t119.5 -114t79.5 -154t29 -196v-1019z" />
    <glyph glyph-name="momathai" unicode="&#xe21;" horiz-adv-x="1823" 
d="M213 1585h114v-975q0 -64 22.5 -130t65.5 -127.5t105 -116t141 -95t173 -64t202 -23.5q96 0 180 28t146 82t98 133t36 181v1107h113v-1107q0 -123 -42.5 -221.5t-118 -167t-181 -105.5t-231.5 -37q-87 0 -179.5 14.5t-184 52t-179.5 102.5t-166 165v-282h-114v1586z" />
    <glyph glyph-name="yoyakthai" unicode="&#xe22;" horiz-adv-x="1819" 
d="M201 1230q0 91 33.5 157.5t88 110.5t124.5 65.5t143 21.5h253v-106h-253q-46 0 -94.5 -12.5t-88.5 -41.5t-66 -76.5t-26 -118.5q0 -76 29.5 -131.5t75.5 -92t103 -54.5t112 -18h200v-107h-200q-67 0 -125 -22t-101.5 -66t-68.5 -110.5t-25 -154.5q0 -92 46 -165.5
t126.5 -126t190 -80.5t235.5 -28t232.5 33.5t183 99.5t119.5 163t43 224v991h114v-991q0 -149 -49.5 -265.5t-140 -196.5t-218 -122.5t-284.5 -42.5q-159 0 -290.5 37t-225 104t-145 160.5t-51.5 205.5q0 58 9.5 113t33.5 106t65.5 97.5t105.5 87.5q-64 39 -105.5 85
t-65.5 93t-33.5 92t-9.5 82z" />
    <glyph glyph-name="roruathai" unicode="&#xe23;" horiz-adv-x="1659" 
d="M280 370q20 -60 64 -113t112 -93t161 -63t210 -23q156 0 261 25t169.5 68t92 100t27.5 120q0 61 -19 111t-63 90t-115.5 70.5t-175.5 52.5l-422 88q-193 40 -293 142t-100 245q0 105 49 184t134 131.5t199 78.5t244 26q145 0 256 -27.5t190 -78.5t129 -123.5t74 -162.5
h-119q-40 139 -178 211.5t-352 72.5q-89 0 -180 -15.5t-165 -51.5t-120.5 -96t-46.5 -149q0 -55 24 -101t66.5 -82t100 -61.5t124.5 -39.5l410 -84q126 -26 214 -64.5t143 -92t80 -121.5t25 -153q0 -102 -43.5 -181t-128 -133t-208 -82t-283.5 -28q-109 0 -213.5 22t-194 70
t-157 124.5t-101.5 186.5h119z" />
    <glyph glyph-name="ruthai" unicode="&#xe24;" horiz-adv-x="1860" 
d="M291 0v855q0 58 -13 108.5t-34 92.5t-48.5 75.5t-56.5 58.5q55 111 137.5 191.5t184 133t219.5 78t246 25.5q88 0 176 -14t168 -44t148.5 -77t119.5 -114t79.5 -154t28.5 -196v-1498h-118v1498q0 127 -48 219.5t-130 153t-191.5 90t-232.5 29.5q-86 0 -180 -15
t-182.5 -51t-164 -95.5t-124.5 -147.5q24 -24 47.5 -59.5t42 -80.5t29.5 -97.5t11 -109.5v-746h283v-109h-397z" />
    <glyph glyph-name="lolingthai" unicode="&#xe25;" horiz-adv-x="1757" 
d="M1430 878q-38 -31 -83 -55t-92 -41t-94 -28t-90 -15q-41 -4 -85.5 -8.5t-90.5 -9t-91 -9.5t-85 -9q-105 -10 -189 -36t-142.5 -67t-90 -96.5t-31.5 -124.5q0 -84 37 -141.5t98.5 -93t140.5 -50.5t163 -15q29 0 79.5 3t107.5 11v-102q-54 -11 -99 -15.5t-88 -4.5
q-113 0 -197.5 18.5t-146 49.5t-102 71.5t-64.5 86t-33.5 92.5t-9.5 90q0 84 37.5 156.5t108.5 128.5t175 94t238 53q91 9 186 19t186 20q67 9 129.5 33t111 57t77.5 72t29 79q0 102 -39 180t-108.5 131t-167 80.5t-214.5 27.5q-97 0 -187.5 -16.5t-165.5 -53.5
t-128.5 -96.5t-76.5 -144.5h-118q25 96 81 173t141.5 132t199.5 84.5t254 29.5q71 0 146 -11t146.5 -35.5t135.5 -64.5t111.5 -98.5t75.5 -137.5t28 -180v-1091h-114v878z" />
    <glyph glyph-name="luthai" unicode="&#xe26;" horiz-adv-x="1974" 
d="M1761 -475h-114v1494q0 127 -48.5 219.5t-131.5 153t-193.5 90t-233.5 29.5q-85 0 -179 -15t-182.5 -51t-164 -95.5t-124.5 -147.5q24 -24 47.5 -59.5t42 -80.5t29.5 -97.5t11 -109.5v-855h-397v109h283v746q0 59 -13 109.5t-34.5 92.5t-49 75t-55.5 58
q55 111 137.5 191.5t184 133t219.5 78t245 25.5q88 0 176 -14t168 -44t149 -77t119.5 -114t79.5 -154t29 -196v-1494z" />
    <glyph glyph-name="wowaenthai" unicode="&#xe27;" horiz-adv-x="1696" 
d="M186 1182q32 104 88 185t136 137t185 85t236 29q125 0 227.5 -31t182.5 -87t138.5 -133.5t97 -170.5t57 -198t18.5 -216q0 -95 -15 -192.5t-49.5 -188t-89.5 -169.5t-135.5 -138t-188.5 -93t-247 -34q-141 0 -248.5 37t-187.5 100.5t-134.5 148.5t-87.5 182h124
q30 -89 82 -156t120.5 -112.5t152.5 -68.5t179 -23q147 0 261 51t192 144t118 223t40 289q0 150 -38 282.5t-113.5 231.5t-189.5 156.5t-266 57.5q-107 0 -193.5 -22.5t-153 -65t-112.5 -103.5t-70 -137h-116z" />
    <glyph glyph-name="sosalathai" unicode="&#xe28;" horiz-adv-x="1855" 
d="M327 1h-114v1048q0 101 29 183t79 145t118.5 109t148 76t165.5 44t173 14q106 0 212 -22.5t197 -68.5q34 9 68.5 29t64.5 47.5t52.5 61.5t33.5 73h126q-10 -42 -32 -83.5t-53 -78.5t-69.5 -67t-80.5 -49q90 -70 143.5 -172.5t53.5 -240.5v-1048h-114v1048
q0 110 -45.5 196t-126 145.5t-191 90.5t-239.5 31q-128 0 -238 -31t-190 -90.5t-125.5 -145.5t-45.5 -196v-496q51 76 120 137t148 104t164.5 66.5t169.5 23.5v-107q-66 0 -136 -20t-136.5 -56.5t-126.5 -88.5t-105 -116t-71.5 -139t-26.5 -157v-199z" />
    <glyph glyph-name="sorusithai" unicode="&#xe29;" horiz-adv-x="1823" 
d="M909 74q132 0 240.5 34t185.5 96t119 149t42 194v268h-639v343h109v-237h530v664h113v-664h217v-106h-217v-268q0 -100 -28 -182.5t-77 -146.5t-115.5 -111.5t-144.5 -78.5t-163.5 -46t-171.5 -15q-85 0 -170 15t-162 46t-143.5 78.5t-115.5 111.5t-77 146t-28 183v1038
h114v-1038q0 -107 42.5 -194t119.5 -149t184 -96t236 -34z" />
    <glyph glyph-name="sosuathai" unicode="&#xe2a;" horiz-adv-x="1757" 
d="M1430 879q-38 -31 -83 -55t-92 -41t-94 -27.5t-90 -14.5q-41 -4 -85.5 -9t-90.5 -9.5t-91 -9l-85 -8.5q-105 -11 -189 -37t-142.5 -67t-90 -96t-31.5 -124q0 -85 37 -142.5t98.5 -93t140.5 -50.5t163 -15q29 0 79.5 3.5t107.5 11.5v-103q-54 -11 -99 -15t-88 -4
q-113 0 -197.5 18.5t-146 49.5t-102 71.5t-64.5 86t-33.5 92.5t-9.5 90q0 84 37.5 156t108.5 128t175 94t238 53q91 10 186 19.5t186 19.5q67 9 129.5 33t111 57t77.5 72t29 79q0 102 -39 180.5t-108.5 131.5t-167 80.5t-214.5 27.5q-97 0 -187.5 -16.5t-165.5 -53.5
t-128.5 -96.5t-76.5 -144.5h-118q25 95 81 172.5t141.5 132t199.5 84t254 29.5q96 0 197 -21.5t190 -69.5q36 7 72.5 26t68 46.5t56 62.5t36.5 76h126q-10 -44 -33.5 -87.5t-56.5 -82t-74.5 -69t-87.5 -48.5q66 -62 107.5 -149.5t41.5 -210.5v-1091h-114v878z" />
    <glyph glyph-name="hohipthai" unicode="&#xe2b;" horiz-adv-x="1794" 
d="M1673 1585l-576 -344q115 -23 206.5 -71.5t155 -118t97 -157t33.5 -187.5v-708h-114v703q0 93 -34.5 172.5t-100.5 139.5t-161.5 98.5t-216.5 49.5q-161 -96 -317 -188.5t-318 -189.5v-785h-114v1586h114v-675q135 80 280 166t292 172.5t291.5 171.5t279.5 165h203z" />
    <glyph glyph-name="lochulathai" unicode="&#xe2c;" horiz-adv-x="2327" 
d="M1719 0h-132l-420 1437l-419 -1437h-136l-450 1585h115l403 -1448l419 1448h137l418 -1444l273 974q14 50 22.5 98t8.5 90q0 36 -9.5 67t-31 56.5t-57.5 44.5t-90 31v81q147 15 232.5 78.5t116.5 181.5h116q-15 -51 -33.5 -97.5t-48.5 -87t-75.5 -74.5t-113.5 -59
q55 -38 78 -98t23 -135q0 -45 -8.5 -95t-22.5 -99z" />
    <glyph glyph-name="oangthai" unicode="&#xe2d;" horiz-adv-x="1802" 
d="M144 822h593v-103h-478q5 -130 47 -246t121.5 -203.5t195.5 -139t270 -51.5q153 0 274 51t205 143.5t128.5 222t44.5 286.5q0 162 -43 296t-126.5 230t-205 149t-277.5 53q-103 0 -192.5 -22.5t-163 -65t-129.5 -103.5t-93 -137h-125q46 99 114 179.5t157 137.5t197.5 88
t234.5 31q189 0 332 -63t239.5 -175t145 -265t48.5 -333q0 -99 -18 -198t-56 -189t-98.5 -167.5t-145.5 -134.5t-196 -89.5t-251 -32.5q-138 0 -247 33.5t-192.5 92t-142 137.5t-96 169t-54.5 187t-17 192v40z" />
    <glyph glyph-name="honokhukthai" unicode="&#xe2e;" horiz-adv-x="1802" 
d="M144 824h593v-104h-478q5 -129 47 -245.5t121.5 -204t195.5 -139t270 -51.5q153 0 274 51t205 143.5t128.5 222t44.5 287.5q0 162 -43 296t-126.5 230t-205 149t-277.5 53q-103 0 -192.5 -22.5t-163 -65t-129.5 -103.5t-93 -137h-125q46 99 114 179t157 137t197.5 88
t234.5 31q131 0 238 -30.5t195 -87.5q35 9 69.5 31.5t65 54.5t54 71t35.5 81h126q-10 -45 -33 -91.5t-56.5 -89t-76.5 -77.5t-92 -56q126 -112 183 -275t57 -366q0 -99 -18 -198t-56 -189t-98.5 -167.5t-145.5 -134.5t-196 -89.5t-251 -32.5q-138 0 -247 33.5t-192.5 92
t-142 137t-96 169t-54.5 187.5t-17 192v40z" />
    <glyph glyph-name="paiyannoithai" unicode="&#xe2f;" horiz-adv-x="1708" 
d="M1381 -1v1015q-66 -75 -141 -124.5t-150.5 -78.5t-146.5 -40.5t-128 -11.5q-138 0 -250.5 34t-192.5 94.5t-123.5 143.5t-43.5 180q0 103 40 174t103 115.5t140 64.5t151 20h196v-106h-196q-57 0 -114 -14t-102.5 -46t-74.5 -83t-29 -125q0 -66 31 -128t93 -110
t155 -77.5t217 -29.5q70 0 139.5 15.5t132.5 44t116.5 68.5t93 89t62 105.5t22.5 117.5v279h114v-1586h-114z" />
    <glyph glyph-name="saraathai" unicode="&#xe30;" horiz-adv-x="979" 
d="M205 1086v323h114v-213h496v-110h-610zM205 304v322h114v-213h496v-109h-610z" />
    <glyph glyph-name="maihanakatthai" unicode="&#xe31;" 
d="M-1003 1901v343h114v-237h929v-106h-1043z" />
    <glyph glyph-name="saraaathai" unicode="&#xe32;" horiz-adv-x="1368" 
d="M82 1263q17 93 69 160t125.5 110.5t162 64t179.5 20.5q109 0 206.5 -29t171 -86t116.5 -142.5t43 -198.5v-1162h-114v1162q0 90 -35 155.5t-94 108.5t-135.5 64t-158.5 21q-69 0 -137.5 -13.5t-126 -43t-100 -77t-59.5 -114.5h-113z" />
    <glyph glyph-name="saraamthai" unicode="&#xe33;" horiz-adv-x="1368" 
d="M-418 2107q0 -27 11 -52t30 -44t44.5 -30t53.5 -11q30 0 55.5 11t44.5 30t29.5 44t10.5 52q0 29 -10.5 54t-29.5 43.5t-44.5 29t-55.5 10.5q-28 0 -53.5 -10.5t-44.5 -29t-30 -43.5t-11 -54zM-524 2107q0 52 19.5 96t53 76t78 49.5t94.5 17.5q54 0 99 -17.5t78 -49.5
t51 -76t18 -96q0 -49 -18 -92.5t-51 -76t-78 -51.5t-99 -19q-50 0 -94.5 19t-78 51.5t-53 76t-19.5 92.5zM82 1263q17 93 69 160t125.5 110.5t162 64t179.5 20.5q109 0 206.5 -29t171 -86t116.5 -142.5t43 -198.5v-1162h-114v1162q0 90 -35 155.5t-94 108.5t-135.5 64
t-158.5 21q-69 0 -137.5 -13.5t-126 -43t-100 -77t-59.5 -114.5h-113z" />
    <glyph glyph-name="saraithai" unicode="&#xe34;" 
d="M-1607 1901l58 106h1336v-106h-1394z" />
    <glyph glyph-name="saraiithai" unicode="&#xe35;" 
d="M-1549 2007h1222v241h114v-347h-1394z" />
    <glyph glyph-name="sarauethai" unicode="&#xe36;" 
d="M-492 2101q0 -20 8 -37.5t22 -30t31.5 -19.5t37.5 -7q19 0 37 7t31.5 19.5t22 30t8.5 37.5q0 21 -8.5 39t-22 31.5t-31.5 21t-37 7.5q-20 0 -37.5 -7.5t-31.5 -21t-22 -31.5t-8 -39zM-598 2101q0 43 16.5 80t44.5 65t65.5 44t78.5 16t77.5 -16t63.5 -44t43 -65t16 -80
q0 -42 -16 -78.5t-43 -63.5t-63.5 -42.5t-77.5 -15.5h-1214l58 106h981q-12 20 -21 44t-9 50z" />
    <glyph glyph-name="saraueethai" unicode="&#xe37;" 
d="M-1549 2007h829v241h113v-241h280v241h114v-347h-1394z" />
    <glyph glyph-name="sarauthai" unicode="&#xe38;" 
d="M-327 -700v368h-225v110h339v-478h-114z" />
    <glyph glyph-name="sarauuthai" unicode="&#xe39;" 
d="M-1110 -229h286v-158q0 -54 21 -95t55.5 -68.5t78.5 -42t91 -14.5q54 0 100 13.5t79.5 41t52.5 69t19 96.5v158h114v-158q0 -62 -21 -120t-65.5 -103t-113.5 -72t-165 -27q-80 0 -146 24t-113.5 67t-74 102t-26.5 129v56h-172v102z" />
    <glyph glyph-name="phinthuthai" unicode="&#xe3a;" 
d="M-380 -324q0 21 8 40t22 33.5t33.5 23.5t42.5 9q19 0 37 -9t32.5 -23.5t23 -33.5t8.5 -40t-8.5 -40t-23 -33.5t-32.5 -23.5t-37 -9q-23 0 -42.5 9t-33.5 23.5t-22 33.5t-8 40z" />
    <glyph glyph-name="PUCR2005" unicode="&#xe3e;" 
 />
    <glyph glyph-name="bahtthai" unicode="&#xe3f;" horiz-adv-x="2036" 
d="M291 1887h627v227h122v-227h164q269 0 409 -114.5t140 -341.5q0 -57 -11 -116t-39 -115t-76 -107.5t-121 -94.5q88 -27 150 -75.5t102 -112.5t58.5 -140.5t18.5 -160.5q0 -64 -14.5 -126.5t-44.5 -119t-75.5 -104.5t-107.5 -83.5t-140.5 -55.5t-174.5 -20h-238v-283h-122
v283h-627v1887zM1278 111q110 0 192.5 33t137 88.5t82 127t27.5 149.5q0 91 -27.5 168.5t-85.5 134.5t-148 89.5t-215 32.5h-201v-823h238zM413 111h505v823h-505v-823zM1237 1045q95 0 168.5 29.5t123.5 82t76 124t26 154.5q0 91 -30.5 156t-86.5 106t-135.5 60.5
t-178.5 19.5h-160v-732h197zM413 1045h505v732h-505v-732z" />
    <glyph glyph-name="saraethai" unicode="&#xe40;" horiz-adv-x="545" 
d="M213 -1v1586h114v-1586h-114z" />
    <glyph glyph-name="saraaethai" unicode="&#xe41;" horiz-adv-x="1032" 
d="M213 -1v1586h114v-1586h-114zM705 -1v1586h114v-1586h-114z" />
    <glyph glyph-name="saraothai" unicode="&#xe42;" horiz-adv-x="807" 
d="M345 1835q0 61 -22 111t-59.5 89t-86.5 68t-102 47l21 86h726l64 -109h-556q62 -54 97 -126t35 -166v-1725h238v-110h-355v1835z" />
    <glyph glyph-name="saraaimaimuanthai" unicode="&#xe43;" horiz-adv-x="807" 
d="M462 110h238v-110h-355v1491q0 48 15.5 91.5t39.5 83.5t54.5 76.5t60.5 69.5q24 27 47.5 53.5t41.5 53.5t29 54t11 55q0 34 -18 63.5t-52 51t-83 33.5t-110 12q-46 0 -91 -10.5t-83 -32.5t-66 -57t-40 -84h-115q21 76 61.5 131t93 90.5t114 52t126.5 16.5t132 -15
t121 -47t88.5 -82.5t34.5 -121.5q0 -44 -13 -81.5t-34.5 -71.5t-48.5 -65t-55 -61q-27 -29 -53 -58.5t-46 -61t-32.5 -65.5t-12.5 -73v-1381z" />
    <glyph glyph-name="saraaimaimalaithai" unicode="&#xe44;" horiz-adv-x="807" 
d="M462 110h238v-110h-355v1835q0 94 35 166t97 126h-556l64 109h726l21 -86q-53 -19 -102 -47.5t-86.5 -68t-59.5 -89t-22 -110.5v-1725z" />
    <glyph glyph-name="lakkhangyaothai" unicode="&#xe45;" horiz-adv-x="1368" 
d="M82 1254q17 95 69 164t125.5 113.5t162 65.5t179.5 21q109 0 206.5 -29.5t171 -88.5t116.5 -146.5t43 -202.5v-1626h-114v1626q0 92 -35 159t-94 111t-135.5 65.5t-158.5 21.5q-69 0 -137.5 -13.5t-126 -44t-100 -79t-59.5 -117.5h-113z" />
    <glyph glyph-name="maiyamokthai" unicode="&#xe46;" horiz-adv-x="1589" 
d="M286 1139q0 -66 19 -117.5t53.5 -87.5t83 -55t106.5 -19v-115q-60 2 -126 21.5t-121.5 64.5t-91.5 119.5t-36 188.5q0 76 22 149.5t69.5 135.5t122.5 109.5t180 70.5l215 -203l202 202q127 -18 204 -63t119 -111.5t55.5 -152.5t13.5 -186v-1565h-114v1569
q0 66 -7.5 129.5t-33 117t-75 92.5t-132.5 57q-55 -55 -115.5 -115t-115.5 -115l-247 226q-66 -18 -113.5 -54.5t-77.5 -83.5t-44.5 -101t-14.5 -108z" />
    <glyph glyph-name="maitaikhuthai" unicode="&#xe47;" 
d="M-1348 2187q0 -29 11 -62.5t34.5 -61.5t61 -46.5t90.5 -18.5q34 0 65 12.5t57.5 33.5t46 49.5t30.5 60.5h90q9 -34 26.5 -62.5t41.5 -49.5t53.5 -32.5t64.5 -11.5q33 0 61 11.5t50.5 32.5t38 49.5t23.5 62.5h114q-12 -62 -40 -110t-66 -82t-83.5 -51.5t-93.5 -17.5
q-33 0 -66 8t-63.5 23.5t-57 38.5t-47.5 53q-45 -66 -111 -94.5t-138 -28.5q-57 0 -111.5 20t-97 57.5t-68.5 91t-26 121.5q0 79 32 136.5t83.5 94.5t116.5 54.5t132 17.5h803v-106h-803q-69 0 -117.5 -17.5t-79 -45.5t-44 -62t-13.5 -68z" />
    <glyph glyph-name="maiekthai" unicode="&#xe48;" 
d="M-327 3039h114v-466h-114v466z" />
    <glyph glyph-name="maithothai" unicode="&#xe49;" 
d="M-725 2573v233h-237v106h347v-234q111 1 199 13.5t152.5 39.5t105 70t57.5 103h118q-18 -72 -59.5 -132.5t-113 -104.5t-176 -69t-246.5 -25h-147z" />
    <glyph glyph-name="maitrithai" unicode="&#xe4a;" 
d="M-536 2573q-6 35 -17 66.5t-27 55t-36.5 37t-45.5 13.5q-30 0 -54 -13.5t-42 -37t-29.5 -55t-17.5 -66.5h-111q9 59 31 110t55 88t75.5 58t92.5 21q22 0 46 -5.5t46.5 -18t43 -32t36.5 -47.5q16 24 37 43t44 32.5t46.5 20.5t44.5 7q39 0 73.5 -13.5t63.5 -37t51.5 -55
t37.5 -68.5q30 6 58 24t52 45t42.5 60.5t28.5 69.5h115q-16 -50 -43 -101t-64 -93.5t-83.5 -72t-100.5 -35.5h-84q-6 35 -19.5 66.5t-32.5 55t-43 37t-52 13.5q-25 0 -45.5 -13.5t-36.5 -37t-27.5 -55t-17.5 -66.5h-91z" />
    <glyph glyph-name="maichattawathai" unicode="&#xe4b;" 
d="M-213 2761v-188h-110v188h-234v106h234v188h110v-188h237v-106h-237z" />
    <glyph glyph-name="thanthakhatthai" unicode="&#xe4c;" 
d="M-103 2567q-126 -16 -208.5 -69.5t-107.5 -150.5h-114q14 64 50 120t91 98.5t127.5 70.5t161.5 36v-105z" />
    <glyph glyph-name="nikhahitthai" unicode="&#xe4d;" 
d="M-418 2107q0 -27 11 -52t30 -44t44.5 -30t53.5 -11q30 0 55.5 11t44.5 30t29.5 44t10.5 52q0 29 -10.5 54t-29.5 43.5t-44.5 29t-55.5 10.5q-28 0 -53.5 -10.5t-44.5 -29t-30 -43.5t-11 -54zM-524 2107q0 52 19.5 96t53 76t78 49.5t94.5 17.5q54 0 99 -17.5t78 -49.5
t51 -76t18 -96q0 -49 -18 -92.5t-51 -76t-78 -51.5t-99 -19q-50 0 -94.5 19t-78 51.5t-53 76t-19.5 92.5z" />
    <glyph glyph-name="yamakkanthai" unicode="&#xe4e;" 
d="M-41 2363q-51 -8 -87 -28.5t-58.5 -50.5t-34 -69t-14.5 -84q-50 -2 -91.5 -11t-74 -28.5t-53.5 -51.5t-29 -78h-115q10 48 29.5 92.5t51 79.5t77.5 59.5t111 32.5q8 47 28.5 87t55.5 71t85.5 52.5t118.5 31.5v-105z" />
    <glyph glyph-name="fongmanthai" unicode="&#xe4f;" horiz-adv-x="1966" 
d="M476 795q0 67 18.5 130.5t52.5 119.5t81 102.5t103.5 80t121.5 52t134 18.5q102 0 193.5 -41t160.5 -110t109 -160t40 -192q0 -106 -40 -198.5t-109 -161.5t-160.5 -108.5t-193.5 -39.5q-104 0 -197 39.5t-162.5 108.5t-110.5 161.5t-41 198.5zM598 795
q0 -79 30.5 -149.5t83.5 -123t124 -83t151 -30.5q79 0 148.5 30.5t121.5 83t82 123t30 149.5q0 77 -30 146.5t-82 121.5t-121.5 82.5t-148.5 30.5q-80 0 -151 -30.5t-124 -82.5t-83.5 -121.5t-30.5 -146.5zM173 795q0 112 29 216t82 194.5t127.5 165t165 127.5t194.5 82
t216 29t216 -29t194.5 -82t165 -127.5t128 -165t82.5 -194.5t29 -216t-29 -216.5t-82.5 -195t-128 -165t-165 -127.5t-194.5 -82t-216 -29t-216 29t-194.5 82t-165 127.5t-127.5 165t-82 194.5t-29 217zM290 795q0 -97 25 -186t70 -166.5t108.5 -141t141 -108.5t166.5 -70
t186 -25q96 0 185.5 25t167 70t141 108.5t108.5 141t70 166.5t25 186t-25 186t-70 166t-108.5 140.5t-141 109t-167 70t-185.5 24.5q-97 0 -186 -24.5t-166.5 -70t-141 -109t-108.5 -140.5t-70 -166.5t-25 -185.5z" />
    <glyph glyph-name="zerothai" unicode="&#xe50;" horiz-adv-x="1991" 
d="M995 -22q-133 0 -244.5 28t-201 76.5t-157 113t-113 137.5t-68 150.5t-22.5 151.5q0 82 22.5 163.5t68 155.5t113 137t157 109.5t201 73t244.5 26.5q202 0 353 -57t252 -150.5t151.5 -213t50.5 -244.5q0 -82 -22.5 -163t-67 -154t-112 -135t-157 -107.5t-202 -71.5
t-246.5 -26zM1680 635q0 97 -28 176.5t-76.5 141.5t-114.5 107.5t-142 75t-159 44t-165 14.5t-165 -14.5t-159 -45t-141.5 -76.5t-114 -108.5t-76.5 -142t-28 -176.5q0 -74 24.5 -143.5t69.5 -130.5t107.5 -111t138.5 -86t163 -56t181 -20q142 0 266.5 38.5t217.5 109.5
t147 173t54 230z" />
    <glyph glyph-name="onethai" unicode="&#xe51;" horiz-adv-x="1970" 
d="M913 -18q-79 0 -167.5 3.5t-182 18.5t-188 45t-185.5 84l87 88q62 -44 141 -70t164 -40t170.5 -18.5t160.5 -4.5q90 0 178.5 17t168.5 51t148.5 83.5t119 115t79 145.5t28.5 175q0 132 -50 229.5t-138.5 162t-210.5 96t-265 31.5q-133 0 -246 -21.5t-196 -65.5t-130 -111
t-47 -157q0 -66 37.5 -117.5t103 -86.5t154.5 -53.5t193 -18.5h40v-103h-40q-127 0 -237 25.5t-191 74t-127.5 119t-46.5 160.5q0 84 29.5 151.5t81 118.5t121.5 87.5t151.5 59.5t170.5 33.5t179 10.5q108 0 208 -15.5t187 -48.5t158.5 -83t122 -119t78.5 -157.5t28 -197.5
q0 -156 -62 -284t-173.5 -220t-266 -142.5t-338.5 -50.5z" />
    <glyph glyph-name="twothai" unicode="&#xe52;" horiz-adv-x="2302" 
d="M287 1173q0 85 -30 138t-87 78l24 116q37 -18 74 -45.5t66.5 -67t48 -93.5t18.5 -126v-639q0 -104 59 -186.5t165 -141t253 -89.5t322 -31q174 0 314 28.5t238.5 85t152 140t53.5 194.5v379q0 45 -16 81.5t-42.5 66t-61 52t-72.5 38.5t-76 27t-71 17l-218 -174l-229 175
q-44 -8 -98 -28t-100.5 -53.5t-78 -81.5t-31.5 -112v-116q0 -61 11 -112.5t39 -88.5t76.5 -57.5t123.5 -20.5v-112q-80 3 -138.5 20.5t-99 46t-65.5 65.5t-38.5 78.5t-18 86t-4.5 87.5v119q0 82 38.5 148.5t102 116t144.5 81.5t166 46l199 -155l195 155q85 -8 170.5 -39
t154.5 -81.5t112.5 -119t43.5 -152.5v-383q0 -102 -32.5 -182.5t-88.5 -141.5t-131 -104t-159 -70t-173 -39.5t-173 -12.5h-217q-172 0 -320.5 37t-258.5 107.5t-173 172.5t-63 233v639z" />
    <glyph glyph-name="threethai" unicode="&#xe53;" horiz-adv-x="2028" 
d="M344 531q0 -107 17 -189.5t55 -138.5t99 -85t150 -29q13 0 35.5 1t36.5 2v-101q-29 -4 -51 -5t-41 -1q-119 0 -199 43t-128 117t-68 172.5t-20 209.5v215q0 135 40.5 234.5t111 167.5t164 107t200.5 55l266 -200l298 200q110 -14 200 -56.5t154 -105t99 -141t35 -164.5
v-839h-114v839q0 76 -33 137.5t-84 106.5t-112.5 72.5t-118.5 37.5l-325 -223l-296 223q-39 -7 -82 -20.5t-84 -36t-78.5 -56.5t-65.5 -81.5t-44.5 -111t-16.5 -145.5v-211z" />
    <glyph glyph-name="fourthai" unicode="&#xe54;" horiz-adv-x="1942" 
d="M885 1176q-125 0 -225 -23.5t-170 -73.5t-108 -128.5t-38 -188.5v-256q0 -93 30 -167t86.5 -125.5t137.5 -79t184 -27.5h370q-57 37 -95.5 79t-62 84t-33.5 82.5t-10 74.5q0 42 11.5 85t42.5 81.5t83.5 68t135.5 43.5v-108q-54 -9 -85.5 -28.5t-48 -44t-21.5 -50.5
t-5 -47q0 -42 17.5 -82.5t46 -76t65 -65t76 -51t78 -33.5t70.5 -12h422v-107h-1057q-108 0 -191 22t-144.5 60t-103 88.5t-66.5 106.5t-36 115t-11 114v256q0 133 47.5 231.5t134 163t207 96t266.5 31.5h561q128 0 201.5 55.5t88.5 151.5h110q-7 -54 -32 -110t-73 -101.5
t-120.5 -74.5t-174.5 -29h-561z" />
    <glyph glyph-name="fivethai" unicode="&#xe55;" horiz-adv-x="1942" 
d="M885 1178q-125 0 -225 -23.5t-170 -74t-108 -129t-38 -188.5v-255q0 -93 30 -167.5t86.5 -126t137.5 -79t184 -27.5h370q-57 37 -95.5 79t-62 84t-33.5 82.5t-10 74.5q0 42 11.5 85t42.5 81.5t83.5 68t135.5 43.5v-108q-54 -9 -85.5 -28.5t-48 -44t-21.5 -50.5t-5 -47
q0 -42 17.5 -82.5t46 -76t65 -65t76 -51t78 -33.5t70.5 -12h422v-107h-1057q-108 0 -191 22.5t-144.5 60.5t-103 88t-66.5 106.5t-36 115.5t-11 114v255q0 133 47 230.5t132.5 162t205 96.5t264.5 33q-13 22 -20 46.5t-7 53.5q0 44 16 82.5t44.5 67t67.5 45t85 16.5
t85.5 -16.5t68.5 -45t46 -67t17 -82.5q0 -27 -7.5 -53t-19.5 -47h191q128 0 201.5 55.5t88.5 151.5h110q-7 -54 -32 -110t-73 -101.5t-120.5 -74t-174.5 -28.5h-561zM958 1385q0 -45 30 -74.5t77 -29.5q24 0 44 8t35 21.5t23.5 32.5t8.5 42q0 47 -31.5 77.5t-79.5 30.5
q-47 0 -77 -30.5t-30 -77.5z" />
    <glyph glyph-name="sixthai" unicode="&#xe56;" horiz-adv-x="2081" 
d="M426 1145q55 27 125 54.5t154.5 50.5t183 37.5t209.5 14.5q180 0 321 -48.5t237.5 -136.5t147.5 -210.5t51 -270.5q0 -145 -60 -265t-166.5 -206.5t-253.5 -134t-322 -47.5q-140 0 -262 25.5t-213.5 76.5t-144 127t-52.5 177q0 75 28.5 133.5t79.5 98.5t122 61t155 21h40
v-107h-36q-130 -3 -202.5 -54.5t-72.5 -152.5q0 -72 46 -127.5t123 -94t178 -58.5t211 -20q85 0 169.5 15.5t161 46.5t142 77t113.5 106t75 134.5t27 163.5q0 101 -25.5 182.5t-70 144t-105.5 107.5t-132.5 73.5t-150.5 42t-159 13.5q-102 0 -199.5 -15t-189 -41.5t-175 -62
t-156.5 -75.5l-192 324l100 59z" />
    <glyph glyph-name="seventhai" unicode="&#xe57;" horiz-adv-x="2413" 
d="M2044 1156q0 149 50.5 236.5t152.5 122.5l39 -89q-32 -16 -56 -36t-40 -51t-24 -75t-8 -108v-554q0 -122 -44.5 -225.5t-125 -183.5t-193.5 -134.5t-251 -79.5l-81 54q37 57 62.5 108.5t40.5 101.5t21.5 101.5t6.5 109.5v315q0 103 -26.5 177.5t-70 125.5t-100 82
t-116.5 49l-306 -207l-294 207q-61 -19 -121.5 -51.5t-108.5 -85t-77.5 -127t-29.5 -177.5v-276q0 -39 3 -83.5t13 -88.5t28.5 -85t49 -72t74.5 -49.5t106 -18.5q10 0 30 1t31 1v-97q-24 -2 -45 -4t-35 -2q-106 0 -177 41.5t-113.5 110t-60.5 157.5t-18 185v280
q0 118 37 211t101.5 162t151 113.5t184.5 65.5l270 -189l283 189q115 -21 200 -70t140.5 -120t83 -161t27.5 -194v-315q0 -109 -19.5 -194t-62.5 -162q198 70 308 196t110 308v554z" />
    <glyph glyph-name="eightthai" unicode="&#xe58;" horiz-adv-x="2023" 
d="M852 1176q-129 0 -225.5 -31.5t-161.5 -88t-97.5 -136t-32.5 -175.5v-295q0 -75 33.5 -135t87 -104.5t121 -73.5t135.5 -42l308 228l313 -232q69 5 134 22.5t116 53.5t82 93t31 142q0 52 -11.5 94t-37 70.5t-66 44t-98.5 15.5h-41v103h41q93 0 155 -27.5t99.5 -73
t53 -104.5t15.5 -122q0 -101 -36 -177t-102 -127.5t-159 -79t-208 -30.5l-281 203l-273 -204q-102 9 -196.5 45t-167.5 95.5t-117 141t-44 181.5v295q0 121 43.5 220.5t125.5 170t198.5 109t262.5 38.5h618q65 0 114.5 15.5t84.5 43.5t55.5 66t26.5 83h116
q-10 -62 -37.5 -119t-75.5 -100.5t-118 -69.5t-166 -26h-618z" />
    <glyph glyph-name="ninethai" unicode="&#xe59;" horiz-adv-x="2044" 
d="M1602 1283q51 0 90.5 13.5t68 38.5t44.5 59t19 76h115q-5 -54 -25 -106t-59.5 -93t-101 -66t-151.5 -25h-91q-23 0 -31 -1t-16 -9l-175 -174q53 -121 109 -246.5t112 -252t111.5 -252t108.5 -246.5h-121l-423 962q-19 42 -44 81.5t-58 70t-75 49t-96 18.5h-196
q-75 0 -144 -16.5t-122 -66t-84.5 -141.5t-31.5 -243v-215q0 -96 18 -174t55.5 -133t96 -85t139.5 -30q21 0 50 3t67 11l16 -90q-48 -11 -87 -16t-71 -5q-109 0 -184.5 43t-123 115t-68.5 165.5t-21 195.5v215q0 149 32 256.5t94 177.5t154.5 103t214.5 33h196
q33 0 74.5 -7.5t85.5 -28t88 -57t81 -94.5l153 149q22 22 44 30t60 8h103z" />
    <glyph glyph-name="angkhankhuthai" unicode="&#xe5a;" horiz-adv-x="2294" 
d="M1381 0v1014q-66 -75 -141 -124.5t-150.5 -78.5t-146.5 -40.5t-128 -11.5q-138 0 -250.5 34t-192.5 94.5t-123.5 143.5t-43.5 180q0 103 40 174t103 115.5t140 64.5t151 20h196v-106h-196q-57 0 -114 -14t-102.5 -46t-74.5 -83t-29 -125q0 -66 31 -128t93 -110t155 -77.5
t217 -29.5q70 0 139.5 15.5t132.5 44t116.5 68.5t93 89t62 105.5t22.5 117.5v279h114v-1585h-114zM1962 1585h114v-1585h-114v1585z" />
    <glyph glyph-name="khomutthai" unicode="&#xe5b;" horiz-adv-x="3592" 
d="M2925 906q-43 -50 -103.5 -127t-134.5 -182q-32 46 -66 94.5t-67 94t-64 87t-57 73.5q-57 -81 -130 -197.5t-152 -259.5q-72 117 -142.5 233t-144.5 235q-30 -210 -108.5 -374t-194.5 -277t-264.5 -172.5t-317.5 -59.5q-180 0 -321 59.5t-237.5 161.5t-147.5 237t-51 287
q0 138 46 264t134 222t214.5 153t288.5 57q118 0 209 -36.5t155.5 -100.5t102.5 -151.5t52 -189.5h-118q-31 179 -132 271.5t-269 92.5q-113 0 -214.5 -39t-178.5 -114t-122.5 -183t-45.5 -246q0 -144 49.5 -261t135.5 -199t203 -126.5t251 -44.5q126 0 232 36t191 100.5
t150 153.5t109 194t68.5 222t28.5 239l87 58q35 -52 73.5 -112t76.5 -122t75.5 -125t71.5 -121q78 130 152 236t135 184q65 -86 127 -173t131 -176q42 54 86 110t98 119h469l74 -105h-493z" />
    <glyph glyph-name="ZWSP" unicode="&#x200b;" 
 />
    <glyph glyph-name="endash" unicode="&#x2013;" horiz-adv-x="1466" 
d="M54 794h1359v-114h-1359v114z" />
    <glyph glyph-name="emdash" unicode="&#x2014;" horiz-adv-x="2789" 
d="M54 794h2682v-114h-2682v114z" />
    <glyph glyph-name="quoteleft" unicode="&#x2018;" horiz-adv-x="766" 
d="M483 1348h-200v163q0 59 6 107t26.5 87.5t60 71.5t107.5 59v-125q-32 -14 -49 -32.5t-25.5 -41t-10 -49.5t-1.5 -57h86v-183z" />
    <glyph glyph-name="quoteright" unicode="&#x2019;" horiz-adv-x="766" 
d="M283 1836h200v-163q0 -59 -6 -107t-26.5 -87.5t-60.5 -71.5t-107 -59v125q31 14 48.5 32.5t26 41t10 49.5t1.5 57h-86v183z" />
    <glyph glyph-name="quotedblleft" unicode="&#x201c;" horiz-adv-x="1159" 
d="M461 1348h-200v163q0 59 6 107t26.5 87.5t60 71.5t107.5 59v-125q-32 -14 -49 -32.5t-25.5 -41t-10 -49.5t-1.5 -57h86v-183zM879 1347h-200v163q0 59 6 107t26.5 87.5t60 71.5t107.5 59v-125q-32 -14 -49 -32.5t-25.5 -41t-10 -49.5t-1.5 -57h86v-183z" />
    <glyph glyph-name="quotedblright" unicode="&#x201d;" horiz-adv-x="1159" 
d="M698 1835h200v-163q0 -59 -6 -107t-26.5 -87.5t-60.5 -71.5t-107 -59v125q31 14 48.5 32.5t26 41t10 49.5t1.5 57h-86v183zM280 1836h200v-163q0 -59 -6 -107t-26.5 -87.5t-60.5 -71.5t-107 -59v125q31 14 48.5 32.5t26 41t10 49.5t1.5 57h-86v183z" />
    <glyph glyph-name="bullet" unicode="&#x2022;" horiz-adv-x="1204" 
d="M193 946q0 84 32.5 158t88.5 128.5t131 86.5t161 32q84 0 158 -32t128.5 -86.5t86.5 -128.5t32 -158q0 -86 -32 -161t-86.5 -131t-128.5 -88.5t-158 -32.5q-86 0 -161 32.5t-131 88.5t-88.5 131t-32.5 161z" />
    <glyph glyph-name="Euro" unicode="&#x20ac;" horiz-adv-x="2167" 
d="M1896 1315q-25 117 -80 212t-143 162t-210.5 103.5t-282.5 36.5q-150 0 -278.5 -45.5t-228 -130.5t-167.5 -206.5t-97 -272.5h795v-112h-809l-4 -221h813v-106h-799q26 -145 88 -268t158 -212.5t226 -140t294 -50.5q123 0 235.5 32t207.5 99.5t168 171t116 246.5h123
q-36 -134 -107.5 -255t-178 -212t-247.5 -144.5t-317 -53.5q-96 0 -193.5 18.5t-189.5 57.5t-175 101.5t-150 149.5t-114 201.5t-68 258.5h-244v106h232l4 221h-236v112h249q28 168 100 308.5t185.5 242.5t266.5 159t342 57q91 0 182 -12t176 -40t161.5 -74.5t139.5 -116
t109.5 -164.5t71.5 -219h-124z" />
    <glyph glyph-name="trademark" unicode="&#x2122;" horiz-adv-x="2486" 
d="M459 1795h-327v103h769v-103h-328v-867h-114v867zM2110 1736q-105 -201 -210 -404t-209 -404h-70l-409 806v-806h-114v970h156l405 -802q103 199 207 400.5t207 401.5h151v-970h-114v808z" />
    <glyph glyph-name="uni25CC" unicode="&#x25cc;" horiz-adv-x="1774" 
d="M541 430l61 152q22 -34 47 -59.5t56 -47.5zM885 1233l69 -148q-37 7 -76 5t-67 -9zM885 287l-70 143q37 -9 66.5 -8.5t72.5 12.5zM1360 758l-148 -66q13 34 13.5 68t-8.5 71zM414 762l151 74q-6 -34 -7.5 -72.5t7.5 -75.5zM569 1094l156 -54q-40 -18 -70 -42t-49 -52z
M1208 426l-143 45q31 22 55.5 44.5t42.5 53.5zM1233 1094l-70 -152q-18 31 -46 57.5t-56 44.5z" />
    <glyph glyph-name="thothannobasethai" unicode="&#xf700;" horiz-adv-x="1683" 
d="M1499 1099q0 -83 -41.5 -198.5t-112 -256.5t-163.5 -304t-196 -340h-172l-356 748h-238v111h317l365 -768h5q46 78 99 168t105.5 184t101 188.5t86 180.5t60 160t22.5 127q0 74 -22.5 133t-61.5 104.5t-91.5 78t-112.5 53t-125 30t-128 9.5q-72 0 -152.5 -12.5
t-157.5 -43t-145 -81.5t-116 -127h-130q46 89 118.5 158t163.5 116.5t197.5 72t221.5 24.5q44 0 95.5 -5t105 -16.5t107 -30t102.5 -45.5q30 12 58.5 31t53 45.5t43.5 58.5t30 70h127q-11 -40 -30.5 -79.5t-47 -75t-62 -65t-74.5 -48.5q34 -30 62.5 -66.5t48.5 -80.5
t30.5 -96t9.5 -112z" />
    <glyph glyph-name="saraileftthai" unicode="&#xf701;" 
d="M-1721 2007h1135v-106h-1193z" />
    <glyph glyph-name="saraiileftthai" unicode="&#xf702;" 
d="M-1721 2007h1021v241h114v-347h-1193z" />
    <glyph glyph-name="saraueleftthai" unicode="&#xf703;" 
d="M-861 2101q0 -20 8.5 -37.5t22 -30t31.5 -19.5t37 -7t37 7t32 19.5t22 30t8 37.5q0 21 -8 39t-22 31.5t-32 21t-37 7.5t-37 -7.5t-31.5 -21t-22 -31.5t-8.5 -39zM-966 2101q0 43 16.5 80t44.5 65t65 44t78 16t77.5 -16t63.5 -44t43 -65t16 -80q0 -42 -16 -78.5t-43 -63.5
t-63.5 -42.5t-77.5 -15.5h-1017l58 106h778q-11 20 -17 44t-6 50z" />
    <glyph glyph-name="saraueeleftthai" unicode="&#xf704;" 
d="M-1721 2007h628v241h114v-241h279v241h114v-347h-1193z" />
    <glyph glyph-name="maieklowleftthai" unicode="&#xf705;" 
d="M-946 2347h114v-499h-114v499z" />
    <glyph glyph-name="maitholowleftthai" unicode="&#xf706;" 
d="M-1417 1909v250h-278v106h388v-250q111 1 200.5 13.5t156.5 39.5t109.5 69.5t59.5 102.5h118q-18 -72 -59.5 -132.5t-113 -104.5t-175.5 -69t-246 -25h-160z" />
    <glyph glyph-name="maitrilowleftthai" unicode="&#xf707;" 
d="M-1238 1909q-6 35 -17 66.5t-27 55t-36.5 37t-45.5 13.5q-29 0 -52.5 -13.5t-41.5 -37t-30.5 -55t-18.5 -66.5h-109q9 59 31.5 110t56 88.5t75.5 58.5t89 21q22 0 46 -5.5t46.5 -18t43 -32t36.5 -47.5q16 24 37 43t44.5 32.5t46.5 20.5t44 7q37 0 71.5 -13.5t63.5 -37
t52.5 -55.5t38.5 -68q30 6 58 24t52 44.5t42.5 60t28.5 69.5h116q-16 -50 -43.5 -101t-64.5 -93.5t-83.5 -71.5t-100.5 -36h-84q-6 35 -18.5 66.5t-31.5 55t-43 37t-54 13.5q-25 0 -45.5 -13.5t-36.5 -37t-27 -55t-17 -66.5h-92z" />
    <glyph glyph-name="maichattawalowleftthai" unicode="&#xf708;" 
d="M-881 2098v-189h-110v189h-233v105h233v189h110v-189h237v-105h-237z" />
    <glyph glyph-name="thanthakhatlowleftthai" unicode="&#xf709;" 
d="M-648 2140q-66 -5 -122.5 -24t-101 -49t-75 -70t-42.5 -88h-109q14 63 52 121t96 104t134 75.5t168 36.5v-106z" />
    <glyph glyph-name="maieklowrightthai" unicode="&#xf70a;" 
d="M-327 2387h114v-498h-114v498z" />
    <glyph glyph-name="maitholowrightthai" unicode="&#xf70b;" 
d="M-774 1909v250h-278v106h388v-250q111 1 200.5 13.5t156.5 39.5t109.5 69.5t59.5 102.5h118q-18 -72 -59.5 -132.5t-113 -104.5t-175.5 -69t-246 -25h-160z" />
    <glyph glyph-name="maitrilowrightthai" unicode="&#xf70c;" 
d="M-812 1909q-6 35 -17 66.5t-27 55t-36.5 37t-45.5 13.5q-29 0 -52.5 -13.5t-41.5 -37t-30.5 -55t-18.5 -66.5h-109q9 59 31.5 110t56 88.5t75.5 58.5t89 21q22 0 46 -5.5t46.5 -18t43 -32t36.5 -47.5q16 24 37 43t44.5 32.5t46.5 20.5t44 7q37 0 71.5 -13.5t63.5 -37
t52.5 -55.5t38.5 -68q30 6 58 24t52 44.5t42.5 60t28.5 69.5h116q-16 -50 -43.5 -101t-64.5 -93.5t-83.5 -71.5t-100.5 -36h-83q-8 35 -21 66.5t-31.5 55t-42 37t-53.5 13.5q-25 0 -45.5 -13.5t-36.5 -37t-27 -55t-17 -66.5h-92z" />
    <glyph glyph-name="maichattawalowrightthai" unicode="&#xf70d;" 
d="M-213 2098v-189h-110v189h-234v105h234v189h110v-189h237v-105h-237z" />
    <glyph glyph-name="thanthakhatlowrightthai" unicode="&#xf70e;" 
d="M-82 2140q-66 -5 -123 -24t-101.5 -49t-74.5 -70t-42 -88h-110q14 63 52 121t96 104t134.5 75.5t168.5 36.5v-106z" />
    <glyph glyph-name="yoyingnobasethai" unicode="&#xf70f;" horiz-adv-x="2675" 
d="M1490 423q0 -89 31.5 -154t89 -107t137.5 -62.5t177 -20.5q90 0 167 20.5t133.5 63t89 108t32.5 156.5v1159h114v-1159q0 -133 -48.5 -221t-126 -140t-173.5 -73.5t-192 -21.5q-68 0 -134.5 9t-127 30t-112.5 55.5t-89.5 84.5t-59 117.5t-21.5 155.5v624
q0 122 -37.5 209.5t-106 144t-164.5 83t-213 26.5q-73 0 -152 -13t-154.5 -45t-143.5 -87t-119 -139q25 -26 48.5 -62.5t41.5 -80.5t29 -94t11 -102v-780h262v-107h-375v887q0 54 -13 103t-35 90.5t-49.5 75.5t-55.5 59q47 87 114.5 161t155.5 128t197 84t238 30
q133 0 249 -30.5t201.5 -98.5t134.5 -176.5t49 -265.5v-624z" />
    <glyph glyph-name="maihanakatleftthai" unicode="&#xf710;" 
d="M-1044 1897v347h114v-237h1040v-110h-1154z" />
    <glyph glyph-name="nikhahitleftthai" unicode="&#xf711;" 
d="M-1033 2130q0 -28 11.5 -53.5t30.5 -44.5t44.5 -30.5t53.5 -11.5q30 0 55.5 11.5t44 30.5t29.5 44.5t11 53.5q0 30 -11 55.5t-29.5 44t-44 29.5t-55.5 11q-28 0 -53.5 -11t-44.5 -29.5t-30.5 -44t-11.5 -55.5zM-1138 2130q0 54 19.5 99t53 77.5t78 50.5t94.5 18
q54 0 99 -18t77.5 -50.5t50.5 -77.5t18 -99q0 -50 -18 -94.5t-50.5 -78t-77.5 -53t-99 -19.5q-50 0 -94.5 19.5t-78 53t-53 78t-19.5 94.5z" />
    <glyph glyph-name="maitaikhuleftthai" unicode="&#xf712;" 
d="M-1479 2187q0 -29 11 -61.5t34.5 -60t61 -45.5t90.5 -18q34 0 65 11.5t57.5 32t46 48.5t30.5 60h90q19 -68 68 -110t118 -42q66 0 111.5 42t61.5 110h114q-12 -62 -40 -110t-66 -82t-83.5 -51.5t-93.5 -17.5q-33 0 -66 8t-63.5 23.5t-57 38.5t-47.5 53
q-45 -66 -111 -94.5t-138 -28.5q-58 0 -112.5 20t-97 57.5t-68 91t-25.5 121.5q0 79 32 136.5t83.5 94.5t116.5 54.5t132 17.5h803v-106h-803q-69 0 -117.5 -17.5t-79 -45.5t-44 -62t-13.5 -68z" />
    <glyph glyph-name="maiekupperleftthai" unicode="&#xf713;" 
d="M-700 3039h114v-466h-114v466z" />
    <glyph glyph-name="maithoupperleftthai" unicode="&#xf714;" 
d="M-1077 2573v233h-237v106h347v-234q110 1 198 13.5t152.5 39.5t105.5 70t58 103h118q-18 -72 -59.5 -132.5t-113 -104.5t-176 -69t-246.5 -25h-147z" />
    <glyph glyph-name="maitriupperleftthai" unicode="&#xf715;" 
d="M-894 2573q-6 35 -17 66.5t-27 55t-36.5 37t-45.5 13.5q-29 0 -52.5 -13.5t-41.5 -37t-30.5 -55t-18.5 -66.5h-109q9 59 31.5 110t56 88t75.5 58t89 21q45 0 92.5 -23t79.5 -80q16 24 37 43t44.5 32.5t46.5 20.5t44 7q37 0 71.5 -13.5t63.5 -37t52.5 -55t38.5 -68.5
q30 6 58 24t52 45t42.5 60.5t28.5 69.5h116q-16 -50 -43.5 -101t-64.5 -93.5t-83 -72t-100 -35.5h-85q-6 35 -18.5 66.5t-31.5 55t-43 37t-54 13.5q-25 0 -45.5 -13.5t-36.5 -37t-27 -55t-17 -66.5h-92z" />
    <glyph glyph-name="maichattawaupperleftthai" unicode="&#xf716;" 
d="M-586 2761v-188h-110v188h-233v106h233v188h110v-188h237v-106h-237z" />
    <glyph glyph-name="thanthakhatupperleftthai" unicode="&#xf717;" 
d="M-357 2567q-126 -16 -208.5 -69.5t-107.5 -150.5h-114q14 64 50 120t91 98.5t127.5 70.5t161.5 36v-105z" />
    <glyph glyph-name="saraulowthai" unicode="&#xf718;" 
d="M-327 -1159v368h-225v110h339v-478h-114z" />
    <glyph glyph-name="sarauulowthai" unicode="&#xf719;" 
d="M-1110 -676h286v-158q0 -54 21 -95t55.5 -68.5t78.5 -42t91 -14.5q54 0 100 13.5t79.5 41t52.5 69t19 96.5v158h114v-158q0 -62 -21 -120t-65.5 -103t-113.5 -72t-165 -27q-80 0 -146 24t-113.5 67t-74 102t-26.5 129v56h-172v102z" />
    <glyph glyph-name="phinthulowthai" unicode="&#xf71a;" 
d="M-380 -743q0 21 8 40t22 33.5t33.5 23.5t42.5 9q19 0 37 -9t32.5 -23.5t23 -33.5t8.5 -40t-8.5 -40t-23 -33.5t-32.5 -23.5t-37 -9q-23 0 -42.5 9t-33.5 23.5t-22 33.5t-8 40z" />
    <glyph glyph-name="lochula.short" unicode="&#xf71d;" horiz-adv-x="2327" 
d="M1719 0h-132l-420 1437l-419 -1437h-136l-450 1585h115l403 -1448l419 1448h137l418 -1444l273 974q14 50 22.5 98t8.5 90q0 36 -9.5 67t-31 56.5t-57.5 44.5t-90 31v81q147 15 232.5 78.5t116.5 181.5h116q-15 -51 -33.5 -97.5t-48.5 -87t-75.5 -74.5t-113.5 -59
q55 -38 78 -98t23 -135q0 -45 -8.5 -95t-22.5 -99z" />
    <glyph glyph-name="rulakkhangyao" unicode="&#xf881;" horiz-adv-x="2757" 
d="M299 0v836q0 60 -13 111.5t-34 94.5t-48.5 77.5t-56.5 59.5q55 114 137.5 197t184 136.5t219.5 79.5t246 26q82 0 164.5 -13t158.5 -40t143 -69t120 -100q34 57 86.5 99t117 69.5t137 40.5t146.5 13q109 0 206 -29.5t170.5 -88.5t116.5 -146.5t43 -202.5v-1626h-114v1626
q0 92 -35 159t-93.5 111t-135 65.5t-158.5 21.5q-68 0 -134.5 -12.5t-123 -39.5t-98.5 -69.5t-61 -101.5q29 -59 46.5 -128t17.5 -153v-1479h-118v1479q0 130 -48 225t-130 157t-191.5 92t-232.5 30q-86 0 -180 -15.5t-182.5 -52t-164 -97.5t-124.5 -151q25 -24 48.5 -60.5
t41.5 -82.5t29 -100t11 -113v-726h262v-110h-376z" />
    <glyph glyph-name="lulakkhangyao" unicode="&#xf882;" horiz-adv-x="2863" 
d="M1761 -475h-114v1479q0 130 -48.5 225t-131.5 157t-193.5 92t-233.5 30q-85 0 -179 -15.5t-182.5 -52t-164 -97.5t-124.5 -151q24 -24 47.5 -61t42 -83t29.5 -100t11 -112v-836h-397v114h283v722q0 60 -13 112t-34.5 95t-49 77t-55.5 59q55 114 137.5 197t184 136.5
t219.5 79.5t245 26q82 0 164.5 -13t158.5 -40t143 -69t120 -100q34 57 86.5 99t117 69.5t137.5 40.5t147 13q108 0 205.5 -29.5t171 -88.5t116.5 -146.5t43 -202.5v-1626h-114v1626q0 92 -35 159t-93.5 111t-135 65.5t-158.5 21.5q-68 0 -135 -12.5t-123.5 -39.5
t-98.5 -69.5t-61 -101.5q29 -59 47 -128t18 -153v-1479z" />
    <glyph glyph-name="yamakkanleftthai" 
d="M-614 2363q-51 -8 -87 -28.5t-58.5 -50.5t-34 -69t-14.5 -84q-50 -2 -91.5 -11t-74 -28.5t-53.5 -51.5t-29 -78h-115q10 48 29.5 92.5t51 79.5t77.5 59.5t111 32.5q8 47 28.5 87t55.5 71t85.5 52.5t118.5 31.5v-105z" />
    <glyph glyph-name="saraamleft" horiz-adv-x="1368" 
d="M82 1263q17 93 69 160t125.5 110.5t162 64t179.5 20.5q109 0 206.5 -29t171 -86t116.5 -142.5t43 -198.5v-1162h-114v1162q0 90 -35 155.5t-94 108.5t-135.5 64t-158.5 21q-69 0 -137.5 -13.5t-126 -43t-100 -77t-59.5 -114.5h-113zM-1033 2130q0 -28 11.5 -53.5
t30.5 -44.5t44.5 -30.5t53.5 -11.5q30 0 55.5 11.5t44 30.5t29.5 44.5t11 53.5q0 30 -11 55.5t-29.5 44t-44 29.5t-55.5 11q-28 0 -53.5 -11t-44.5 -29.5t-30.5 -44t-11.5 -55.5zM-1138 2130q0 54 19.5 99t53 77.5t78 50.5t94.5 18q54 0 99 -18t77.5 -50.5t50.5 -77.5
t18 -99q0 -50 -18 -94.5t-50.5 -78t-77.5 -53t-99 -19.5q-50 0 -94.5 19.5t-78 53t-53 78t-19.5 94.5z" />
    <glyph glyph-name="uni0E33.alt1" horiz-adv-x="1368" 
d="M82 1263q17 93 69 160t125.5 110.5t162 64t179.5 20.5q109 0 206.5 -29t171 -86t116.5 -142.5t43 -198.5v-1162h-114v1162q0 90 -35 155.5t-94 108.5t-135.5 64t-158.5 21q-69 0 -137.5 -13.5t-126 -43t-100 -77t-59.5 -114.5h-113zM-1033 2130q0 -28 11.5 -53.5
t30.5 -44.5t44.5 -30.5t53.5 -11.5q30 0 55.5 11.5t44 30.5t29.5 44.5t11 53.5q0 30 -11 55.5t-29.5 44t-44 29.5t-55.5 11q-28 0 -53.5 -11t-44.5 -29.5t-30.5 -44t-11.5 -55.5zM-1138 2130q0 54 19.5 99t53 77.5t78 50.5t94.5 18q54 0 99 -18t77.5 -50.5t50.5 -77.5
t18 -99q0 -50 -18 -94.5t-50.5 -78t-77.5 -53t-99 -19.5q-50 0 -94.5 19.5t-78 53t-53 78t-19.5 94.5z" />
    <glyph glyph-name="saraithai.alt1" 
d="M-1443 1901l58 106h1172v-106h-1230z" />
    <glyph glyph-name="saraiithai.alt1" 
d="M-1385 2007h1058v241h114v-347h-1230z" />
    <glyph glyph-name="sarauethai.alt1" 
d="M-492 2101q0 -20 8 -37.5t22 -30t31.5 -19.5t37.5 -7q19 0 37 7t31.5 19.5t22 30t8.5 37.5q0 21 -8.5 39t-22 31.5t-31.5 21t-37 7.5q-20 0 -37.5 -7.5t-31.5 -21t-22 -31.5t-8 -39zM-598 2101q0 43 16.5 80t44.5 65t65.5 44t78.5 16t77.5 -16t63.5 -44t43 -65t16 -80
q0 -42 -16 -78.5t-43 -63.5t-63.5 -42.5t-77.5 -15.5h-1050l58 106h816q-12 20 -20.5 44t-8.5 50z" />
    <glyph glyph-name="saraueethai.alt1" 
d="M-1385 2007h665v241h113v-241h280v241h114v-347h-1230z" />
    <glyph glyph-name="saraithai.alt2" 
d="M-1926 2007h1504v-106h-1562z" />
    <glyph glyph-name="saraiithai.alt2" 
d="M-1926 2007h1390v241h114v-347h-1562z" />
    <glyph glyph-name="sarauethai.alt2" 
d="M-656 2101q0 -20 8.5 -37.5t22 -30t31.5 -19.5t37 -7t37 7t31.5 19.5t22 30t8.5 37.5q0 21 -8.5 39t-22 31.5t-31.5 21t-37 7.5t-37 -7.5t-31.5 -21t-22 -31.5t-8.5 -39zM-762 2101q0 43 16.5 80t44.5 65t65.5 44t78.5 16t77.5 -16t63.5 -44t43 -65t16 -80
q0 -42 -16 -78.5t-43 -63.5t-63.5 -42.5t-77.5 -15.5h-1427l58 106h1193q-12 20 -20.5 44t-8.5 50z" />
    <glyph glyph-name="saraueethai.alt2" 
d="M-1926 2007h997v241h113v-241h280v241h114v-347h-1562z" />
    <glyph glyph-name="maiekthai.alt2" 
d="M-536 3039h114v-466h-114v466z" />
    <glyph glyph-name="maithothai.alt2" 
d="M-909 2573v233h-237v106h347v-234q110 1 198 13.5t152.5 39.5t105.5 70t58 103h117q-17 -72 -58.5 -132.5t-113 -104.5t-176 -69t-246.5 -25h-147z" />
    <glyph glyph-name="maitrithai.alt2" 
d="M-730 2573q-6 35 -17 66.5t-27 55t-36.5 37t-45.5 13.5q-29 0 -52.5 -13.5t-41.5 -37t-30.5 -55t-18.5 -66.5h-109q9 59 31.5 110t56 88t75.5 58t89 21q22 0 46 -6t46.5 -18.5t43 -32.5t36.5 -48q29 52 76 78.5t96 26.5q37 0 71.5 -13.5t63.5 -37t52.5 -55t38.5 -68.5
q30 6 58 24t52 45t42.5 60.5t28.5 69.5h116q-16 -50 -43.5 -101t-64.5 -93.5t-83.5 -72t-100.5 -35.5h-84q-6 35 -19 66.5t-31.5 55t-43 37t-53.5 13.5q-25 0 -45.5 -13.5t-36.5 -37t-27 -55t-17 -66.5h-92z" />
    <glyph glyph-name="maichattawathai.alt2" 
d="M-422 2761v-188h-110v188h-233v106h233v188h110v-188h237v-106h-237z" />
    <glyph glyph-name="saraithai.alt3" 
d="M-2016 1901l57 106h1746v-106h-1803z" />
    <glyph glyph-name="saraiithai.alt3" 
d="M-1959 2007h1632v241h114v-347h-1803z" />
    <glyph glyph-name="sarauethai.alt3" 
d="M-492 2101q0 -20 8 -37.5t22 -30t31.5 -19.5t37.5 -7q19 0 37 7t31.5 19.5t22 30t8.5 37.5q0 21 -8.5 39t-22 31.5t-31.5 21t-37 7.5q-20 0 -37.5 -7.5t-31.5 -21t-22 -31.5t-8 -39zM-598 2101q0 43 16.5 80t44.5 65t65.5 44t78.5 16t77.5 -16t63.5 -44t43 -65t16 -80
q0 -42 -16 -78.5t-43 -63.5t-63.5 -42.5t-77.5 -15.5h-1623l57 106h1390q-12 20 -20.5 44t-8.5 50z" />
    <glyph glyph-name="saraueethai.alt3" 
d="M-1959 2007h1239v241h113v-241h280v241h114v-347h-1803z" />
    <glyph glyph-name="maiekthai.alt4" 
d="M-323 2875h114v-466h-114v466z" />
    <glyph glyph-name="maithothai.alt4" 
d="M-725 2409v233h-237v106h347v-234q111 1 199 13.5t152.5 39.5t105 70t57.5 103h118q-18 -72 -59.5 -132.5t-113 -104.5t-176 -69t-246.5 -25h-147z" />
    <glyph glyph-name="maitrithai.alt4" 
d="M-566 2409q-6 35 -17 66.5t-27 55t-36.5 37t-45.5 13.5q-29 0 -53 -13.5t-42 -37t-30 -55t-18 -66.5h-111q9 59 32 110t56.5 88t76 58t89.5 21q22 0 46 -6t47 -19t43.5 -33.5t35.5 -48.5q15 28 35.5 48t44 33t47.5 19.5t45 6.5q37 0 71.5 -13.5t63.5 -37t52.5 -55
t38.5 -68.5q30 6 58 24t52 45t42.5 60.5t28.5 69.5h115q-16 -50 -43 -101t-64 -93.5t-83.5 -72t-100.5 -35.5h-84q-6 35 -19 66.5t-31.5 55t-43 37t-53.5 13.5q-25 0 -45.5 -13.5t-36.5 -37t-27.5 -55t-17.5 -66.5h-91z" />
    <glyph glyph-name="maichattawathai.alt4" 
d="M-213 2556v-188h-110v188h-234v106h234v188h110v-188h237v-106h-237z" />
    <glyph glyph-name="maiekthai.alt5" 
d="M-700 2875h114v-466h-114v466z" />
    <glyph glyph-name="maithothai.alt5" 
d="M-983 2409v233h-237v106h347v-234q110 1 198 13.5t152.5 39.5t105.5 70t58 103h118q-18 -72 -59.5 -132.5t-113 -104.5t-176 -69t-246.5 -25h-147z" />
    <glyph glyph-name="maitrithai.alt5" 
d="M-893 2409q-6 35 -17 66.5t-27 55t-36.5 37t-45.5 13.5q-29 0 -53 -13.5t-42 -37t-30 -55t-18 -66.5h-111q9 59 32 110t56.5 88t76 58t89.5 21q22 0 46 -6t47 -19t43.5 -33.5t35.5 -48.5q15 28 35.5 48t44 33t47.5 19.5t45 6.5q37 0 71.5 -13.5t63.5 -37t52.5 -55
t38.5 -68.5q30 6 58 24t52 45t42.5 60.5t28.5 69.5h115q-16 -50 -43 -101t-64 -93.5t-83.5 -72t-100.5 -35.5h-84q-6 35 -19 66.5t-31.5 55t-43 37t-53.5 13.5q-25 0 -45.5 -13.5t-36.5 -37t-27.5 -55t-17.5 -66.5h-91z" />
    <glyph glyph-name="maichattawathai.alt5" 
d="M-586 2556v-188h-110v188h-234v106h234v188h110v-188h237v-106h-237z" />
    <glyph glyph-name="sarauthai.alt6" 
d="M-700 -700v368h-225v110h339v-478h-114z" />
    <glyph glyph-name="sarauuthai.alt6" 
d="M-1278 -222h286v-163q0 -55 21 -97.5t55.5 -71t79 -43t91.5 -14.5q54 0 100 14t79 42.5t52 70.5t19 99v163h114v-163q0 -64 -21 -123.5t-65.5 -105.5t-113 -74t-164.5 -28q-80 0 -146 24.5t-113.5 69t-74 105t-26.5 132.5v58h-173v105z" />
    <glyph glyph-name="phinthuthai.alt6" 
d="M-847 -324q0 21 8 40t22 33.5t33.5 23.5t42.5 9q19 0 37.5 -9t32.5 -23.5t23 -33.5t9 -40t-9 -40t-23 -33.5t-32.5 -23.5t-37.5 -9q-23 0 -42.5 9t-33.5 23.5t-22 33.5t-8 40z" />
    <glyph glyph-name="sarauthai.alt7" 
d="M-692 -700v368h-225v110h339v-478h-114z" />
    <glyph glyph-name="sarauuthai.alt7" 
d="M-1508 -222h286v-163q0 -55 21 -97.5t55.5 -71t79 -43t91.5 -14.5q54 0 100 14t79 42.5t52 70.5t19 99v163h114v-163q0 -64 -21 -123.5t-65.5 -105.5t-113 -74t-164.5 -28q-80 0 -146 24.5t-113.5 69t-74 105t-26.5 132.5v58h-173v105z" />
    <glyph glyph-name="phinthuthai.alt7" 
d="M-761 -324q0 21 8 40t22 33.5t33.5 23.5t42.5 9q19 0 37.5 -9t32.5 -23.5t23 -33.5t9 -40t-9 -40t-23 -33.5t-32.5 -23.5t-37.5 -9q-23 0 -42.5 9t-33.5 23.5t-22 33.5t-8 40z" />
    <glyph glyph-name="maihanakatthai.alt8" 
d="M-1085 1897v347h114v-237h1188v-110h-1302z" />
    <glyph glyph-name="maiekthai.alt8" 
d="M-659 3039h114v-466h-114v466z" />
    <glyph glyph-name="maithothai.alt8" 
d="M-901 2573v233h-237v106h347v-234q110 1 198 13.5t152.5 39.5t105.5 70t58 103h118q-18 -72 -59.5 -132.5t-113 -104.5t-176 -69t-246.5 -25h-147z" />
    <glyph glyph-name="maitrithai.alt8" 
d="M-722 2573q-6 35 -16.5 66.5t-25.5 55t-35 37t-45 13.5q-29 0 -53.5 -13.5t-43 -37t-31.5 -55t-19 -66.5h-109q9 59 32.5 110t57.5 88t76.5 58t89.5 21q45 0 91 -23.5t77 -79.5q32 48 76 75.5t92 27.5q39 0 74 -13.5t64.5 -37t53 -55t38.5 -68.5q30 6 58 24t52 45
t42.5 60.5t28.5 69.5h116q-16 -50 -43.5 -101t-64.5 -93.5t-83 -72t-100 -35.5h-85q-6 35 -19 66.5t-32.5 55t-44.5 37t-55 13.5q-25 0 -45 -13.5t-35 -37t-25.5 -55t-16.5 -66.5h-92z" />
    <glyph glyph-name="maichattawathai.alt8" 
d="M-529 2761v-188h-109v188h-234v106h234v188h109v-188h238v-106h-238z" />
    </font>
</defs>
</svg>
