<svg xmlns="http://www.w3.org/2000/svg" width="20" height="20" fill="none" viewBox="0 0 20 20">
    <path fill="#D26132" fill-rule="evenodd" d="M5.973 4.763c.056-.078.119-.174.198-.303.03-.047.109-.178.168-.276l.067-.11C7.066 2.995 7.545 2.5 8.409 2.5h3.182c.864 0 1.344.495 2.003 1.574l.067.11.168.276c.08.13.142.225.198.303.038.052.07.093.097.123h2.24c1.318 0 2.386 1.069 2.386 2.387v7.159c0 1.318-1.068 2.386-2.386 2.386H3.636c-1.318 0-2.386-1.068-2.386-2.386v-7.16c0-1.317 1.068-2.386 2.386-2.386h2.24c.027-.03.06-.071.097-.123zM3.637 6.477c-.44 0-.796.356-.796.796v7.159c0 .44.356.795.796.795h12.727c.44 0 .795-.356.795-.795v-7.16c0-.439-.356-.795-.795-.795h-2.387c-.528 0-.884-.289-1.24-.785-.083-.114-.164-.238-.262-.397L12.295 5l-.058-.096c-.36-.588-.577-.812-.646-.812H8.41c-.069 0-.286.224-.645.812L7.706 5l-.18.296c-.098.159-.18.283-.262.397-.356.496-.713.785-1.241.785H3.637zm12.726 1.591c0 .44-.356.796-.795.796-.44 0-.796-.357-.796-.796 0-.44.357-.795.796-.795.44 0 .795.356.795.795zm-10.34 2.386c0 2.197 1.78 3.978 3.977 3.978s3.977-1.78 3.977-3.978c0-2.196-1.78-3.977-3.977-3.977s-3.977 1.78-3.977 3.977zm6.363 0c0 1.319-1.068 2.387-2.386 2.387s-2.387-1.068-2.387-2.386S8.682 8.067 10 8.067s2.386 1.069 2.386 2.386z" clip-rule="evenodd"/>
</svg>
