<svg width="48" height="48" viewBox="0 0 48 48" fill="none" xmlns="http://www.w3.org/2000/svg">
<path d="M40.4844 9.9375H7.51562C5.57711 9.9375 4 11.5146 4 13.4531V34.5469C4 36.4854 5.57711 38.0625 7.51562 38.0625H40.4844C42.4229 38.0625 44 36.4854 44 34.5469V13.4531C44 11.5146 42.4229 9.9375 40.4844 9.9375ZM41.6562 34.5469C41.6562 35.193 41.1305 35.7188 40.4844 35.7188H7.51562C6.86945 35.7188 6.34375 35.193 6.34375 34.5469V21.6562H41.6562V34.5469ZM41.6562 19.3125H6.34375V16.9688H41.6562V19.3125ZM41.6562 14.625H6.34375V13.4531C6.34375 12.807 6.86945 12.2812 7.51562 12.2812H40.4844C41.1305 12.2812 41.6562 12.807 41.6562 13.4531V14.625Z" fill="#D26132"/>
<path d="M12.2031 28.6875H9.85938C9.21219 28.6875 8.6875 29.2122 8.6875 29.8594C8.6875 30.5066 9.21219 31.0312 9.85938 31.0312H12.2031C12.8503 31.0312 13.375 30.5066 13.375 29.8594C13.375 29.2122 12.8503 28.6875 12.2031 28.6875Z" fill="#D26132"/>
<path d="M19.2344 28.6875H16.8906C16.2434 28.6875 15.7188 29.2122 15.7188 29.8594C15.7188 30.5066 16.2434 31.0312 16.8906 31.0312H19.2344C19.8816 31.0312 20.4062 30.5066 20.4062 29.8594C20.4062 29.2122 19.8816 28.6875 19.2344 28.6875Z" fill="#D26132"/>
</svg>
