<svg width="49" height="48" viewBox="0 0 49 48" fill="none" xmlns="http://www.w3.org/2000/svg">
<path d="M6.21875 5.625V19.6875H20.2812V11.25H23.0938V8.4375H20.2812V5.625H6.21875ZM17.4688 16.875H9.03125V8.4375H17.4688V16.875Z" fill="black" fill-opacity="0.8"/>
<path d="M42.7812 42.1875V28.125H37.1562V25.3125H34.3438V28.125H25.9062V30.9375H28.7188V33.75H25.9062V36.5625H28.7188V42.1875H42.7812ZM31.5312 30.9375H39.9688V39.375H31.5312V30.9375Z" fill="black" fill-opacity="0.8"/>
<path d="M14.6562 25.3125H20.2812V22.5H6.21875V25.3125H11.8438V28.125H9.03125V30.9375H11.8438V36.5625H9.03125V39.375H11.8438V42.1875H25.9062V39.375H23.0938V36.5625H20.2812V39.375H14.6562V36.5625H17.4688V33.75H14.6562V25.3125Z" fill="black" fill-opacity="0.8"/>
<path d="M11.8438 11.25H14.6562V14.0625H11.8438V11.25Z" fill="black" fill-opacity="0.8"/>
<path d="M34.3438 11.25H37.1562V14.0625H34.3438V11.25Z" fill="black" fill-opacity="0.8"/>
<path d="M37.1562 19.6875H42.7812V5.625H28.7188V19.6875H34.3438V22.5H37.1562V19.6875ZM31.5312 16.875V8.4375H39.9688V16.875H31.5312Z" fill="black" fill-opacity="0.8"/>
<path d="M42.7812 25.3125V22.5C42.1008 22.5 37.8414 22.5 37.1562 22.5V25.3125H42.7812Z" fill="black" fill-opacity="0.8"/>
<path d="M34.3438 33.75H37.1562V36.5625H34.3438V33.75Z" fill="black" fill-opacity="0.8"/>
<path d="M23.0938 30.9375H25.9062V33.75H23.0938V30.9375Z" fill="black" fill-opacity="0.8"/>
<path d="M17.4688 33.75H20.2812C20.2812 33.0696 20.2812 28.8102 20.2812 28.125H17.4688V33.75Z" fill="black" fill-opacity="0.8"/>
<path d="M20.2812 25.3125H23.0938V28.125H20.2812V25.3125Z" fill="black" fill-opacity="0.8"/>
<path d="M9.03125 30.9375H6.21875V36.5625H9.03125C9.03125 35.8821 9.03125 31.6227 9.03125 30.9375Z" fill="black" fill-opacity="0.8"/>
<path d="M6.21875 39.375H9.03125V42.1875H6.21875V39.375Z" fill="black" fill-opacity="0.8"/>
<path d="M23.0938 5.625H25.9062V8.4375H23.0938V5.625Z" fill="black" fill-opacity="0.8"/>
<path d="M23.0938 16.875H25.9062C25.9062 16.1946 25.9062 11.9352 25.9062 11.25H23.0938V16.875Z" fill="black" fill-opacity="0.8"/>
<path d="M25.9062 22.5V19.6875H23.0938V25.3125H34.3438V22.5H25.9062Z" fill="black" fill-opacity="0.8"/>
</svg>
