<svg width="96" height="96" viewBox="0 0 96 96" fill="none" xmlns="http://www.w3.org/2000/svg">
<path d="M16.1538 66.3941C12.6839 66.3941 9.86108 69.2169 9.86108 72.6868C9.86108 76.1567 12.6839 78.9795 16.1538 78.9795C19.6236 78.9795 22.4465 76.1567 22.4465 72.6868C22.4465 69.2169 19.6236 66.3941 16.1538 66.3941ZM16.1538 76.0751C14.2855 76.0751 12.7655 74.555 12.7655 72.6868C12.7655 70.8185 14.2855 69.2985 16.1538 69.2985C18.022 69.2985 19.5421 70.8185 19.5421 72.6868C19.5421 74.555 18.022 76.0751 16.1538 76.0751Z" fill="#2676BC"/>
<path d="M82.095 28.9845V26.9282C82.095 18.7961 75.4789 12.18 67.3468 12.18C59.2147 12.18 52.5986 18.7961 52.5986 26.9282V49.1715C52.5986 53.709 48.9071 57.4005 44.3696 57.4005H43.1145C40.3309 54.0334 36.3816 51.6334 31.7932 50.8352L10.7726 47.1795C8.09306 46.713 5.36137 47.4497 3.27862 49.2007C1.19512 50.9526 0 53.5183 0 56.2403V74.1386C0 77.0745 2.38875 79.4633 5.32462 79.4633H7.32937C9.36656 82.1096 12.5634 83.8198 16.1539 83.8198C19.7441 83.8198 22.941 82.1098 24.9784 79.4633H42.1127C45.0486 79.4633 47.4373 77.0745 47.4373 74.1386V69.4337C47.4373 66.1286 46.5844 63.0034 45.0759 60.2796C50.8869 59.9138 55.5032 55.0727 55.5032 49.1711V26.928C55.5032 20.3974 60.8162 15.0842 67.347 15.0842C73.8778 15.0842 79.1908 20.3974 79.1908 26.9282V28.9845C77.5007 29.5839 76.2864 31.1981 76.2864 33.0911V53.2277C76.2864 55.1207 77.5007 56.7349 79.1908 57.3343V72.1058H82.0952V57.3343C83.7853 56.7349 84.9996 55.1207 84.9996 53.2277V33.0911C84.9994 31.1981 83.7851 29.5839 82.095 28.9845ZM13.9911 50.6869L29.934 53.4593V55.8047C29.934 56.5348 29.6092 57.2186 29.043 57.6801C28.4769 58.1417 27.7408 58.3223 27.0257 58.1754L15.9268 55.8949C14.8052 55.6633 13.9912 54.6662 13.9912 53.5239V50.6869H13.9911ZM5.32462 76.5593C3.99 76.5593 2.90437 75.4736 2.90437 74.139V74.0423H5.106C5.21269 74.916 5.41875 75.7596 5.71631 76.5593H5.32462V76.5593ZM16.1539 80.9156C11.6164 80.9156 7.92487 77.2243 7.92487 72.6866C7.92487 68.1489 11.6162 64.4576 16.1539 64.4576C20.6914 64.4576 24.3829 68.1489 24.3829 72.6866C24.3829 77.2243 20.6912 80.9156 16.1539 80.9156ZM44.5329 74.1388C44.5329 75.4733 43.4473 76.5591 42.1127 76.5591H26.5912C26.8888 75.7592 27.0949 74.9158 27.2016 74.0421H44.5329V74.1388ZM44.5329 71.1375H27.177C26.4204 65.7294 21.7671 61.5533 16.1539 61.5533C10.5409 61.5533 5.88712 65.7294 5.13075 71.1375H2.90437V56.2403C2.90437 54.3778 3.72225 52.6221 5.14781 51.4232C6.57244 50.2251 8.4405 49.7216 10.2744 50.0404L11.0865 50.1816V53.5239C11.0865 56.037 12.8751 58.2306 15.3405 58.7393L26.4409 61.0202C26.8003 61.0939 27.1616 61.1303 27.5203 61.1303C28.7342 61.1303 29.9169 60.7147 30.8782 59.931C32.1238 58.9155 32.838 57.4114 32.838 55.8047V54.045C39.7001 55.9436 44.5327 62.1816 44.5327 69.4339V71.1375H44.5329ZM82.095 53.2279C82.095 54.0287 81.4436 54.6801 80.6428 54.6801C79.842 54.6801 79.1906 54.0287 79.1906 53.2279V33.0911C79.1906 32.2903 79.842 31.6389 80.6428 31.6389C81.4436 31.6389 82.095 32.2903 82.095 33.0911V53.2279Z" fill="#2676BC"/>
<path d="M90.3675 74.5262H70.9183L65.2856 83.82H96L90.3675 74.5262ZM72.5545 77.4304H88.7318L90.844 80.9156H70.4421L72.5545 77.4304Z" fill="#2676BC"/>
</svg>
