<svg width="96" height="96" viewBox="0 0 96 96" fill="none" xmlns="http://www.w3.org/2000/svg">
<g clip-path="url(#clip0)">
<path d="M90.9444 58.4142H5.04996C3.70804 58.4069 2.42362 57.8799 1.47737 56.9485C0.531125 56.017 -2.07085e-05 54.7568 6.05556e-10 53.4431V21.9379C0.0089398 20.6252 0.547904 19.3693 1.49928 18.4442C2.45065 17.5192 3.7372 17 5.07817 17H90.95C92.2861 17.0072 93.5655 17.5296 94.5108 18.4539C95.456 19.3783 95.9911 20.63 96 21.9379V53.4708C95.9926 54.7805 95.4574 56.0345 94.5107 56.9602C93.5641 57.8858 92.2824 58.4084 90.9444 58.4142ZM5.04996 19.8721C4.48976 19.8721 3.95243 20.0896 3.55578 20.4769C3.15913 20.8641 2.93555 21.3895 2.93405 21.9379V53.4708C2.93405 54.0201 3.15698 54.5469 3.55379 54.9354C3.9506 55.3238 4.48879 55.542 5.04996 55.542H90.9444C91.5046 55.5405 92.0413 55.3217 92.4369 54.9334C92.8325 54.5451 93.0547 54.0191 93.0547 53.4708V21.9379C93.0517 21.39 92.8276 20.8654 92.4313 20.4785C92.035 20.0915 91.4985 19.8736 90.9388 19.8721H5.04996Z" fill="#612F7A"/>
<path d="M78.6608 42.9653H17.3504C17.1633 42.9536 16.9757 42.9795 16.7993 43.0415C16.6229 43.1034 16.4613 43.2002 16.3245 43.3257C16.1878 43.4512 16.0788 43.6029 16.0043 43.7713C15.9298 43.9397 15.8914 44.1212 15.8914 44.3047C15.8914 44.4882 15.9298 44.6698 16.0043 44.8382C16.0788 45.0066 16.1878 45.1582 16.3245 45.2837C16.4613 45.4093 16.6229 45.506 16.7993 45.568C16.9757 45.63 17.1633 45.6559 17.3504 45.6441H78.6608C79.0085 45.6223 79.3347 45.4716 79.573 45.2229C79.8114 44.9741 79.944 44.6458 79.944 44.3047C79.944 43.9637 79.8114 43.6354 79.573 43.3866C79.3347 43.1378 79.0085 42.9872 78.6608 42.9653V42.9653Z" fill="#612F7A"/>
<path d="M78.6608 48.6157H17.3504C16.9867 48.6157 16.638 48.7571 16.3808 49.0088C16.1237 49.2605 15.9792 49.6019 15.9792 49.9579C15.9792 50.3139 16.1237 50.6552 16.3808 50.907C16.638 51.1587 16.9867 51.3001 17.3504 51.3001H78.6608C79.0245 51.3001 79.3732 51.1587 79.6303 50.907C79.8875 50.6552 80.0319 50.3139 80.0319 49.9579C80.0319 49.6019 79.8875 49.2605 79.6303 49.0088C79.3732 48.7571 79.0245 48.6157 78.6608 48.6157V48.6157Z" fill="#612F7A"/>
<path d="M40.8568 32.0954H45.4327L43.2209 35.5585C43.0209 35.873 42.9561 36.2523 43.0406 36.6134C43.1252 36.9746 43.3523 37.2883 43.6723 37.4862V37.4862C43.9887 37.6817 44.3711 37.7473 44.7365 37.6687C45.102 37.5902 45.4211 37.3737 45.6246 37.0664L47.9888 33.3657L50.3586 37.0664C50.4579 37.2223 50.5876 37.3576 50.7403 37.4645C50.893 37.5714 51.0657 37.6478 51.2485 37.6893C51.4314 37.7309 51.6208 37.7367 51.806 37.7066C51.9912 37.6765 52.1685 37.611 52.3278 37.5138C52.4871 37.4166 52.6253 37.2896 52.7345 37.1401C52.8436 36.9907 52.9217 36.8216 52.9641 36.6426C53.0066 36.4636 53.0126 36.2782 52.9818 36.0969C52.951 35.9156 52.8841 35.7421 52.7848 35.5861V35.5861L50.573 32.0954H55.149C55.5128 32.073 55.8542 31.9157 56.1038 31.6556C56.3534 31.3955 56.4923 31.052 56.4923 30.6952C56.4923 30.3383 56.3534 29.9949 56.1038 29.7348C55.8542 29.4747 55.5128 29.3174 55.149 29.295H50.573L52.7848 25.8374C52.9008 25.6843 52.9836 25.5098 53.0284 25.3244C53.0732 25.1389 53.0789 24.9465 53.0452 24.7588C53.0115 24.5712 52.9391 24.3922 52.8324 24.2328C52.7258 24.0734 52.587 23.937 52.4247 23.8318C52.2624 23.7267 52.0799 23.655 51.8884 23.6211C51.6968 23.5872 51.5002 23.5919 51.3106 23.6349C51.121 23.6778 50.9422 23.7581 50.7854 23.8709C50.6285 23.9837 50.4967 24.1266 50.3981 24.2909C50.3817 24.3089 50.3683 24.3294 50.3586 24.3516L47.9944 28.0523L45.6246 24.3627C45.529 24.2045 45.4025 24.0664 45.2524 23.9561C45.1023 23.8458 44.9314 23.7656 44.7496 23.7199C44.5678 23.6743 44.3786 23.6641 44.1928 23.6901C44.007 23.716 43.8282 23.7775 43.6667 23.8711C43.5051 23.9646 43.364 24.0884 43.2514 24.2354C43.1387 24.3824 43.0567 24.5496 43.0101 24.7276C42.9635 24.9055 42.9531 25.0908 42.9796 25.2727C43.0061 25.4546 43.0689 25.6296 43.1645 25.7877L43.1984 25.8484L45.4102 29.3061H40.8568C40.5057 29.3436 40.1811 29.5067 39.9453 29.7641C39.7095 30.0214 39.5791 30.355 39.5791 30.7007C39.5791 31.0464 39.7095 31.38 39.9453 31.6374C40.1811 31.8947 40.5057 32.0578 40.8568 32.0954Z" fill="#612F7A"/>
<path d="M30.8131 66.7821C30.8131 65.5062 32.4607 64.1253 33.0362 63.7442C33.1926 63.6423 33.3269 63.5112 33.4315 63.3585C33.5361 63.2058 33.6089 63.0344 33.6459 62.8541C33.6828 62.6738 33.6831 62.4882 33.6468 62.3078C33.6104 62.1274 33.5381 61.9558 33.434 61.8028C33.3299 61.6497 33.196 61.5182 33.04 61.4158C32.884 61.3134 32.7089 61.2421 32.5248 61.206C32.3406 61.1698 32.1509 61.1695 31.9667 61.2051C31.7824 61.2407 31.6071 61.3114 31.4507 61.4134C31.0896 61.6453 27.9468 63.7884 27.9468 66.7821C28.0379 68.1965 28.673 69.5247 29.7241 70.4993C30.3956 71.267 30.8131 71.7697 30.8131 72.3883C30.8131 73.6642 29.1599 75.045 28.5562 75.4261C28.2577 75.6396 28.0551 75.9578 27.9906 76.3141C27.9262 76.6705 28.0048 77.0374 28.2102 77.3383C28.4156 77.6391 28.7318 77.8507 29.0928 77.9287C29.4538 78.0067 29.8316 77.9452 30.1473 77.757C30.5028 77.525 33.6456 75.3819 33.6456 72.3883C33.5569 70.9748 32.9214 69.6475 31.8683 68.6766C31.2307 67.9088 30.8131 67.4062 30.8131 66.7821Z" fill="#612F7A"/>
<path d="M39.4008 66.7821C39.4008 65.5062 41.0541 64.1253 41.6578 63.7442C41.9563 63.5307 42.1589 63.2125 42.2234 62.8562C42.2878 62.4999 42.2091 62.1329 42.0038 61.8321C41.7984 61.5312 41.4821 61.3196 41.1212 61.2416C40.7602 61.1636 40.3824 61.2251 40.0667 61.4134C39.7112 61.6453 36.5684 63.7884 36.5684 66.7821C36.6547 68.1966 37.2882 69.5258 38.3401 70.4993C39.0172 71.267 39.4291 71.7697 39.4291 72.3883C39.4291 73.6642 37.7815 75.045 37.1721 75.4261C36.8736 75.6397 36.671 75.9578 36.6066 76.3141C36.5421 76.6705 36.6208 77.0374 36.8262 77.3383C37.0316 77.6391 37.3478 77.8507 37.7087 77.9287C38.0697 78.0067 38.4475 77.9452 38.7633 77.757C39.1244 77.525 42.2672 75.3819 42.2672 72.3883C42.1763 70.9754 41.5411 69.6488 40.4898 68.6766C39.824 67.9088 39.4065 67.4062 39.4065 66.7821H39.4008Z" fill="#612F7A"/>
<path d="M47.9887 66.7821C47.9887 65.5062 49.6419 64.1253 50.2456 63.7442C50.402 63.6423 50.5363 63.5112 50.6409 63.3585C50.7455 63.2058 50.8184 63.0344 50.8553 62.8541C50.8922 62.6738 50.8925 62.4882 50.8562 62.3078C50.8198 62.1274 50.7475 61.9558 50.6434 61.8028C50.5393 61.6497 50.4054 61.5182 50.2494 61.4158C50.0934 61.3134 49.9183 61.2421 49.7342 61.206C49.55 61.1698 49.3604 61.1695 49.1761 61.2051C48.9918 61.2407 48.8165 61.3114 48.6601 61.4134C48.299 61.6453 45.1562 63.7884 45.1562 66.7821C45.2474 68.1965 45.8824 69.5247 46.9335 70.4993C47.605 71.267 48.0225 71.7697 48.0225 72.3883C48.0225 73.6642 46.3749 75.045 45.7656 75.4261C45.6005 75.5245 45.4575 75.6546 45.3451 75.8085C45.2327 75.9625 45.1533 76.1371 45.1116 76.3218C45.0699 76.5066 45.0668 76.6977 45.1026 76.8836C45.1383 77.0695 45.2121 77.2465 45.3195 77.4038C45.4268 77.5611 45.5656 77.6955 45.7275 77.799C45.8893 77.9024 46.0708 77.9728 46.2611 78.0058C46.4515 78.0387 46.6466 78.0337 46.8349 77.991C47.0232 77.9482 47.2007 77.8686 47.3567 77.757C47.7122 77.525 50.855 75.3819 50.855 72.3883C50.7666 70.9731 50.1311 69.644 49.0777 68.671C48.4062 67.9088 47.9943 67.4062 47.9943 66.7821H47.9887Z" fill="#612F7A"/>
<path d="M56.5822 66.7821C56.5822 65.5062 58.2297 64.1253 58.8053 63.7442C58.9616 63.6423 59.0959 63.5112 59.2005 63.3585C59.3051 63.2058 59.378 63.0344 59.4149 62.8541C59.4519 62.6738 59.4522 62.4882 59.4158 62.3078C59.3795 62.1274 59.3072 61.9558 59.2031 61.8028C59.099 61.6497 58.9651 61.5182 58.8091 61.4158C58.6531 61.3134 58.478 61.2421 58.2938 61.206C58.1096 61.1698 57.92 61.1695 57.7357 61.2051C57.5514 61.2407 57.3761 61.3114 57.2198 61.4134C56.8586 61.6453 53.7158 63.7884 53.7158 66.7821C53.807 68.1965 54.442 69.5247 55.4932 70.4993C56.1703 71.267 56.5822 71.7697 56.5822 72.3883C56.5822 73.6642 54.9289 75.045 54.3252 75.4261C54.0267 75.6396 53.8241 75.9578 53.7597 76.3141C53.6952 76.6705 53.7739 77.0374 53.9793 77.3383C54.1847 77.6391 54.5009 77.8507 54.8618 77.9287C55.2228 78.0067 55.6006 77.9452 55.9164 77.757C56.2718 77.525 59.4147 75.3819 59.4147 72.3883C59.3258 70.976 58.6926 69.6494 57.6429 68.6766C56.9715 67.9088 56.5596 67.4062 56.5596 66.7821H56.5822Z" fill="#612F7A"/>
<path d="M65.1699 66.7821C65.1699 65.5062 66.8231 64.1253 67.4269 63.7442C67.7253 63.5307 67.9279 63.2125 67.9924 62.8562C68.0569 62.4999 67.9782 62.1329 67.7728 61.8321C67.5674 61.5312 67.2512 61.3196 66.8902 61.2416C66.5292 61.1636 66.1514 61.2251 65.8357 61.4134C65.4802 61.6453 62.3374 63.7884 62.3374 66.7821C62.4276 68.1956 63.0605 69.5235 64.1091 70.4993C64.7862 71.267 65.1981 71.7697 65.1981 72.3883C65.1981 73.6642 63.5505 75.045 62.9411 75.4261C62.6427 75.6397 62.4401 75.9578 62.3756 76.3141C62.3111 76.6705 62.3898 77.0374 62.5952 77.3383C62.8006 77.6391 63.1168 77.8507 63.4778 77.9287C63.8388 78.0067 64.2166 77.9452 64.5323 77.757C64.8934 77.525 68.0362 75.3819 68.0362 72.3883C67.9453 70.9754 67.3101 69.6488 66.2589 68.6766C65.5818 67.9088 65.1755 67.4062 65.1755 66.7821H65.1699Z" fill="#612F7A"/>
</g>
<defs>
<clipPath id="clip0">
<rect width="96" height="61" fill="white" transform="translate(0 17)"/>
</clipPath>
</defs>
</svg>
